<?xml version="1.0" encoding="us-ascii" standalone="no"?><svg xmlns="http://www.w3.org/2000/svg" xmlns:xlink="http://www.w3.org/1999/xlink" contentStyleType="text/css" height="858px" preserveAspectRatio="none" style="width:1238px;height:858px;" version="1.1" viewBox="0 0 1238 858" width="1238px" zoomAndPan="magnify"><defs/><g><!--cluster Bartlett--><g id="cluster_Bartlett"><path d="M8.5,6 L67.5,6 A3.75,3.75 0 0 1 70,8.5 L77,28.2969 L1228.5,28.2969 A2.5,2.5 0 0 1 1231,30.7969 L1231,848.5 A2.5,2.5 0 0 1 1228.5,851 L8.5,851 A2.5,2.5 0 0 1 6,848.5 L6,8.5 A2.5,2.5 0 0 1 8.5,6 " fill="none" style="stroke:#000000;stroke-width:1.5;"/><line style="stroke:#000000;stroke-width:1.5;" x1="6" x2="77" y1="28.2969" y2="28.2969"/><text fill="#000000" font-family="sans-serif" font-size="14" font-weight="bold" lengthAdjust="spacing" textLength="58" x="10" y="20.9951">Bartlett</text></g><!--cluster GraphPlantUml--><g id="cluster_GraphPlantUml"><path d="M313.5,49 L430.5,49 A3.75,3.75 0 0 1 433,51.5 L440,71.2969 L922.5,71.2969 A2.5,2.5 0 0 1 925,73.7969 L925,349.5 A2.5,2.5 0 0 1 922.5,352 L313.5,352 A2.5,2.5 0 0 1 311,349.5 L311,51.5 A2.5,2.5 0 0 1 313.5,49 " fill="#B0C4DE" style="stroke:#000000;stroke-width:1.5;"/><line style="stroke:#000000;stroke-width:1.5;" x1="311" x2="440" y1="71.2969" y2="71.2969"/><text fill="#000000" font-family="sans-serif" font-size="14" font-weight="bold" lengthAdjust="spacing" textLength="116" x="315" y="63.9951">GraphPlantUml</text></g><!--cluster GraphUml--><g id="cluster_GraphUml"><path d="M32.5,376 L110.5,376 A3.75,3.75 0 0 1 113,378.5 L120,398.2969 L1204.5,398.2969 A2.5,2.5 0 0 1 1207,400.7969 L1207,824.5 A2.5,2.5 0 0 1 1204.5,827 L32.5,827 A2.5,2.5 0 0 1 30,824.5 L30,378.5 A2.5,2.5 0 0 1 32.5,376 " fill="none" style="stroke:#000000;stroke-width:1.5;"/><line style="stroke:#000000;stroke-width:1.5;" x1="30" x2="120" y1="398.2969" y2="398.2969"/><text fill="#000000" font-family="sans-serif" font-size="14" font-weight="bold" lengthAdjust="spacing" textLength="77" x="34" y="390.9951">GraphUml</text></g><!--cluster Generator--><g id="cluster_Generator"><path d="M56.5,419 L138.5,419 A3.75,3.75 0 0 1 141,421.5 L148,441.2969 L1180.5,441.2969 A2.5,2.5 0 0 1 1183,443.7969 L1183,800.5 A2.5,2.5 0 0 1 1180.5,803 L56.5,803 A2.5,2.5 0 0 1 54,800.5 L54,421.5 A2.5,2.5 0 0 1 56.5,419 " fill="#32CD32" style="stroke:#000000;stroke-width:1.5;"/><line style="stroke:#000000;stroke-width:1.5;" x1="54" x2="148" y1="441.2969" y2="441.2969"/><text fill="#000000" font-family="sans-serif" font-size="14" font-weight="bold" lengthAdjust="spacing" textLength="81" x="58" y="433.9951">Generator</text></g><!--class PlantUmlGenerator--><g id="elem_PlantUmlGenerator"><rect codeLine="4" fill="#F1F1F1" height="251.8281" id="PlantUmlGenerator" rx="2.5" ry="2.5" style="stroke:#181818;stroke-width:0.5;" width="581" x="327.5" y="84"/><ellipse cx="548.75" cy="104.1328" fill="#ADD1B2" rx="11" ry="11" style="stroke:#181818;stroke-width:1.0;"/><path d="M551.7188,109.7734 Q551.1406,110.0703 550.5,110.2109 Q549.8594,110.3672 549.1563,110.3672 Q546.6563,110.3672 545.3281,108.7266 Q544.0156,107.0703 544.0156,103.9453 Q544.0156,100.8203 545.3281,99.1641 Q546.6563,97.5078 549.1563,97.5078 Q549.8594,97.5078 550.5,97.6641 Q551.1563,97.8203 551.7188,98.1172 L551.7188,100.8359 Q551.0938,100.2578 550.5,99.9922 Q549.9063,99.7109 549.2813,99.7109 Q547.9375,99.7109 547.25,100.7891 Q546.5625,101.8516 546.5625,103.9453 Q546.5625,106.0391 547.25,107.1172 Q547.9375,108.1797 549.2813,108.1797 Q549.9063,108.1797 550.5,107.9141 Q551.0938,107.6328 551.7188,107.0547 L551.7188,109.7734 Z " fill="#000000"/><text fill="#000000" font-family="sans-serif" font-size="12" font-style="italic" lengthAdjust="spacing" textLength="44" x="612.25" y="100.1387">&#171;class&#187;</text><text fill="#000000" font-family="sans-serif" font-size="14" lengthAdjust="spacing" textLength="130" x="569.25" y="115.9639">PlantUmlGenerator</text><line style="stroke:#181818;stroke-width:0.5;" x1="328.5" x2="907.5" y1="124.2656" y2="124.2656"/><ellipse cx="338.5" cy="137.9141" fill="none" rx="3" ry="3" style="stroke:#038048;stroke-width:1.0;"/><text fill="#000000" font-family="sans-serif" font-size="14" lengthAdjust="spacing" text-decoration="underline" textLength="206" x="347.5" y="141.2607">EOL : string = "\n" {readOnly}</text><text fill="#000000" font-family="sans-serif" font-size="14" lengthAdjust="spacing" textLength="4" x="347.5" y="157.5576">&#160;</text><line style="stroke:#181818;stroke-width:1.0;" x1="328.5" x2="907.5" y1="164.8594" y2="164.8594"/><ellipse cx="338.5" cy="178.5078" fill="#84BE84" rx="3" ry="3" style="stroke:#038048;stroke-width:1.0;"/><text fill="#000000" font-family="sans-serif" font-size="14" lengthAdjust="spacing" textLength="555" x="347.5" y="181.8545">__construct(executable : string = 'java\ \-jar\ plantuml\.jar', format : string = 'png')</text><ellipse cx="338.5" cy="194.8047" fill="#84BE84" rx="3" ry="3" style="stroke:#038048;stroke-width:1.0;"/><text fill="#000000" font-family="sans-serif" font-size="14" lengthAdjust="spacing" textLength="217" x="347.5" y="198.1514">setOptions(values : array) : void</text><ellipse cx="338.5" cy="211.1016" fill="#84BE84" rx="3" ry="3" style="stroke:#038048;stroke-width:1.0;"/><text fill="#000000" font-family="sans-serif" font-size="14" lengthAdjust="spacing" textLength="437" x="347.5" y="214.4482">getFormatter() : Bartlett.GraphUml.Formatter.FormatterInterface</text><ellipse cx="338.5" cy="227.3984" fill="#84BE84" rx="3" ry="3" style="stroke:#038048;stroke-width:1.0;"/><text fill="#000000" font-family="sans-serif" font-size="14" lengthAdjust="spacing" textLength="125" x="347.5" y="230.7451">getName() : string</text><ellipse cx="338.5" cy="243.6953" fill="#84BE84" rx="3" ry="3" style="stroke:#038048;stroke-width:1.0;"/><text fill="#000000" font-family="sans-serif" font-size="14" lengthAdjust="spacing" textLength="497" x="347.5" y="247.042">createScript(graph : Graphp.Graph.Graph, encode : bool = false) : string</text><ellipse cx="338.5" cy="259.9922" fill="#84BE84" rx="3" ry="3" style="stroke:#038048;stroke-width:1.0;"/><text fill="#000000" font-family="sans-serif" font-size="14" lengthAdjust="spacing" textLength="531" x="347.5" y="263.3389">createImageFile(graph : Graphp.Graph.Graph, cmdFormat : string = '') : string</text><rect fill="#F24D5C" height="6" style="stroke:#C82930;stroke-width:1.0;" width="6" x="335.5" y="273.2891"/><text fill="#000000" font-family="sans-serif" font-size="14" lengthAdjust="spacing" textLength="362" x="347.5" y="279.6357">getLayoutGraph(graph : Graphp.Graph.Graph) : array</text><rect fill="#F24D5C" height="6" style="stroke:#C82930;stroke-width:1.0;" width="6" x="335.5" y="289.5859"/><text fill="#000000" font-family="sans-serif" font-size="14" lengthAdjust="spacing" textLength="368" x="347.5" y="295.9326">getLayoutVertex(vertex : Graphp.Graph.Vertex) : array</text><rect fill="#F24D5C" height="6" style="stroke:#C82930;stroke-width:1.0;" width="6" x="335.5" y="305.8828"/><text fill="#000000" font-family="sans-serif" font-size="14" lengthAdjust="spacing" textLength="405" x="347.5" y="312.2295">getLayoutEdge(edge : Graphp.Graph.EdgeDirected) : array</text><rect fill="#F24D5C" height="6" style="stroke:#C82930;stroke-width:1.0;" width="6" x="335.5" y="322.1797"/><text fill="#000000" font-family="sans-serif" font-size="14" lengthAdjust="spacing" textLength="488" x="347.5" y="328.5264">getAttributesPrefixed(entity : Graphp.Graph.Entity, prefix : string) : array</text></g><!--class AbstractGenerator--><g id="elem_AbstractGenerator"><rect codeLine="21" fill="#F1F1F1" height="333.3125" id="AbstractGenerator" rx="2.5" ry="2.5" style="stroke:#181818;stroke-width:0.5;" width="531" x="635.5" y="454"/><ellipse cx="833.25" cy="474.1328" fill="#ADD1B2" rx="11" ry="11" style="stroke:#181818;stroke-width:1.0;"/><path d="M836.2188,479.7734 Q835.6406,480.0703 835,480.2109 Q834.3594,480.3672 833.6563,480.3672 Q831.1563,480.3672 829.8281,478.7266 Q828.5156,477.0703 828.5156,473.9453 Q828.5156,470.8203 829.8281,469.1641 Q831.1563,467.5078 833.6563,467.5078 Q834.3594,467.5078 835,467.6641 Q835.6563,467.8203 836.2188,468.1172 L836.2188,470.8359 Q835.5938,470.2578 835,469.9922 Q834.4063,469.7109 833.7813,469.7109 Q832.4375,469.7109 831.75,470.7891 Q831.0625,471.8516 831.0625,473.9453 Q831.0625,476.0391 831.75,477.1172 Q832.4375,478.1797 833.7813,478.1797 Q834.4063,478.1797 835,477.9141 Q835.5938,477.6328 836.2188,477.0547 L836.2188,479.7734 Z " fill="#000000"/><text fill="#000000" font-family="sans-serif" font-size="12" font-style="italic" lengthAdjust="spacing" textLength="44" x="895.25" y="470.1387">&#171;class&#187;</text><text fill="#000000" font-family="sans-serif" font-size="14" lengthAdjust="spacing" textLength="127" x="853.75" y="485.9639">AbstractGenerator</text><line style="stroke:#181818;stroke-width:0.5;" x1="636.5" x2="1165.5" y1="494.2656" y2="494.2656"/><ellipse cx="646.5" cy="507.9141" fill="none" rx="3" ry="3" style="stroke:#038048;stroke-width:1.0;"/><text fill="#000000" font-family="sans-serif" font-size="14" lengthAdjust="spacing" text-decoration="underline" textLength="323" x="655.5" y="511.2607">CMD_EXECUTABLE : string = "\%E" {readOnly}</text><ellipse cx="646.5" cy="524.2109" fill="none" rx="3" ry="3" style="stroke:#038048;stroke-width:1.0;"/><text fill="#000000" font-family="sans-serif" font-size="14" lengthAdjust="spacing" text-decoration="underline" textLength="290" x="655.5" y="527.5576">CMD_FORMAT : string = "\%F" {readOnly}</text><ellipse cx="646.5" cy="540.5078" fill="none" rx="3" ry="3" style="stroke:#038048;stroke-width:1.0;"/><text fill="#000000" font-family="sans-serif" font-size="14" lengthAdjust="spacing" text-decoration="underline" textLength="324" x="655.5" y="543.8545">CMD_OUTPUT_FILE : string = "\%o" {readOnly}</text><ellipse cx="646.5" cy="556.8047" fill="none" rx="3" ry="3" style="stroke:#038048;stroke-width:1.0;"/><text fill="#000000" font-family="sans-serif" font-size="14" lengthAdjust="spacing" text-decoration="underline" textLength="301" x="655.5" y="560.1514">CMD_TEMP_FILE : string = "\%t" {readOnly}</text><text fill="#000000" font-family="sans-serif" font-size="14" lengthAdjust="spacing" textLength="4" x="655.5" y="576.4482">&#160;</text><polygon fill="none" points="646.5,584.3984,650.5,588.3984,646.5,592.3984,642.5,588.3984" style="stroke:#B38D22;stroke-width:1.0;"/><text fill="#000000" font-family="sans-serif" font-size="14" lengthAdjust="spacing" textLength="106" x="655.5" y="592.7451">options : mixed</text><rect fill="none" height="6" style="stroke:#C82930;stroke-width:1.0;" width="6" x="643.5" y="602.6953"/><text fill="#000000" font-family="sans-serif" font-size="14" lengthAdjust="spacing" textLength="76" x="655.5" y="609.042">executable</text><rect fill="none" height="6" style="stroke:#C82930;stroke-width:1.0;" width="6" x="643.5" y="618.9922"/><text fill="#000000" font-family="sans-serif" font-size="14" lengthAdjust="spacing" textLength="44" x="655.5" y="625.3389">format</text><line style="stroke:#181818;stroke-width:1.0;" x1="636.5" x2="1165.5" y1="632.6406" y2="632.6406"/><ellipse cx="646.5" cy="646.2891" fill="#84BE84" rx="3" ry="3" style="stroke:#038048;stroke-width:1.0;"/><text fill="#000000" font-family="sans-serif" font-size="14" lengthAdjust="spacing" textLength="322" x="655.5" y="649.6357">__construct(executable : string, format : string)</text><ellipse cx="646.5" cy="662.5859" fill="#84BE84" rx="3" ry="3" style="stroke:#038048;stroke-width:1.0;"/><text fill="#000000" font-family="sans-serif" font-size="14" lengthAdjust="spacing" textLength="217" x="655.5" y="665.9326">setOptions(values : array) : void</text><ellipse cx="646.5" cy="678.8828" fill="#84BE84" rx="3" ry="3" style="stroke:#038048;stroke-width:1.0;"/><text fill="#000000" font-family="sans-serif" font-size="14" font-style="italic" lengthAdjust="spacing" textLength="438" x="655.5" y="682.2295">getFormatter() : Bartlett.GraphUml.Formatter.FormatterInterface</text><ellipse cx="646.5" cy="695.1797" fill="#84BE84" rx="3" ry="3" style="stroke:#038048;stroke-width:1.0;"/><text fill="#000000" font-family="sans-serif" font-size="14" font-style="italic" lengthAdjust="spacing" textLength="125" x="655.5" y="698.5264">getName() : string</text><ellipse cx="646.5" cy="711.4766" fill="#84BE84" rx="3" ry="3" style="stroke:#038048;stroke-width:1.0;"/><text fill="#000000" font-family="sans-serif" font-size="14" lengthAdjust="spacing" textLength="122" x="655.5" y="714.8232">getPrefix() : string</text><ellipse cx="646.5" cy="727.7734" fill="#84BE84" rx="3" ry="3" style="stroke:#038048;stroke-width:1.0;"/><text fill="#000000" font-family="sans-serif" font-size="14" lengthAdjust="spacing" textLength="341" x="655.5" y="731.1201">getLabelClass(reflection : ReflectionClass) : string</text><ellipse cx="646.5" cy="744.0703" fill="#84BE84" rx="3" ry="3" style="stroke:#038048;stroke-width:1.0;"/><text fill="#000000" font-family="sans-serif" font-size="14" lengthAdjust="spacing" textLength="403" x="655.5" y="747.417">getLabelExtension(reflection : ReflectionExtension) : string</text><ellipse cx="646.5" cy="760.3672" fill="#84BE84" rx="3" ry="3" style="stroke:#038048;stroke-width:1.0;"/><text fill="#000000" font-family="sans-serif" font-size="14" font-style="italic" lengthAdjust="spacing" textLength="340" x="655.5" y="763.7139">createScript(graph : Graphp.Graph.Graph) : string</text><ellipse cx="646.5" cy="776.6641" fill="#84BE84" rx="3" ry="3" style="stroke:#038048;stroke-width:1.0;"/><text fill="#000000" font-family="sans-serif" font-size="14" lengthAdjust="spacing" textLength="505" x="655.5" y="780.0107">createImageFile(graph : Graphp.Graph.Graph, cmdFormat : string) : string</text></g><!--class GeneratorInterface--><g id="elem_GeneratorInterface"><rect codeLine="41" fill="#F1F1F1" height="186.6406" id="GeneratorInterface" rx="2.5" ry="2.5" style="stroke:#181818;stroke-width:0.5;" width="530" x="70" y="527"/><ellipse cx="265.25" cy="547.1328" fill="#B4A7E5" rx="11" ry="11" style="stroke:#181818;stroke-width:1.0;"/><path d="M261.1719,542.8984 L261.1719,540.7422 L268.5625,540.7422 L268.5625,542.8984 L266.0938,542.8984 L266.0938,550.9766 L268.5625,550.9766 L268.5625,553.1328 L261.1719,553.1328 L261.1719,550.9766 L263.6406,550.9766 L263.6406,542.8984 L261.1719,542.8984 Z " fill="#000000"/><text fill="#000000" font-family="sans-serif" font-size="12" font-style="italic" lengthAdjust="spacing" textLength="70" x="316.25" y="543.1387">&#171;interface&#187;</text><text fill="#000000" font-family="sans-serif" font-size="14" font-style="italic" lengthAdjust="spacing" textLength="131" x="285.75" y="558.9639">GeneratorInterface</text><line style="stroke:#181818;stroke-width:0.5;" x1="71" x2="599" y1="567.2656" y2="567.2656"/><line style="stroke:#181818;stroke-width:1.0;" x1="71" x2="599" y1="575.2656" y2="575.2656"/><ellipse cx="81" cy="588.9141" fill="#84BE84" rx="3" ry="3" style="stroke:#038048;stroke-width:1.0;"/><text fill="#000000" font-family="sans-serif" font-size="14" font-style="italic" lengthAdjust="spacing" textLength="217" x="90" y="592.2607">setOptions(values : array) : void</text><ellipse cx="81" cy="605.2109" fill="#84BE84" rx="3" ry="3" style="stroke:#038048;stroke-width:1.0;"/><text fill="#000000" font-family="sans-serif" font-size="14" font-style="italic" lengthAdjust="spacing" textLength="438" x="90" y="608.5576">getFormatter() : Bartlett.GraphUml.Formatter.FormatterInterface</text><ellipse cx="81" cy="621.5078" fill="#84BE84" rx="3" ry="3" style="stroke:#038048;stroke-width:1.0;"/><text fill="#000000" font-family="sans-serif" font-size="14" font-style="italic" lengthAdjust="spacing" textLength="125" x="90" y="624.8545">getName() : string</text><ellipse cx="81" cy="637.8047" fill="#84BE84" rx="3" ry="3" style="stroke:#038048;stroke-width:1.0;"/><text fill="#000000" font-family="sans-serif" font-size="14" font-style="italic" lengthAdjust="spacing" textLength="121" x="90" y="641.1514">getPrefix() : string</text><ellipse cx="81" cy="654.1016" fill="#84BE84" rx="3" ry="3" style="stroke:#038048;stroke-width:1.0;"/><text fill="#000000" font-family="sans-serif" font-size="14" font-style="italic" lengthAdjust="spacing" textLength="337" x="90" y="657.4482">getLabelClass(reflection : ReflectionClass) : string</text><ellipse cx="81" cy="670.3984" fill="#84BE84" rx="3" ry="3" style="stroke:#038048;stroke-width:1.0;"/><text fill="#000000" font-family="sans-serif" font-size="14" font-style="italic" lengthAdjust="spacing" textLength="403" x="90" y="673.7451">getLabelExtension(reflection : ReflectionExtension) : string</text><ellipse cx="81" cy="686.6953" fill="#84BE84" rx="3" ry="3" style="stroke:#038048;stroke-width:1.0;"/><text fill="#000000" font-family="sans-serif" font-size="14" font-style="italic" lengthAdjust="spacing" textLength="340" x="90" y="690.042">createScript(graph : Graphp.Graph.Graph) : string</text><ellipse cx="81" cy="702.9922" fill="#84BE84" rx="3" ry="3" style="stroke:#038048;stroke-width:1.0;"/><text fill="#000000" font-family="sans-serif" font-size="14" font-style="italic" lengthAdjust="spacing" textLength="504" x="90" y="706.3389">createImageFile(graph : Graphp.Graph.Graph, cmdFormat : string) : string</text></g><!--link PlantUmlGenerator to AbstractGenerator--><g id="link_PlantUmlGenerator_AbstractGenerator"><path codeLine="53" d="M704.64,336.06 C730.4,373.24 748.7787,399.7743 776.0287,439.1043 " fill="none" id="PlantUmlGenerator-to-AbstractGenerator" style="stroke:#181818;stroke-width:1.0;"/><polygon fill="none" points="786.28,453.9,780.9606,435.6872,771.0969,442.5214,786.28,453.9" style="stroke:#181818;stroke-width:1.0;"/></g><!--link PlantUmlGenerator to GeneratorInterface--><g id="link_PlantUmlGenerator_GeneratorInterface"><path codeLine="54" d="M531.36,336.06 C488.78,397.52 448.6111,455.5042 409.5211,511.9242 " fill="none" id="PlantUmlGenerator-to-GeneratorInterface" style="stroke:#181818;stroke-width:1.0;stroke-dasharray:7.0,7.0;"/><polygon fill="none" points="399.27,526.72,414.453,515.3413,404.5892,508.5072,399.27,526.72" style="stroke:#181818;stroke-width:1.0;"/></g><!--SRC=[pLRHRjf047pdAqw9AXmr-0Eg50c8YIAHWXAe-e245djnd9pFrdcDG9H_xzeNJ6m3IQf8xOknlJF3xTxCoSbpe6BG48evkC- -ZbBbzI8PQK4QLC8bLDHG42BVkoYwe4aYaNsZ8NuSIL0q2QKu7mJ-8pqGekpA5CMc8OGh8Kd43dA32ZKG2rzTlPJQxHmdnDTDGa21knNES22-YOHqe7pnNPnDf-fCR3I2DrHolMtay5RBi6OpDrACJLsoS8LkIZ2N-9hVV88bJCMqzGHwAk9iAMaefpO_DY_58j8XK0aVAxzvOTGJf65C0V-3jGJkAM4WQ0th2xvPHe5dO3vIFzSXr5PMAa-8ExUB-lxkLl5bmGCjH7xmY7E-MOnvxtBdX0-k3cAo_4oF0RbkREJDzLAWSYClQtqUHP8RMO1CyB3QRGW-zWE99mNTqElNnzEiIBPuuGDOHodbj1EA5xlfLNW_KHEkh6N-KsMQuZ6gu_be8L-gjAnm7MXq2RqwkKEy_dbAc8mqBe8LUXPRFA1rJIP_UodY75Oq_bfnszWUpKQsytlJSq12lD68wbKsEdEM19VUbutUtVNC-UNq9kDET-2KO_B5ASMaJkmFx-ywumgf_mPfE1cF9kDP_xRsTz4RpB5pDph4etgQpoEJCaQ6sMwOZThdsJoRh7ua_hLyVopN6tZPdEsd9BmaTp3h_DuOyb1b07EKlSmP5cCaMviRODXzyP0NZp6T5Q5A67MCNG2g2ljrl_Ci-jn3fwIM6ItOZLKKeIacdQLdNoyIjFFBlfN_rG8bn14pb31_QOkwnZyqI5NWawooRHp-LB7h7oIjrk_sgSFRhftJxzUsxJUqwpR-0m00]--></g></svg>