<?xml version="1.0" encoding="us-ascii" standalone="no"?><svg xmlns="http://www.w3.org/2000/svg" xmlns:xlink="http://www.w3.org/1999/xlink" contentStyleType="text/css" height="875px" preserveAspectRatio="none" style="width:1238px;height:875px;" version="1.1" viewBox="0 0 1238 875" width="1238px" zoomAndPan="magnify"><defs/><g><!--cluster Bartlett--><g id="cluster_Bartlett"><path d="M8.5,6 L67.5,6 A3.75,3.75 0 0 1 70,8.5 L77,28.2969 L1228.5,28.2969 A2.5,2.5 0 0 1 1231,30.7969 L1231,865.5 A2.5,2.5 0 0 1 1228.5,868 L8.5,868 A2.5,2.5 0 0 1 6,865.5 L6,8.5 A2.5,2.5 0 0 1 8.5,6 " fill="none" style="stroke:#000000;stroke-width:1.5;"/><line style="stroke:#000000;stroke-width:1.5;" x1="6" x2="77" y1="28.2969" y2="28.2969"/><text fill="#000000" font-family="sans-serif" font-size="14" font-weight="bold" lengthAdjust="spacing" textLength="58" x="10" y="20.9951">Bartlett</text></g><!--cluster GraphPlantUml--><g id="cluster_GraphPlantUml"><path d="M325.5,49 L442.5,49 A3.75,3.75 0 0 1 445,51.5 L452,71.2969 L910.5,71.2969 A2.5,2.5 0 0 1 913,73.7969 L913,349.5 A2.5,2.5 0 0 1 910.5,352 L325.5,352 A2.5,2.5 0 0 1 323,349.5 L323,51.5 A2.5,2.5 0 0 1 325.5,49 " fill="#B0C4DE" style="stroke:#000000;stroke-width:1.5;"/><line style="stroke:#000000;stroke-width:1.5;" x1="323" x2="452" y1="71.2969" y2="71.2969"/><text fill="#000000" font-family="sans-serif" font-size="14" font-weight="bold" lengthAdjust="spacing" textLength="116" x="327" y="63.9951">GraphPlantUml</text></g><!--cluster GraphUml--><g id="cluster_GraphUml"><path d="M32.5,376 L110.5,376 A3.75,3.75 0 0 1 113,378.5 L120,398.2969 L1204.5,398.2969 A2.5,2.5 0 0 1 1207,400.7969 L1207,841.5 A2.5,2.5 0 0 1 1204.5,844 L32.5,844 A2.5,2.5 0 0 1 30,841.5 L30,378.5 A2.5,2.5 0 0 1 32.5,376 " fill="none" style="stroke:#000000;stroke-width:1.5;"/><line style="stroke:#000000;stroke-width:1.5;" x1="30" x2="120" y1="398.2969" y2="398.2969"/><text fill="#000000" font-family="sans-serif" font-size="14" font-weight="bold" lengthAdjust="spacing" textLength="77" x="34" y="390.9951">GraphUml</text></g><!--cluster Generator--><g id="cluster_Generator"><path d="M56.5,419 L138.5,419 A3.75,3.75 0 0 1 141,421.5 L148,441.2969 L1180.5,441.2969 A2.5,2.5 0 0 1 1183,443.7969 L1183,817.5 A2.5,2.5 0 0 1 1180.5,820 L56.5,820 A2.5,2.5 0 0 1 54,817.5 L54,421.5 A2.5,2.5 0 0 1 56.5,419 " fill="#32CD32" style="stroke:#000000;stroke-width:1.5;"/><line style="stroke:#000000;stroke-width:1.5;" x1="54" x2="148" y1="441.2969" y2="441.2969"/><text fill="#000000" font-family="sans-serif" font-size="14" font-weight="bold" lengthAdjust="spacing" textLength="81" x="58" y="433.9951">Generator</text></g><!--class PlantUmlGenerator--><g id="elem_PlantUmlGenerator"><rect codeLine="4" fill="#F1F1F1" height="251.8281" id="PlantUmlGenerator" rx="2.5" ry="2.5" style="stroke:#181818;stroke-width:0.5;" width="557" x="339.5" y="84"/><ellipse cx="548.75" cy="104.1328" fill="#ADD1B2" rx="11" ry="11" style="stroke:#181818;stroke-width:1.0;"/><path d="M551.7188,109.7734 Q551.1406,110.0703 550.5,110.2109 Q549.8594,110.3672 549.1563,110.3672 Q546.6563,110.3672 545.3281,108.7266 Q544.0156,107.0703 544.0156,103.9453 Q544.0156,100.8203 545.3281,99.1641 Q546.6563,97.5078 549.1563,97.5078 Q549.8594,97.5078 550.5,97.6641 Q551.1563,97.8203 551.7188,98.1172 L551.7188,100.8359 Q551.0938,100.2578 550.5,99.9922 Q549.9063,99.7109 549.2813,99.7109 Q547.9375,99.7109 547.25,100.7891 Q546.5625,101.8516 546.5625,103.9453 Q546.5625,106.0391 547.25,107.1172 Q547.9375,108.1797 549.2813,108.1797 Q549.9063,108.1797 550.5,107.9141 Q551.0938,107.6328 551.7188,107.0547 L551.7188,109.7734 Z " fill="#000000"/><text fill="#000000" font-family="sans-serif" font-size="12" font-style="italic" lengthAdjust="spacing" textLength="44" x="612.25" y="100.1387">&#171;class&#187;</text><text fill="#000000" font-family="sans-serif" font-size="14" lengthAdjust="spacing" textLength="130" x="569.25" y="115.9639">PlantUmlGenerator</text><line style="stroke:#181818;stroke-width:0.5;" x1="340.5" x2="895.5" y1="124.2656" y2="124.2656"/><ellipse cx="350.5" cy="137.9141" fill="none" rx="3" ry="3" style="stroke:#038048;stroke-width:1.0;"/><text fill="#000000" font-family="sans-serif" font-size="14" lengthAdjust="spacing" text-decoration="underline" textLength="206" x="359.5" y="141.2607">EOL : string = "\n" {readOnly}</text><text fill="#000000" font-family="sans-serif" font-size="14" lengthAdjust="spacing" textLength="4" x="359.5" y="157.5576">&#160;</text><line style="stroke:#181818;stroke-width:1.0;" x1="340.5" x2="895.5" y1="164.8594" y2="164.8594"/><ellipse cx="350.5" cy="178.5078" fill="#84BE84" rx="3" ry="3" style="stroke:#038048;stroke-width:1.0;"/><text fill="#000000" font-family="sans-serif" font-size="14" lengthAdjust="spacing" textLength="90" x="359.5" y="181.8545">__construct()</text><ellipse cx="350.5" cy="194.8047" fill="#84BE84" rx="3" ry="3" style="stroke:#038048;stroke-width:1.0;"/><text fill="#000000" font-family="sans-serif" font-size="14" lengthAdjust="spacing" textLength="217" x="359.5" y="198.1514">setOptions(values : array) : void</text><ellipse cx="350.5" cy="211.1016" fill="#84BE84" rx="3" ry="3" style="stroke:#038048;stroke-width:1.0;"/><text fill="#000000" font-family="sans-serif" font-size="14" lengthAdjust="spacing" textLength="437" x="359.5" y="214.4482">getFormatter() : Bartlett.GraphUml.Formatter.FormatterInterface</text><ellipse cx="350.5" cy="227.3984" fill="#84BE84" rx="3" ry="3" style="stroke:#038048;stroke-width:1.0;"/><text fill="#000000" font-family="sans-serif" font-size="14" lengthAdjust="spacing" textLength="125" x="359.5" y="230.7451">getName() : string</text><ellipse cx="350.5" cy="243.6953" fill="#84BE84" rx="3" ry="3" style="stroke:#038048;stroke-width:1.0;"/><text fill="#000000" font-family="sans-serif" font-size="14" lengthAdjust="spacing" textLength="497" x="359.5" y="247.042">createScript(graph : Graphp.Graph.Graph, encode : bool = false) : string</text><ellipse cx="350.5" cy="259.9922" fill="#84BE84" rx="3" ry="3" style="stroke:#038048;stroke-width:1.0;"/><text fill="#000000" font-family="sans-serif" font-size="14" lengthAdjust="spacing" textLength="531" x="359.5" y="263.3389">createImageFile(graph : Graphp.Graph.Graph, cmdFormat : string = '') : string</text><rect fill="#F24D5C" height="6" style="stroke:#C82930;stroke-width:1.0;" width="6" x="347.5" y="273.2891"/><text fill="#000000" font-family="sans-serif" font-size="14" lengthAdjust="spacing" textLength="362" x="359.5" y="279.6357">getLayoutGraph(graph : Graphp.Graph.Graph) : array</text><rect fill="#F24D5C" height="6" style="stroke:#C82930;stroke-width:1.0;" width="6" x="347.5" y="289.5859"/><text fill="#000000" font-family="sans-serif" font-size="14" lengthAdjust="spacing" textLength="368" x="359.5" y="295.9326">getLayoutVertex(vertex : Graphp.Graph.Vertex) : array</text><rect fill="#F24D5C" height="6" style="stroke:#C82930;stroke-width:1.0;" width="6" x="347.5" y="305.8828"/><text fill="#000000" font-family="sans-serif" font-size="14" lengthAdjust="spacing" textLength="405" x="359.5" y="312.2295">getLayoutEdge(edge : Graphp.Graph.EdgeDirected) : array</text><rect fill="#F24D5C" height="6" style="stroke:#C82930;stroke-width:1.0;" width="6" x="347.5" y="322.1797"/><text fill="#000000" font-family="sans-serif" font-size="14" lengthAdjust="spacing" textLength="488" x="359.5" y="328.5264">getAttributesPrefixed(entity : Graphp.Graph.Entity, prefix : string) : array</text></g><!--class AbstractGenerator--><g id="elem_AbstractGenerator"><rect codeLine="21" fill="#F1F1F1" height="349.6094" id="AbstractGenerator" rx="2.5" ry="2.5" style="stroke:#181818;stroke-width:0.5;" width="531" x="635.5" y="454"/><ellipse cx="833.25" cy="474.1328" fill="#ADD1B2" rx="11" ry="11" style="stroke:#181818;stroke-width:1.0;"/><path d="M836.2188,479.7734 Q835.6406,480.0703 835,480.2109 Q834.3594,480.3672 833.6563,480.3672 Q831.1563,480.3672 829.8281,478.7266 Q828.5156,477.0703 828.5156,473.9453 Q828.5156,470.8203 829.8281,469.1641 Q831.1563,467.5078 833.6563,467.5078 Q834.3594,467.5078 835,467.6641 Q835.6563,467.8203 836.2188,468.1172 L836.2188,470.8359 Q835.5938,470.2578 835,469.9922 Q834.4063,469.7109 833.7813,469.7109 Q832.4375,469.7109 831.75,470.7891 Q831.0625,471.8516 831.0625,473.9453 Q831.0625,476.0391 831.75,477.1172 Q832.4375,478.1797 833.7813,478.1797 Q834.4063,478.1797 835,477.9141 Q835.5938,477.6328 836.2188,477.0547 L836.2188,479.7734 Z " fill="#000000"/><text fill="#000000" font-family="sans-serif" font-size="12" font-style="italic" lengthAdjust="spacing" textLength="44" x="895.25" y="470.1387">&#171;class&#187;</text><text fill="#000000" font-family="sans-serif" font-size="14" lengthAdjust="spacing" textLength="127" x="853.75" y="485.9639">AbstractGenerator</text><line style="stroke:#181818;stroke-width:0.5;" x1="636.5" x2="1165.5" y1="494.2656" y2="494.2656"/><ellipse cx="646.5" cy="507.9141" fill="none" rx="3" ry="3" style="stroke:#038048;stroke-width:1.0;"/><text fill="#000000" font-family="sans-serif" font-size="14" lengthAdjust="spacing" text-decoration="underline" textLength="323" x="655.5" y="511.2607">CMD_EXECUTABLE : string = "\%E" {readOnly}</text><ellipse cx="646.5" cy="524.2109" fill="none" rx="3" ry="3" style="stroke:#038048;stroke-width:1.0;"/><text fill="#000000" font-family="sans-serif" font-size="14" lengthAdjust="spacing" text-decoration="underline" textLength="290" x="655.5" y="527.5576">CMD_FORMAT : string = "\%F" {readOnly}</text><ellipse cx="646.5" cy="540.5078" fill="none" rx="3" ry="3" style="stroke:#038048;stroke-width:1.0;"/><text fill="#000000" font-family="sans-serif" font-size="14" lengthAdjust="spacing" text-decoration="underline" textLength="324" x="655.5" y="543.8545">CMD_OUTPUT_FILE : string = "\%o" {readOnly}</text><ellipse cx="646.5" cy="556.8047" fill="none" rx="3" ry="3" style="stroke:#038048;stroke-width:1.0;"/><text fill="#000000" font-family="sans-serif" font-size="14" lengthAdjust="spacing" text-decoration="underline" textLength="301" x="655.5" y="560.1514">CMD_TEMP_FILE : string = "\%t" {readOnly}</text><text fill="#000000" font-family="sans-serif" font-size="14" lengthAdjust="spacing" textLength="4" x="655.5" y="576.4482">&#160;</text><polygon fill="none" points="646.5,584.3984,650.5,588.3984,646.5,592.3984,642.5,588.3984" style="stroke:#B38D22;stroke-width:1.0;"/><text fill="#000000" font-family="sans-serif" font-size="14" lengthAdjust="spacing" textLength="106" x="655.5" y="592.7451">options : mixed</text><rect fill="none" height="6" style="stroke:#C82930;stroke-width:1.0;" width="6" x="643.5" y="602.6953"/><text fill="#000000" font-family="sans-serif" font-size="14" lengthAdjust="spacing" textLength="128" x="655.5" y="609.042">executable : string</text><rect fill="none" height="6" style="stroke:#C82930;stroke-width:1.0;" width="6" x="643.5" y="618.9922"/><text fill="#000000" font-family="sans-serif" font-size="14" lengthAdjust="spacing" textLength="96" x="655.5" y="625.3389">format : string</text><line style="stroke:#181818;stroke-width:1.0;" x1="636.5" x2="1165.5" y1="632.6406" y2="632.6406"/><ellipse cx="646.5" cy="646.2891" fill="#84BE84" rx="3" ry="3" style="stroke:#038048;stroke-width:1.0;"/><text fill="#000000" font-family="sans-serif" font-size="14" lengthAdjust="spacing" textLength="217" x="655.5" y="649.6357">setOptions(values : array) : void</text><ellipse cx="646.5" cy="662.5859" fill="#84BE84" rx="3" ry="3" style="stroke:#038048;stroke-width:1.0;"/><text fill="#000000" font-family="sans-serif" font-size="14" font-style="italic" lengthAdjust="spacing" textLength="438" x="655.5" y="665.9326">getFormatter() : Bartlett.GraphUml.Formatter.FormatterInterface</text><ellipse cx="646.5" cy="678.8828" fill="#84BE84" rx="3" ry="3" style="stroke:#038048;stroke-width:1.0;"/><text fill="#000000" font-family="sans-serif" font-size="14" font-style="italic" lengthAdjust="spacing" textLength="125" x="655.5" y="682.2295">getName() : string</text><ellipse cx="646.5" cy="695.1797" fill="#84BE84" rx="3" ry="3" style="stroke:#038048;stroke-width:1.0;"/><text fill="#000000" font-family="sans-serif" font-size="14" lengthAdjust="spacing" textLength="122" x="655.5" y="698.5264">getPrefix() : string</text><ellipse cx="646.5" cy="711.4766" fill="#84BE84" rx="3" ry="3" style="stroke:#038048;stroke-width:1.0;"/><text fill="#000000" font-family="sans-serif" font-size="14" lengthAdjust="spacing" textLength="341" x="655.5" y="714.8232">getLabelClass(reflection : ReflectionClass) : string</text><ellipse cx="646.5" cy="727.7734" fill="#84BE84" rx="3" ry="3" style="stroke:#038048;stroke-width:1.0;"/><text fill="#000000" font-family="sans-serif" font-size="14" lengthAdjust="spacing" textLength="403" x="655.5" y="731.1201">getLabelExtension(reflection : ReflectionExtension) : string</text><ellipse cx="646.5" cy="744.0703" fill="#84BE84" rx="3" ry="3" style="stroke:#038048;stroke-width:1.0;"/><text fill="#000000" font-family="sans-serif" font-size="14" lengthAdjust="spacing" textLength="277" x="655.5" y="747.417">setExecutable(executable : string) : void</text><ellipse cx="646.5" cy="760.3672" fill="#84BE84" rx="3" ry="3" style="stroke:#038048;stroke-width:1.0;"/><text fill="#000000" font-family="sans-serif" font-size="14" lengthAdjust="spacing" textLength="217" x="655.5" y="763.7139">setFormat(format : string) : void</text><ellipse cx="646.5" cy="776.6641" fill="#84BE84" rx="3" ry="3" style="stroke:#038048;stroke-width:1.0;"/><text fill="#000000" font-family="sans-serif" font-size="14" font-style="italic" lengthAdjust="spacing" textLength="340" x="655.5" y="780.0107">createScript(graph : Graphp.Graph.Graph) : string</text><ellipse cx="646.5" cy="792.9609" fill="#84BE84" rx="3" ry="3" style="stroke:#038048;stroke-width:1.0;"/><text fill="#000000" font-family="sans-serif" font-size="14" lengthAdjust="spacing" textLength="505" x="655.5" y="796.3076">createImageFile(graph : Graphp.Graph.Graph, cmdFormat : string) : string</text></g><!--class GeneratorInterface--><g id="elem_GeneratorInterface"><rect codeLine="42" fill="#F1F1F1" height="219.2344" id="GeneratorInterface" rx="2.5" ry="2.5" style="stroke:#181818;stroke-width:0.5;" width="530" x="70" y="519.5"/><ellipse cx="265.25" cy="539.6328" fill="#B4A7E5" rx="11" ry="11" style="stroke:#181818;stroke-width:1.0;"/><path d="M261.1719,535.3984 L261.1719,533.2422 L268.5625,533.2422 L268.5625,535.3984 L266.0938,535.3984 L266.0938,543.4766 L268.5625,543.4766 L268.5625,545.6328 L261.1719,545.6328 L261.1719,543.4766 L263.6406,543.4766 L263.6406,535.3984 L261.1719,535.3984 Z " fill="#000000"/><text fill="#000000" font-family="sans-serif" font-size="12" font-style="italic" lengthAdjust="spacing" textLength="70" x="316.25" y="535.6387">&#171;interface&#187;</text><text fill="#000000" font-family="sans-serif" font-size="14" font-style="italic" lengthAdjust="spacing" textLength="131" x="285.75" y="551.4639">GeneratorInterface</text><line style="stroke:#181818;stroke-width:0.5;" x1="71" x2="599" y1="559.7656" y2="559.7656"/><line style="stroke:#181818;stroke-width:1.0;" x1="71" x2="599" y1="567.7656" y2="567.7656"/><ellipse cx="81" cy="581.4141" fill="#84BE84" rx="3" ry="3" style="stroke:#038048;stroke-width:1.0;"/><text fill="#000000" font-family="sans-serif" font-size="14" font-style="italic" lengthAdjust="spacing" textLength="217" x="90" y="584.7607">setOptions(values : array) : void</text><ellipse cx="81" cy="597.7109" fill="#84BE84" rx="3" ry="3" style="stroke:#038048;stroke-width:1.0;"/><text fill="#000000" font-family="sans-serif" font-size="14" font-style="italic" lengthAdjust="spacing" textLength="438" x="90" y="601.0576">getFormatter() : Bartlett.GraphUml.Formatter.FormatterInterface</text><ellipse cx="81" cy="614.0078" fill="#84BE84" rx="3" ry="3" style="stroke:#038048;stroke-width:1.0;"/><text fill="#000000" font-family="sans-serif" font-size="14" font-style="italic" lengthAdjust="spacing" textLength="125" x="90" y="617.3545">getName() : string</text><ellipse cx="81" cy="630.3047" fill="#84BE84" rx="3" ry="3" style="stroke:#038048;stroke-width:1.0;"/><text fill="#000000" font-family="sans-serif" font-size="14" font-style="italic" lengthAdjust="spacing" textLength="121" x="90" y="633.6514">getPrefix() : string</text><ellipse cx="81" cy="646.6016" fill="#84BE84" rx="3" ry="3" style="stroke:#038048;stroke-width:1.0;"/><text fill="#000000" font-family="sans-serif" font-size="14" font-style="italic" lengthAdjust="spacing" textLength="337" x="90" y="649.9482">getLabelClass(reflection : ReflectionClass) : string</text><ellipse cx="81" cy="662.8984" fill="#84BE84" rx="3" ry="3" style="stroke:#038048;stroke-width:1.0;"/><text fill="#000000" font-family="sans-serif" font-size="14" font-style="italic" lengthAdjust="spacing" textLength="403" x="90" y="666.2451">getLabelExtension(reflection : ReflectionExtension) : string</text><ellipse cx="81" cy="679.1953" fill="#84BE84" rx="3" ry="3" style="stroke:#038048;stroke-width:1.0;"/><text fill="#000000" font-family="sans-serif" font-size="14" font-style="italic" lengthAdjust="spacing" textLength="278" x="90" y="682.542">setExecutable(executable : string) : void</text><ellipse cx="81" cy="695.4922" fill="#84BE84" rx="3" ry="3" style="stroke:#038048;stroke-width:1.0;"/><text fill="#000000" font-family="sans-serif" font-size="14" font-style="italic" lengthAdjust="spacing" textLength="216" x="90" y="698.8389">setFormat(format : string) : void</text><ellipse cx="81" cy="711.7891" fill="#84BE84" rx="3" ry="3" style="stroke:#038048;stroke-width:1.0;"/><text fill="#000000" font-family="sans-serif" font-size="14" font-style="italic" lengthAdjust="spacing" textLength="340" x="90" y="715.1357">createScript(graph : Graphp.Graph.Graph) : string</text><ellipse cx="81" cy="728.0859" fill="#84BE84" rx="3" ry="3" style="stroke:#038048;stroke-width:1.0;"/><text fill="#000000" font-family="sans-serif" font-size="14" font-style="italic" lengthAdjust="spacing" textLength="504" x="90" y="731.4326">createImageFile(graph : Graphp.Graph.Graph, cmdFormat : string) : string</text></g><!--link PlantUmlGenerator to AbstractGenerator--><g id="link_PlantUmlGenerator_AbstractGenerator"><path codeLine="56" d="M702.91,336.11 C727.98,373.06 745.7803,399.2973 772.5603,438.7473 " fill="none" id="PlantUmlGenerator-to-AbstractGenerator" style="stroke:#181818;stroke-width:1.0;"/><polygon fill="none" points="782.67,453.64,777.5245,435.3774,767.596,442.1172,782.67,453.64" style="stroke:#181818;stroke-width:1.0;"/></g><!--link PlantUmlGenerator to GeneratorInterface--><g id="link_PlantUmlGenerator_GeneratorInterface"><path codeLine="57" d="M533.09,336.11 C493.53,394.41 457.008,448.2261 418.928,504.3361 " fill="none" id="PlantUmlGenerator-to-GeneratorInterface" style="stroke:#181818;stroke-width:1.0;stroke-dasharray:7.0,7.0;"/><polygon fill="none" points="408.82,519.23,423.8926,507.7054,413.9634,500.9668,408.82,519.23" style="stroke:#181818;stroke-width:1.0;"/></g><!--SRC=[pLPXRw904FtkhzYqkHHpbHzmwPceHMEYfsdrSX-Qc7KPAUcoa6LeD1x__GQeA23gDUPoNrROUUyvE_C62DzS5N3DFRRauitHVgJidYzzpL1p5L8853OKzu2k1R0kroW1qHne7hnE9LSuzoIx7RdEApuZWEpA2DYsmPYGF0pP3Z801PeZ2JyyV8JQxHJ7sDTjY1nT4JDhCcBVM8ZQLGxxpcvUNjGDsshWzaJ9JTn8uQrMnbeiXAy86maqcjbM23W9qALjuvrJ8Y6fSQtvfaaNxxvhPp07iEzhZoE2Df9GyLYKhfd7zrT3HSkAgf2B_A2wfFmiusnVKBe8pqAx0HfEeaU0L3V8vBFrde4IlWqKNFg-fDEkk0pXkDhGumxqNGad1OLdPyaUrl3khYJPeiH7VED7cD9EA3PtrIlnVe96M1llwK-PcGNhg9RjW06qb6b9uD7L813iAhc3bFyoGWYd6bRk6co3VEdYfYAJxjwp88Nb1pzKZ1jnhQ6Jpk-TIgxsOA01r86XEqkIv08lCtHl_BYmVbcz-QpJ7Lb5Rt-n2jwk4lkJft5dLYBrpv0cyzbqFblqXvM_yyymPzPuUeo7rH6yzRCf8wINT2Dh5An1HCYN4agEMnLTMPZY2qTsop_g7bzbU0joHyUOzZEl7OkC-19aBscwGHX9hgK34Emflqc3TKnhZQ12GjMnSq1PWQfbvLKsZXIyMBLmLokZr8AwubxuyBhkKwgWbZZJtJMBvLEMzoyPjtqy7xcTdVP7-L-DLK3KMAo0-QJPgXgVjrsXgdzZm0BndrYnB70bKyQDuvy-PlK3fzNwtJxrNZ4hhv3BjKtpZ7PrOFu0]--></g></svg>