<svg xmlns="http://www.w3.org/2000/svg" xmlns:xlink="http://www.w3.org/1999/xlink" contentStyleType="text/css" height="858px" preserveAspectRatio="none" style="width:1272px;height:858px;" version="1.1" viewBox="0 0 1272 858" width="1272px" zoomAndPan="magnify"><defs/><g><!--cluster Bartlett--><g id="cluster_Bartlett"><path d="M8.5,6 L70.8936,6 A3.75,3.75 0 0 1 73.3936,8.5 L80.3936,28.2969 L1262.5,28.2969 A2.5,2.5 0 0 1 1265,30.7969 L1265,848.5 A2.5,2.5 0 0 1 1262.5,851 L8.5,851 A2.5,2.5 0 0 1 6,848.5 L6,8.5 A2.5,2.5 0 0 1 8.5,6 " fill="none" style="stroke:#000000;stroke-width:1.5;"/><line style="stroke:#000000;stroke-width:1.5;" x1="6" x2="80.3936" y1="28.2969" y2="28.2969"/><text fill="#000000" font-family="sans-serif" font-size="14" font-weight="bold" lengthAdjust="spacing" textLength="61.3936" x="10" y="20.9951">Bartlett</text></g><!--cluster GraphPlantUml--><g id="cluster_GraphPlantUml"><path d="M318.5,49 L439.252,49 A3.75,3.75 0 0 1 441.752,51.5 L448.752,71.2969 L951.5,71.2969 A2.5,2.5 0 0 1 954,73.7969 L954,349.5 A2.5,2.5 0 0 1 951.5,352 L318.5,352 A2.5,2.5 0 0 1 316,349.5 L316,51.5 A2.5,2.5 0 0 1 318.5,49 " fill="#B0C4DE" style="stroke:#000000;stroke-width:1.5;"/><line style="stroke:#000000;stroke-width:1.5;" x1="316" x2="448.752" y1="71.2969" y2="71.2969"/><text fill="#000000" font-family="sans-serif" font-size="14" font-weight="bold" lengthAdjust="spacing" textLength="119.752" x="320" y="63.9951">GraphPlantUml</text></g><!--cluster GraphUml--><g id="cluster_GraphUml"><path d="M32.5,376 L112.0859,376 A3.75,3.75 0 0 1 114.5859,378.5 L121.5859,398.2969 L1238.5,398.2969 A2.5,2.5 0 0 1 1241,400.7969 L1241,824.5 A2.5,2.5 0 0 1 1238.5,827 L32.5,827 A2.5,2.5 0 0 1 30,824.5 L30,378.5 A2.5,2.5 0 0 1 32.5,376 " fill="none" style="stroke:#000000;stroke-width:1.5;"/><line style="stroke:#000000;stroke-width:1.5;" x1="30" x2="121.5859" y1="398.2969" y2="398.2969"/><text fill="#000000" font-family="sans-serif" font-size="14" font-weight="bold" lengthAdjust="spacing" textLength="78.5859" x="34" y="390.9951">GraphUml</text></g><!--cluster Generator--><g id="cluster_Generator"><path d="M56.5,419 L137.5146,419 A3.75,3.75 0 0 1 140.0146,421.5 L147.0146,441.2969 L1214.5,441.2969 A2.5,2.5 0 0 1 1217,443.7969 L1217,800.5 A2.5,2.5 0 0 1 1214.5,803 L56.5,803 A2.5,2.5 0 0 1 54,800.5 L54,421.5 A2.5,2.5 0 0 1 56.5,419 " fill="#32CD32" style="stroke:#000000;stroke-width:1.5;"/><line style="stroke:#000000;stroke-width:1.5;" x1="54" x2="147.0146" y1="441.2969" y2="441.2969"/><text fill="#000000" font-family="sans-serif" font-size="14" font-weight="bold" lengthAdjust="spacing" textLength="80.0146" x="58" y="433.9951">Generator</text></g><!--class PlantUmlGenerator--><g id="elem_PlantUmlGenerator"><rect codeLine="4" fill="#F1F1F1" height="251.8281" id="PlantUmlGenerator" rx="2.5" ry="2.5" style="stroke:#181818;stroke-width:0.5;" width="606.1387" x="332" y="84"/><ellipse cx="563.7485" cy="104.1328" fill="#ADD1B2" rx="11" ry="11" style="stroke:#181818;stroke-width:1.0;"/><path d="M566.7173,109.7734 Q566.1392,110.0703 565.4985,110.2109 Q564.8579,110.3672 564.1548,110.3672 Q561.6548,110.3672 560.3267,108.7266 Q559.0142,107.0703 559.0142,103.9453 Q559.0142,100.8203 560.3267,99.1641 Q561.6548,97.5078 564.1548,97.5078 Q564.8579,97.5078 565.4985,97.6641 Q566.1548,97.8203 566.7173,98.1172 L566.7173,100.8359 Q566.0923,100.2578 565.4985,99.9922 Q564.9048,99.7109 564.2798,99.7109 Q562.936,99.7109 562.2485,100.7891 Q561.561,101.8516 561.561,103.9453 Q561.561,106.0391 562.2485,107.1172 Q562.936,108.1797 564.2798,108.1797 Q564.9048,108.1797 565.4985,107.9141 Q566.0923,107.6328 566.7173,107.0547 L566.7173,109.7734 Z " fill="#000000"/><text fill="#000000" font-family="sans-serif" font-size="12" font-style="italic" lengthAdjust="spacing" textLength="44.6016" x="629.0186" y="100.1387">&#171;class&#187;</text><text fill="#000000" font-family="sans-serif" font-size="14" lengthAdjust="spacing" textLength="134.1416" x="584.2485" y="115.9639">PlantUmlGenerator</text><line style="stroke:#181818;stroke-width:0.5;" x1="333" x2="937.1387" y1="124.2656" y2="124.2656"/><ellipse cx="343" cy="137.9141" fill="none" rx="3" ry="3" style="stroke:#038048;stroke-width:1.0;"/><text fill="#000000" font-family="sans-serif" font-size="14" lengthAdjust="spacing" text-decoration="underline" textLength="214.7373" x="352" y="141.2607">EOL : string = "\n" {readOnly}</text><text fill="#000000" font-family="sans-serif" font-size="14" lengthAdjust="spacing" textLength="4.4502" x="352" y="157.5576">&#160;</text><line style="stroke:#181818;stroke-width:1.0;" x1="333" x2="937.1387" y1="164.8594" y2="164.8594"/><ellipse cx="343" cy="178.5078" fill="#84BE84" rx="3" ry="3" style="stroke:#038048;stroke-width:1.0;"/><text fill="#000000" font-family="sans-serif" font-size="14" lengthAdjust="spacing" textLength="580.1387" x="352" y="181.8545">__construct(executable : string = 'java\ \-jar\ plantuml\.jar', format : string = 'png')</text><ellipse cx="343" cy="194.8047" fill="#84BE84" rx="3" ry="3" style="stroke:#038048;stroke-width:1.0;"/><text fill="#000000" font-family="sans-serif" font-size="14" lengthAdjust="spacing" textLength="225.6885" x="352" y="198.1514">setOptions(values : array) : void</text><ellipse cx="343" cy="211.1016" fill="#84BE84" rx="3" ry="3" style="stroke:#038048;stroke-width:1.0;"/><text fill="#000000" font-family="sans-serif" font-size="14" lengthAdjust="spacing" textLength="457.0029" x="352" y="214.4482">getFormatter() : Bartlett.GraphUml.Formatter.FormatterInterface</text><ellipse cx="343" cy="227.3984" fill="#84BE84" rx="3" ry="3" style="stroke:#038048;stroke-width:1.0;"/><text fill="#000000" font-family="sans-serif" font-size="14" lengthAdjust="spacing" textLength="129.0215" x="352" y="230.7451">getName() : string</text><ellipse cx="343" cy="243.6953" fill="#84BE84" rx="3" ry="3" style="stroke:#038048;stroke-width:1.0;"/><text fill="#000000" font-family="sans-serif" font-size="14" lengthAdjust="spacing" textLength="508.9082" x="352" y="247.042">createScript(graph : Graphp.Graph.Graph, encode : bool = false) : string</text><ellipse cx="343" cy="259.9922" fill="#84BE84" rx="3" ry="3" style="stroke:#038048;stroke-width:1.0;"/><text fill="#000000" font-family="sans-serif" font-size="14" lengthAdjust="spacing" textLength="550.3203" x="352" y="263.3389">createImageFile(graph : Graphp.Graph.Graph, cmdFormat : string = '') : string</text><rect fill="#F24D5C" height="6" style="stroke:#C82930;stroke-width:1.0;" width="6" x="340" y="273.2891"/><text fill="#000000" font-family="sans-serif" font-size="14" lengthAdjust="spacing" textLength="376.2363" x="352" y="279.6357">getLayoutGraph(graph : Graphp.Graph.Graph) : array</text><rect fill="#F24D5C" height="6" style="stroke:#C82930;stroke-width:1.0;" width="6" x="340" y="289.5859"/><text fill="#000000" font-family="sans-serif" font-size="14" lengthAdjust="spacing" textLength="387.0781" x="352" y="295.9326">getLayoutVertex(vertex : Graphp.Graph.Vertex) : array</text><rect fill="#F24D5C" height="6" style="stroke:#C82930;stroke-width:1.0;" width="6" x="340" y="305.8828"/><text fill="#000000" font-family="sans-serif" font-size="14" lengthAdjust="spacing" textLength="414.5586" x="352" y="312.2295">getLayoutEdge(edge : Graphp.Graph.EdgeDirected) : array</text><rect fill="#F24D5C" height="6" style="stroke:#C82930;stroke-width:1.0;" width="6" x="340" y="322.1797"/><text fill="#000000" font-family="sans-serif" font-size="14" lengthAdjust="spacing" textLength="513.126" x="352" y="328.5264">getAttributesPrefixed(entity : Graphp.Graph.Entity, prefix : string) : array</text></g><!--class AbstractGenerator--><g id="elem_AbstractGenerator"><rect codeLine="21" fill="#F1F1F1" height="333.3125" id="AbstractGenerator" rx="2.5" ry="2.5" style="stroke:#181818;stroke-width:0.5;" width="547.9922" x="653" y="454"/><ellipse cx="857.8149" cy="474.1328" fill="#ADD1B2" rx="11" ry="11" style="stroke:#181818;stroke-width:1.0;"/><path d="M860.7837,479.7734 Q860.2056,480.0703 859.5649,480.2109 Q858.9243,480.3672 858.2212,480.3672 Q855.7212,480.3672 854.3931,478.7266 Q853.0806,477.0703 853.0806,473.9453 Q853.0806,470.8203 854.3931,469.1641 Q855.7212,467.5078 858.2212,467.5078 Q858.9243,467.5078 859.5649,467.6641 Q860.2212,467.8203 860.7837,468.1172 L860.7837,470.8359 Q860.1587,470.2578 859.5649,469.9922 Q858.9712,469.7109 858.3462,469.7109 Q857.0024,469.7109 856.3149,470.7891 Q855.6274,471.8516 855.6274,473.9453 Q855.6274,476.0391 856.3149,477.1172 Q857.0024,478.1797 858.3462,478.1797 Q858.9712,478.1797 859.5649,477.9141 Q860.1587,477.6328 860.7837,477.0547 L860.7837,479.7734 Z " fill="#000000"/><text fill="#000000" font-family="sans-serif" font-size="12" font-style="italic" lengthAdjust="spacing" textLength="44.6016" x="920.9453" y="470.1387">&#171;class&#187;</text><text fill="#000000" font-family="sans-serif" font-size="14" lengthAdjust="spacing" textLength="129.8623" x="878.3149" y="485.9639">AbstractGenerator</text><line style="stroke:#181818;stroke-width:0.5;" x1="654" x2="1199.9922" y1="494.2656" y2="494.2656"/><ellipse cx="664" cy="507.9141" fill="none" rx="3" ry="3" style="stroke:#038048;stroke-width:1.0;"/><text fill="#000000" font-family="sans-serif" font-size="14" lengthAdjust="spacing" text-decoration="underline" textLength="331.666" x="673" y="511.2607">CMD_EXECUTABLE : string = "\%E" {readOnly}</text><ellipse cx="664" cy="524.2109" fill="none" rx="3" ry="3" style="stroke:#038048;stroke-width:1.0;"/><text fill="#000000" font-family="sans-serif" font-size="14" lengthAdjust="spacing" text-decoration="underline" textLength="298.1973" x="673" y="527.5576">CMD_FORMAT : string = "\%F" {readOnly}</text><ellipse cx="664" cy="540.5078" fill="none" rx="3" ry="3" style="stroke:#038048;stroke-width:1.0;"/><text fill="#000000" font-family="sans-serif" font-size="14" lengthAdjust="spacing" text-decoration="underline" textLength="332.5889" x="673" y="543.8545">CMD_OUTPUT_FILE : string = "\%o" {readOnly}</text><ellipse cx="664" cy="556.8047" fill="none" rx="3" ry="3" style="stroke:#038048;stroke-width:1.0;"/><text fill="#000000" font-family="sans-serif" font-size="14" lengthAdjust="spacing" text-decoration="underline" textLength="310.3721" x="673" y="560.1514">CMD_TEMP_FILE : string = "\%t" {readOnly}</text><text fill="#000000" font-family="sans-serif" font-size="14" lengthAdjust="spacing" textLength="4.4502" x="673" y="576.4482">&#160;</text><polygon fill="none" points="664,584.3984,668,588.3984,664,592.3984,660,588.3984" style="stroke:#B38D22;stroke-width:1.0;"/><text fill="#000000" font-family="sans-serif" font-size="14" lengthAdjust="spacing" textLength="189.1367" x="673" y="592.7451">options : FormatterOptions</text><rect fill="none" height="6" style="stroke:#C82930;stroke-width:1.0;" width="6" x="661" y="602.6953"/><text fill="#000000" font-family="sans-serif" font-size="14" lengthAdjust="spacing" textLength="77.54" x="673" y="609.042">executable</text><rect fill="none" height="6" style="stroke:#C82930;stroke-width:1.0;" width="6" x="661" y="618.9922"/><text fill="#000000" font-family="sans-serif" font-size="14" lengthAdjust="spacing" textLength="46.9561" x="673" y="625.3389">format</text><line style="stroke:#181818;stroke-width:1.0;" x1="654" x2="1199.9922" y1="632.6406" y2="632.6406"/><ellipse cx="664" cy="646.2891" fill="#84BE84" rx="3" ry="3" style="stroke:#038048;stroke-width:1.0;"/><text fill="#000000" font-family="sans-serif" font-size="14" lengthAdjust="spacing" textLength="331.666" x="673" y="649.6357">__construct(executable : string, format : string)</text><ellipse cx="664" cy="662.5859" fill="#84BE84" rx="3" ry="3" style="stroke:#038048;stroke-width:1.0;"/><text fill="#000000" font-family="sans-serif" font-size="14" lengthAdjust="spacing" textLength="225.6885" x="673" y="665.9326">setOptions(values : array) : void</text><ellipse cx="664" cy="678.8828" fill="#84BE84" rx="3" ry="3" style="stroke:#038048;stroke-width:1.0;"/><text fill="#000000" font-family="sans-serif" font-size="14" font-style="italic" lengthAdjust="spacing" textLength="457.0029" x="673" y="682.2295">getFormatter() : Bartlett.GraphUml.Formatter.FormatterInterface</text><ellipse cx="664" cy="695.1797" fill="#84BE84" rx="3" ry="3" style="stroke:#038048;stroke-width:1.0;"/><text fill="#000000" font-family="sans-serif" font-size="14" font-style="italic" lengthAdjust="spacing" textLength="129.0215" x="673" y="698.5264">getName() : string</text><ellipse cx="664" cy="711.4766" fill="#84BE84" rx="3" ry="3" style="stroke:#038048;stroke-width:1.0;"/><text fill="#000000" font-family="sans-serif" font-size="14" lengthAdjust="spacing" textLength="127.6338" x="673" y="714.8232">getPrefix() : string</text><ellipse cx="664" cy="727.7734" fill="#84BE84" rx="3" ry="3" style="stroke:#038048;stroke-width:1.0;"/><text fill="#000000" font-family="sans-serif" font-size="14" lengthAdjust="spacing" textLength="349.3711" x="673" y="731.1201">getLabelClass(reflection : ReflectionClass) : string</text><ellipse cx="664" cy="744.0703" fill="#84BE84" rx="3" ry="3" style="stroke:#038048;stroke-width:1.0;"/><text fill="#000000" font-family="sans-serif" font-size="14" lengthAdjust="spacing" textLength="413.1641" x="673" y="747.417">getLabelExtension(reflection : ReflectionExtension) : string</text><ellipse cx="664" cy="760.3672" fill="#84BE84" rx="3" ry="3" style="stroke:#038048;stroke-width:1.0;"/><text fill="#000000" font-family="sans-serif" font-size="14" font-style="italic" lengthAdjust="spacing" textLength="351.2988" x="673" y="763.7139">createScript(graph : Graphp.Graph.Graph) : string</text><ellipse cx="664" cy="776.6641" fill="#84BE84" rx="3" ry="3" style="stroke:#038048;stroke-width:1.0;"/><text fill="#000000" font-family="sans-serif" font-size="14" lengthAdjust="spacing" textLength="521.9922" x="673" y="780.0107">createImageFile(graph : Graphp.Graph.Graph, cmdFormat : string) : string</text></g><!--class GeneratorInterface--><g id="elem_GeneratorInterface"><rect codeLine="41" fill="#F1F1F1" height="186.6406" id="GeneratorInterface" rx="2.5" ry="2.5" style="stroke:#181818;stroke-width:0.5;" width="547.9922" x="70" y="527"/><ellipse cx="272.8599" cy="547.1328" fill="#B4A7E5" rx="11" ry="11" style="stroke:#181818;stroke-width:1.0;"/><path d="M268.7817,542.8984 L268.7817,540.7422 L276.1724,540.7422 L276.1724,542.8984 L273.7036,542.8984 L273.7036,550.9766 L276.1724,550.9766 L276.1724,553.1328 L268.7817,553.1328 L268.7817,550.9766 L271.2505,550.9766 L271.2505,542.8984 L268.7817,542.8984 Z " fill="#000000"/><text fill="#000000" font-family="sans-serif" font-size="12" font-style="italic" lengthAdjust="spacing" textLength="68.332" x="326.0801" y="543.1387">&#171;interface&#187;</text><text fill="#000000" font-family="sans-serif" font-size="14" font-style="italic" lengthAdjust="spacing" textLength="133.7725" x="293.3599" y="558.9639">GeneratorInterface</text><line style="stroke:#181818;stroke-width:0.5;" x1="71" x2="616.9922" y1="567.2656" y2="567.2656"/><line style="stroke:#181818;stroke-width:1.0;" x1="71" x2="616.9922" y1="575.2656" y2="575.2656"/><ellipse cx="81" cy="588.9141" fill="#84BE84" rx="3" ry="3" style="stroke:#038048;stroke-width:1.0;"/><text fill="#000000" font-family="sans-serif" font-size="14" font-style="italic" lengthAdjust="spacing" textLength="225.6885" x="90" y="592.2607">setOptions(values : array) : void</text><ellipse cx="81" cy="605.2109" fill="#84BE84" rx="3" ry="3" style="stroke:#038048;stroke-width:1.0;"/><text fill="#000000" font-family="sans-serif" font-size="14" font-style="italic" lengthAdjust="spacing" textLength="457.0029" x="90" y="608.5576">getFormatter() : Bartlett.GraphUml.Formatter.FormatterInterface</text><ellipse cx="81" cy="621.5078" fill="#84BE84" rx="3" ry="3" style="stroke:#038048;stroke-width:1.0;"/><text fill="#000000" font-family="sans-serif" font-size="14" font-style="italic" lengthAdjust="spacing" textLength="129.0215" x="90" y="624.8545">getName() : string</text><ellipse cx="81" cy="637.8047" fill="#84BE84" rx="3" ry="3" style="stroke:#038048;stroke-width:1.0;"/><text fill="#000000" font-family="sans-serif" font-size="14" font-style="italic" lengthAdjust="spacing" textLength="127.6338" x="90" y="641.1514">getPrefix() : string</text><ellipse cx="81" cy="654.1016" fill="#84BE84" rx="3" ry="3" style="stroke:#038048;stroke-width:1.0;"/><text fill="#000000" font-family="sans-serif" font-size="14" font-style="italic" lengthAdjust="spacing" textLength="349.3711" x="90" y="657.4482">getLabelClass(reflection : ReflectionClass) : string</text><ellipse cx="81" cy="670.3984" fill="#84BE84" rx="3" ry="3" style="stroke:#038048;stroke-width:1.0;"/><text fill="#000000" font-family="sans-serif" font-size="14" font-style="italic" lengthAdjust="spacing" textLength="413.1641" x="90" y="673.7451">getLabelExtension(reflection : ReflectionExtension) : string</text><ellipse cx="81" cy="686.6953" fill="#84BE84" rx="3" ry="3" style="stroke:#038048;stroke-width:1.0;"/><text fill="#000000" font-family="sans-serif" font-size="14" font-style="italic" lengthAdjust="spacing" textLength="351.2988" x="90" y="690.042">createScript(graph : Graphp.Graph.Graph) : string</text><ellipse cx="81" cy="702.9922" fill="#84BE84" rx="3" ry="3" style="stroke:#038048;stroke-width:1.0;"/><text fill="#000000" font-family="sans-serif" font-size="14" font-style="italic" lengthAdjust="spacing" textLength="521.9922" x="90" y="706.3389">createImageFile(graph : Graphp.Graph.Graph, cmdFormat : string) : string</text></g><!--link PlantUmlGenerator to AbstractGenerator--><g id="link_PlantUmlGenerator_AbstractGenerator"><path codeLine="53" d="M724.4,336.06 C750.97,373.24 770.041,399.9276 798.161,439.2576 " fill="none" id="PlantUmlGenerator-to-AbstractGenerator" style="stroke:#181818;stroke-width:1.0;"/><polygon fill="none" points="808.63,453.9,803.0418,435.7679,793.2802,442.7472,808.63,453.9" style="stroke:#181818;stroke-width:1.0;"/></g><!--link PlantUmlGenerator to GeneratorInterface--><g id="link_PlantUmlGenerator_GeneratorInterface"><path codeLine="54" d="M545.91,336.06 C502.13,397.52 460.7234,455.6393 420.5334,512.0593 " fill="none" id="PlantUmlGenerator-to-GeneratorInterface" style="stroke:#181818;stroke-width:1.0;stroke-dasharray:7.0,7.0;"/><polygon fill="none" points="410.09,526.72,425.4203,515.5404,415.6464,508.5782,410.09,526.72" style="stroke:#181818;stroke-width:1.0;"/></g><!--SRC=[pLPTRzf047pdLvmILJXgy0-eKYH2J1I959H0rGSajDYBu-Hyjivh1AByzwvzmSGs4595Qb_yjJFZs_NCoSbBe6BG48ePk2- -ZbBbTICPQK4QLC8bLDHG429VkoYkGPD48ljMG_mqbA1e74fntW_y9teaH7ajKnJhXX2kX2GHMyWjAjH0B7nrzLfgjtES45_N2G45xaOuWxxu9XBIWVB5Tt4scQWpiTO8ta39rQQHmrijmvfEtKWnDdN9mYMwAS5Cubj-ynaMC16JrZFeYOYpfQIXdDXysxmKyqY7G2LyhFpcXL5Fa0On1Vm6Qm7SKy90q1fM5tonY0BFm7oaNgv3gAsiL9uGTsuNzTtLdUB3d0TQYFpW4UTyinZptENE2HzT7SHa-PaU0tBTsCYRuwL0vKPUrleiYYGtCWUPu7wrkn1yx0KIZmgweTUhZwTPaMpnmlkmYbBAQKSKBxRJg_1-eYPSMelyL6MQuY6gu_be8H-gjAnm4sXq2RqwkKEy_bbAc0mrpeCbUXPRFA1LJIP_UYdY75Oq_bPnqzWSp4RsvNUcvu24UAiHrPjiT6Oi2IwTbetk_StK-ULqnwFETTyfn-IBKuf9dTWRFDntHXLIxntIO3mQZaVJtbtjTT4xp95pFzp7etgQpoEJCaOMyNWDdlbcksYRUnFRZ-m4jQX_BE9hUFrEcqy9UqbkR-pvkV7claeVPYYxcKainaXsEJV0i8VY9YyUOZfBGfKmwX2x05GLTki-SLlwtFsdf9PvBjYELHJvAIQT1MbNByAqzSkkbV_L0YN40JEKC7zfYxh6FpH8LU2JhB9fxFzhiUl_9gtMx_QnVTokRTcdQzlsEzfr6_y1]--></g></svg>