<svg xmlns="http://www.w3.org/2000/svg" xmlns:xlink="http://www.w3.org/1999/xlink" contentStyleType="text/css" height="303px" preserveAspectRatio="none" style="width:335px;height:303px;background:#FFFFFF;" version="1.1" viewBox="0 0 335 303" width="335px" zoomAndPan="magnify"><defs/><g><!--cluster Bartlett--><g id="cluster_Bartlett"><path d="M8.5,6 L70.8936,6 A3.75,3.75 0 0 1 73.3936,8.5 L80.3936,28.2969 L325.5,28.2969 A2.5,2.5 0 0 1 328,30.7969 L328,293.5 A2.5,2.5 0 0 1 325.5,296 L8.5,296 A2.5,2.5 0 0 1 6,293.5 L6,8.5 A2.5,2.5 0 0 1 8.5,6 " fill="none" style="stroke:#000000;stroke-width:1.5;"/><line style="stroke:#000000;stroke-width:1.5;" x1="6" x2="80.3936" y1="28.2969" y2="28.2969"/><text fill="#000000" font-family="sans-serif" font-size="14" font-weight="bold" lengthAdjust="spacing" textLength="61.3936" x="10" y="20.9951">Bartlett</text></g><!--cluster GraphUml--><g id="cluster_GraphUml"><path d="M32.5,49 L112.0859,49 A3.75,3.75 0 0 1 114.5859,51.5 L121.5859,71.2969 L301.5,71.2969 A2.5,2.5 0 0 1 304,73.7969 L304,269.5 A2.5,2.5 0 0 1 301.5,272 L32.5,272 A2.5,2.5 0 0 1 30,269.5 L30,51.5 A2.5,2.5 0 0 1 32.5,49 " fill="none" style="stroke:#000000;stroke-width:1.5;"/><line style="stroke:#000000;stroke-width:1.5;" x1="30" x2="121.5859" y1="71.2969" y2="71.2969"/><text fill="#000000" font-family="sans-serif" font-size="14" font-weight="bold" lengthAdjust="spacing" textLength="78.5859" x="34" y="63.9951">GraphUml</text></g><!--class ClassDiagramBuilder--><g id="elem_ClassDiagramBuilder"><rect codeLine="2" fill="#F1F1F1" height="56.2656" id="ClassDiagramBuilder" rx="2.5" ry="2.5" style="stroke:#181818;stroke-width:0.5;" width="178.4531" x="78" y="84"/><ellipse cx="93" cy="104.1328" fill="#ADD1B2" rx="11" ry="11" style="stroke:#181818;stroke-width:1.0;"/><path d="M95.9688,109.7734 Q95.3906,110.0703 94.75,110.2109 Q94.1094,110.3672 93.4063,110.3672 Q90.9063,110.3672 89.5781,108.7266 Q88.2656,107.0703 88.2656,103.9453 Q88.2656,100.8203 89.5781,99.1641 Q90.9063,97.5078 93.4063,97.5078 Q94.1094,97.5078 94.75,97.6641 Q95.4063,97.8203 95.9688,98.1172 L95.9688,100.8359 Q95.3438,100.2578 94.75,99.9922 Q94.1563,99.7109 93.5313,99.7109 Q92.1875,99.7109 91.5,100.7891 Q90.8125,101.8516 90.8125,103.9453 Q90.8125,106.0391 91.5,107.1172 Q92.1875,108.1797 93.5313,108.1797 Q94.1563,108.1797 94.75,107.9141 Q95.3438,107.6328 95.9688,107.0547 L95.9688,109.7734 Z " fill="#000000"/><text fill="#000000" font-family="sans-serif" font-size="12" font-style="italic" lengthAdjust="spacing" textLength="44.6016" x="157.9258" y="100.1387">&#171;class&#187;</text><text fill="#000000" font-family="sans-serif" font-size="14" lengthAdjust="spacing" textLength="146.4531" x="107" y="115.9639">ClassDiagramBuilder</text><line style="stroke:#181818;stroke-width:0.5;" x1="79" x2="255.4531" y1="124.2656" y2="124.2656"/><line style="stroke:#181818;stroke-width:1.0;" x1="79" x2="255.4531" y1="132.2656" y2="132.2656"/></g><!--class ClassDiagramBuilderInterface--><g id="elem_ClassDiagramBuilderInterface"><rect codeLine="5" fill="#F1F1F1" height="56.2656" id="ClassDiagramBuilderInterface" rx="2.5" ry="2.5" style="stroke:#181818;stroke-width:0.5;" width="241.1318" x="46.5" y="200"/><ellipse cx="61.5" cy="220.1328" fill="#B4A7E5" rx="11" ry="11" style="stroke:#181818;stroke-width:1.0;"/><path d="M57.4219,215.8984 L57.4219,213.7422 L64.8125,213.7422 L64.8125,215.8984 L62.3438,215.8984 L62.3438,223.9766 L64.8125,223.9766 L64.8125,226.1328 L57.4219,226.1328 L57.4219,223.9766 L59.8906,223.9766 L59.8906,215.8984 L57.4219,215.8984 Z " fill="#000000"/><text fill="#000000" font-family="sans-serif" font-size="12" font-style="italic" lengthAdjust="spacing" textLength="68.332" x="145.8999" y="216.1387">&#171;interface&#187;</text><text fill="#000000" font-family="sans-serif" font-size="14" font-style="italic" lengthAdjust="spacing" textLength="209.1318" x="75.5" y="231.9639">ClassDiagramBuilderInterface</text><line style="stroke:#181818;stroke-width:0.5;" x1="47.5" x2="286.6318" y1="240.2656" y2="240.2656"/><line style="stroke:#181818;stroke-width:1.0;" x1="47.5" x2="286.6318" y1="248.2656" y2="248.2656"/></g><!--link ClassDiagramBuilder to ClassDiagramBuilderInterface--><g id="link_ClassDiagramBuilder_ClassDiagramBuilderInterface"><path codeLine="9" d="M167,140.02 C167,158.06 167,163.7 167,181.78 " fill="none" id="ClassDiagramBuilder-to-ClassDiagramBuilderInterface" style="stroke:#181818;stroke-width:1.0;stroke-dasharray:7.0,7.0;"/><polygon fill="none" points="167,199.78,173,181.78,161,181.78,167,199.78" style="stroke:#181818;stroke-width:1.0;"/></g><!--SRC=[oqlCJIqkI4nELN1AB2h9IIqfqNClIYp82CtDKQZcKb18paaiBbPm1f4kcOdfHOcvJgMPEIcfHGesDb19EpkmIWK5NLqWLGl4cNabgKLf84EnQFI4Im9DGAX4DwMM2yD1UjYSeQTNOwT0b5AunG00]--></g></svg>