<?xml version="1.0" encoding="UTF-8" standalone="no"?>
<!DOCTYPE svg PUBLIC "-//W3C//DTD SVG 1.1//EN"
 "http://www.w3.org/Graphics/SVG/1.1/DTD/svg11.dtd">
<!-- Generated by graphviz version 2.40.1 (20161225.0304)
 -->
<!-- Title: %3 Pages: 1 -->
<svg width="848pt" height="376pt"
 viewBox="0.00 0.00 848.00 376.00" xmlns="http://www.w3.org/2000/svg" xmlns:xlink="http://www.w3.org/1999/xlink">
<g id="graph0" class="graph" transform="scale(1 1) rotate(0) translate(4 372)">
<title>%3</title>
<polygon fill="#ffffff" stroke="transparent" points="-4,4 -4,-372 844,-372 844,4 -4,4"/>
<!-- bartlett/graph&#45;plantuml&#45;generator -->
<g id="node1" class="node">
<title>bartlett/graph&#45;plantuml&#45;generator</title>
<path fill="#eeeeee" stroke="#000000" stroke-width="2" d="M494,-368C494,-368 320,-368 320,-368 314,-368 308,-362 308,-356 308,-356 308,-344 308,-344 308,-338 314,-332 320,-332 320,-332 494,-332 494,-332 500,-332 506,-338 506,-344 506,-344 506,-356 506,-356 506,-362 500,-368 494,-368"/>
<text text-anchor="middle" x="407" y="-346.3" font-family="Times,serif" font-size="14.00" fill="#314b5f">bartlett/graph&#45;plantuml&#45;generator</text>
</g>
<!-- php -->
<g id="node2" class="node">
<title>php</title>
<path fill="#eeeeee" stroke="#000000" d="M177,-36C177,-36 147,-36 147,-36 141,-36 135,-30 135,-24 135,-24 135,-12 135,-12 135,-6 141,0 147,0 147,0 177,0 177,0 183,0 189,-6 189,-12 189,-12 189,-24 189,-24 189,-30 183,-36 177,-36"/>
<text text-anchor="middle" x="162" y="-14.3" font-family="Times,serif" font-size="14.00" fill="#314b5f">php</text>
</g>
<!-- bartlett/graph&#45;plantuml&#45;generator&#45;&gt;php -->
<g id="edge1" class="edge">
<title>bartlett/graph&#45;plantuml&#45;generator&#45;&gt;php</title>
<path fill="none" stroke="#1a2833" d="M307.957,-339.5026C187.484,-325.3623 0,-298.3245 0,-267 0,-267 0,-267 0,-101 0,-45.2088 77.046,-26.8942 124.8712,-20.9"/>
<polygon fill="#1a2833" stroke="#1a2833" points="125.3406,-24.3693 134.8848,-19.7696 124.5553,-17.4135 125.3406,-24.3693"/>
<text text-anchor="middle" x="22.5" y="-181.5" font-family="Times,serif" font-size="10.00" fill="#767676">^7.1.3|^8.0</text>
</g>
<!-- bartlett/graph&#45;uml -->
<g id="node3" class="node">
<title>bartlett/graph&#45;uml</title>
<path fill="#eeeeee" stroke="#000000" d="M404.5,-285C404.5,-285 277.5,-285 277.5,-285 271.5,-285 265.5,-279 265.5,-273 265.5,-273 265.5,-261 265.5,-261 265.5,-255 271.5,-249 277.5,-249 277.5,-249 404.5,-249 404.5,-249 410.5,-249 416.5,-255 416.5,-261 416.5,-261 416.5,-273 416.5,-273 416.5,-279 410.5,-285 404.5,-285"/>
<text text-anchor="middle" x="341" y="-263.3" font-family="Times,serif" font-size="14.00" fill="#314b5f">bartlett/graph&#45;uml: 1.0.1</text>
</g>
<!-- bartlett/graph&#45;plantuml&#45;generator&#45;&gt;bartlett/graph&#45;uml -->
<g id="edge2" class="edge">
<title>bartlett/graph&#45;plantuml&#45;generator&#45;&gt;bartlett/graph&#45;uml</title>
<path fill="none" stroke="#1a2833" d="M392.679,-331.9902C383.66,-320.6482 371.8655,-305.8157 361.8216,-293.1848"/>
<polygon fill="#1a2833" stroke="#1a2833" points="364.4844,-290.9099 355.521,-285.2612 359.0055,-295.2667 364.4844,-290.9099"/>
<text text-anchor="middle" x="387" y="-306" font-family="Times,serif" font-size="10.00" fill="#767676">^1.0</text>
</g>
<!-- jawira/plantuml&#45;encoding -->
<g id="node4" class="node">
<title>jawira/plantuml&#45;encoding</title>
<path fill="#eeeeee" stroke="#000000" d="M637.5,-285C637.5,-285 462.5,-285 462.5,-285 456.5,-285 450.5,-279 450.5,-273 450.5,-273 450.5,-261 450.5,-261 450.5,-255 456.5,-249 462.5,-249 462.5,-249 637.5,-249 637.5,-249 643.5,-249 649.5,-255 649.5,-261 649.5,-261 649.5,-273 649.5,-273 649.5,-279 643.5,-285 637.5,-285"/>
<text text-anchor="middle" x="550" y="-263.3" font-family="Times,serif" font-size="14.00" fill="#314b5f">jawira/plantuml&#45;encoding: v1.0.9</text>
</g>
<!-- bartlett/graph&#45;plantuml&#45;generator&#45;&gt;jawira/plantuml&#45;encoding -->
<g id="edge3" class="edge">
<title>bartlett/graph&#45;plantuml&#45;generator&#45;&gt;jawira/plantuml&#45;encoding</title>
<path fill="none" stroke="#1a2833" d="M438.0289,-331.9902C459.0589,-319.784 487.0538,-303.5352 509.7901,-290.3386"/>
<polygon fill="#1a2833" stroke="#1a2833" points="511.6461,-293.3082 518.5379,-285.2612 508.1321,-287.2541 511.6461,-293.3082"/>
<text text-anchor="middle" x="497" y="-306" font-family="Times,serif" font-size="10.00" fill="#767676">^1.0</text>
</g>
<!-- jawira/plantuml -->
<g id="node5" class="node">
<title>jawira/plantuml</title>
<path fill="#eeeeee" stroke="#000000" d="M828,-285C828,-285 680,-285 680,-285 674,-285 668,-279 668,-273 668,-273 668,-261 668,-261 668,-255 674,-249 680,-249 680,-249 828,-249 828,-249 834,-249 840,-255 840,-261 840,-261 840,-273 840,-273 840,-279 834,-285 828,-285"/>
<text text-anchor="middle" x="754" y="-263.3" font-family="Times,serif" font-size="14.00" fill="#314b5f">jawira/plantuml: v1.2021.14</text>
</g>
<!-- bartlett/graph&#45;plantuml&#45;generator&#45;&gt;jawira/plantuml -->
<g id="edge4" class="edge">
<title>bartlett/graph&#45;plantuml&#45;generator&#45;&gt;jawira/plantuml</title>
<path fill="none" stroke="#1a2833" stroke-dasharray="5,2" d="M482.2938,-331.9902C537.2201,-318.8522 611.726,-301.0309 668.8261,-287.373"/>
<polygon fill="#1a2833" stroke="#1a2833" points="669.6427,-290.7765 678.5541,-285.0461 668.0142,-283.9685 669.6427,-290.7765"/>
<text text-anchor="middle" x="613.5" y="-306" font-family="Times,serif" font-size="10.00" fill="#767676">^1.28</text>
</g>
<!-- bartlett/graph&#45;uml&#45;&gt;php -->
<g id="edge8" class="edge">
<title>bartlett/graph&#45;uml&#45;&gt;php</title>
<path fill="none" stroke="#1a2833" d="M265.259,-256.8483C240.0227,-251.469 212.3989,-243.3131 189,-231 172.0146,-222.0618 169.6217,-216.4599 157,-202 135.1405,-176.957 117.0323,-170.1086 120,-137 123.3467,-99.6632 120.0181,-88.3624 135,-54 136.4168,-50.7505 138.1795,-47.5219 140.1211,-44.409"/>
<polygon fill="#1a2833" stroke="#1a2833" points="143.1139,-46.235 145.9278,-36.0206 137.3583,-42.2508 143.1139,-46.235"/>
<text text-anchor="middle" x="142.5" y="-140" font-family="Times,serif" font-size="10.00" fill="#767676">^7.1.3|^8.0</text>
</g>
<!-- cweagans/composer&#45;patches -->
<g id="node6" class="node">
<title>cweagans/composer&#45;patches</title>
<path fill="#eeeeee" stroke="#000000" d="M725,-119C725,-119 529,-119 529,-119 523,-119 517,-113 517,-107 517,-107 517,-95 517,-95 517,-89 523,-83 529,-83 529,-83 725,-83 725,-83 731,-83 737,-89 737,-95 737,-95 737,-107 737,-107 737,-113 731,-119 725,-119"/>
<text text-anchor="middle" x="627" y="-97.3" font-family="Times,serif" font-size="14.00" fill="#314b5f">cweagans/composer&#45;patches: 1.x&#45;dev</text>
</g>
<!-- bartlett/graph&#45;uml&#45;&gt;cweagans/composer&#45;patches -->
<g id="edge5" class="edge">
<title>bartlett/graph&#45;uml&#45;&gt;cweagans/composer&#45;patches</title>
<path fill="none" stroke="#1a2833" d="M387.0028,-248.9481C398.9849,-243.671 411.6984,-237.5452 423,-231 465.0766,-206.6318 470.1551,-192.3807 511,-166 534.2647,-150.9739 561.1999,-135.7561 583.256,-123.8263"/>
<polygon fill="#1a2833" stroke="#1a2833" points="584.9183,-126.9064 592.0723,-119.0916 581.6064,-120.7394 584.9183,-126.9064"/>
<text text-anchor="middle" x="520" y="-181.5" font-family="Times,serif" font-size="10.00" fill="#767676">^1.7</text>
</g>
<!-- graphp/graph -->
<g id="node7" class="node">
<title>graphp/graph</title>
<path fill="#eeeeee" stroke="#000000" d="M329.5,-119C329.5,-119 196.5,-119 196.5,-119 190.5,-119 184.5,-113 184.5,-107 184.5,-107 184.5,-95 184.5,-95 184.5,-89 190.5,-83 196.5,-83 196.5,-83 329.5,-83 329.5,-83 335.5,-83 341.5,-89 341.5,-95 341.5,-95 341.5,-107 341.5,-107 341.5,-113 335.5,-119 329.5,-119"/>
<text text-anchor="middle" x="263" y="-97.3" font-family="Times,serif" font-size="14.00" fill="#314b5f">graphp/graph: dev&#45;master</text>
</g>
<!-- bartlett/graph&#45;uml&#45;&gt;graphp/graph -->
<g id="edge6" class="edge">
<title>bartlett/graph&#45;uml&#45;&gt;graphp/graph</title>
<path fill="none" stroke="#1a2833" d="M268.5052,-248.8775C226.414,-236.7276 179.3177,-219.7505 167,-202 146.553,-172.5346 181.9834,-143.3245 215.4302,-123.9557"/>
<polygon fill="#1a2833" stroke="#1a2833" points="217.2782,-126.9326 224.3079,-119.0058 213.8694,-120.8187 217.2782,-126.9326"/>
<text text-anchor="middle" x="206" y="-181.5" font-family="Times,serif" font-size="10.00" fill="#767676">dev&#45;master as 1.0.0</text>
</g>
<!-- graphp/graphviz -->
<g id="node8" class="node">
<title>graphp/graphviz</title>
<path fill="#eeeeee" stroke="#000000" d="M415.5,-202C415.5,-202 266.5,-202 266.5,-202 260.5,-202 254.5,-196 254.5,-190 254.5,-190 254.5,-178 254.5,-178 254.5,-172 260.5,-166 266.5,-166 266.5,-166 415.5,-166 415.5,-166 421.5,-166 427.5,-172 427.5,-178 427.5,-178 427.5,-190 427.5,-190 427.5,-196 421.5,-202 415.5,-202"/>
<text text-anchor="middle" x="341" y="-180.3" font-family="Times,serif" font-size="14.00" fill="#314b5f">graphp/graphviz: dev&#45;master</text>
</g>
<!-- bartlett/graph&#45;uml&#45;&gt;graphp/graphviz -->
<g id="edge7" class="edge">
<title>bartlett/graph&#45;uml&#45;&gt;graphp/graphviz</title>
<path fill="none" stroke="#1a2833" d="M341,-248.9902C341,-238.2963 341,-224.4994 341,-212.3706"/>
<polygon fill="#1a2833" stroke="#1a2833" points="344.5001,-212.2612 341,-202.2612 337.5001,-212.2613 344.5001,-212.2612"/>
<text text-anchor="middle" x="380" y="-223" font-family="Times,serif" font-size="10.00" fill="#767676">dev&#45;master as 1.0.0</text>
</g>
<!-- jawira/plantuml&#45;encoding&#45;&gt;php -->
<g id="edge19" class="edge">
<title>jawira/plantuml&#45;encoding&#45;&gt;php</title>
<path fill="none" stroke="#1a2833" d="M544.0656,-248.9212C536.1002,-226.9891 520.1037,-189.9807 496,-166 464.2886,-134.4505 442.458,-146.2712 407,-119 375.8361,-95.0315 381.3354,-73.151 347,-54 322.1601,-40.1452 245.7385,-28.5054 199.2501,-22.4619"/>
<polygon fill="#1a2833" stroke="#1a2833" points="199.6134,-18.98 189.2512,-21.1882 198.7287,-25.9239 199.6134,-18.98"/>
<text text-anchor="middle" x="483.5" y="-140" font-family="Times,serif" font-size="10.00" fill="#767676">&gt;=5.3</text>
</g>
<!-- ext&#45;zlib -->
<g id="node12" class="node">
<title>ext&#45;zlib</title>
<path fill="#eeeeee" stroke="#000000" d="M584,-202C584,-202 550,-202 550,-202 544,-202 538,-196 538,-190 538,-190 538,-178 538,-178 538,-172 544,-166 550,-166 550,-166 584,-166 584,-166 590,-166 596,-172 596,-178 596,-178 596,-190 596,-190 596,-196 590,-202 584,-202"/>
<text text-anchor="middle" x="567" y="-180.3" font-family="Times,serif" font-size="14.00" fill="#314b5f">ext&#45;zlib</text>
</g>
<!-- jawira/plantuml&#45;encoding&#45;&gt;ext&#45;zlib -->
<g id="edge18" class="edge">
<title>jawira/plantuml&#45;encoding&#45;&gt;ext&#45;zlib</title>
<path fill="none" stroke="#1a2833" d="M553.6887,-248.9902C555.8791,-238.2963 558.7049,-224.4994 561.1892,-212.3706"/>
<polygon fill="#1a2833" stroke="#1a2833" points="564.682,-212.7602 563.2597,-202.2612 557.8243,-211.3555 564.682,-212.7602"/>
<text text-anchor="middle" x="563" y="-223" font-family="Times,serif" font-size="10.00" fill="#767676">*</text>
</g>
<!-- phpstan/phpstan -->
<g id="node13" class="node">
<title>phpstan/phpstan</title>
<path fill="#eeeeee" stroke="#000000" d="M706,-202C706,-202 626,-202 626,-202 620,-202 614,-196 614,-190 614,-190 614,-178 614,-178 614,-172 620,-166 626,-166 626,-166 706,-166 706,-166 712,-166 718,-172 718,-178 718,-178 718,-190 718,-190 718,-196 712,-202 706,-202"/>
<text text-anchor="middle" x="666" y="-180.3" font-family="Times,serif" font-size="14.00" fill="#314b5f">phpstan/phpstan</text>
</g>
<!-- jawira/plantuml&#45;encoding&#45;&gt;phpstan/phpstan -->
<g id="edge20" class="edge">
<title>jawira/plantuml&#45;encoding&#45;&gt;phpstan/phpstan</title>
<path fill="none" stroke="#1a2833" stroke-dasharray="5,2" d="M575.1703,-248.9902C591.7767,-237.1081 613.7369,-221.3951 631.9044,-208.396"/>
<polygon fill="#1a2833" stroke="#1a2833" points="634.3823,-210.9267 640.4783,-202.2612 630.309,-205.2339 634.3823,-210.9267"/>
<text text-anchor="middle" x="624" y="-223" font-family="Times,serif" font-size="10.00" fill="#767676">^1.0</text>
</g>
<!-- vimeo/psalm -->
<g id="node14" class="node">
<title>vimeo/psalm</title>
<path fill="#eeeeee" stroke="#000000" d="M812,-202C812,-202 748,-202 748,-202 742,-202 736,-196 736,-190 736,-190 736,-178 736,-178 736,-172 742,-166 748,-166 748,-166 812,-166 812,-166 818,-166 824,-172 824,-178 824,-178 824,-190 824,-190 824,-196 818,-202 812,-202"/>
<text text-anchor="middle" x="780" y="-180.3" font-family="Times,serif" font-size="14.00" fill="#314b5f">vimeo/psalm</text>
</g>
<!-- jawira/plantuml&#45;encoding&#45;&gt;vimeo/psalm -->
<g id="edge21" class="edge">
<title>jawira/plantuml&#45;encoding&#45;&gt;vimeo/psalm</title>
<path fill="none" stroke="#1a2833" stroke-dasharray="5,2" d="M599.9066,-248.9902C637.1765,-235.5407 688.0471,-217.183 726.2177,-203.4084"/>
<polygon fill="#1a2833" stroke="#1a2833" points="727.4142,-206.6976 735.6324,-200.0109 725.0381,-200.1132 727.4142,-206.6976"/>
<text text-anchor="middle" x="688" y="-223" font-family="Times,serif" font-size="10.00" fill="#767676">^4.0</text>
</g>
<!-- cweagans/composer&#45;patches&#45;&gt;php -->
<g id="edge10" class="edge">
<title>cweagans/composer&#45;patches&#45;&gt;php</title>
<path fill="none" stroke="#1a2833" d="M530.7859,-82.9733C483.0566,-74.1054 424.5203,-63.3415 372,-54 311.5679,-43.2513 241.2467,-31.3115 199.2473,-24.2409"/>
<polygon fill="#1a2833" stroke="#1a2833" points="199.645,-20.7587 189.203,-22.5518 198.4841,-27.6617 199.645,-20.7587"/>
<text text-anchor="middle" x="444.5" y="-57" font-family="Times,serif" font-size="10.00" fill="#767676">&gt;=5.3.0</text>
</g>
<!-- composer&#45;plugin&#45;api -->
<g id="node9" class="node">
<title>composer&#45;plugin&#45;api</title>
<path fill="#eeeeee" stroke="#000000" d="M801,-36C801,-36 695,-36 695,-36 689,-36 683,-30 683,-24 683,-24 683,-12 683,-12 683,-6 689,0 695,0 695,0 801,0 801,0 807,0 813,-6 813,-12 813,-12 813,-24 813,-24 813,-30 807,-36 801,-36"/>
<text text-anchor="middle" x="748" y="-14.3" font-family="Times,serif" font-size="14.00" fill="#314b5f">composer&#45;plugin&#45;api</text>
</g>
<!-- cweagans/composer&#45;patches&#45;&gt;composer&#45;plugin&#45;api -->
<g id="edge9" class="edge">
<title>cweagans/composer&#45;patches&#45;&gt;composer&#45;plugin&#45;api</title>
<path fill="none" stroke="#1a2833" d="M653.2552,-82.9902C670.7349,-71 693.9012,-55.1091 712.9506,-42.0421"/>
<polygon fill="#1a2833" stroke="#1a2833" points="715.1116,-44.8041 721.3782,-36.2612 711.152,-39.0316 715.1116,-44.8041"/>
<text text-anchor="middle" x="717" y="-57" font-family="Times,serif" font-size="10.00" fill="#767676">^1.0 || ^2.0</text>
</g>
<!-- composer/composer -->
<g id="node10" class="node">
<title>composer/composer</title>
<path fill="#eeeeee" stroke="#000000" d="M652.5,-36C652.5,-36 549.5,-36 549.5,-36 543.5,-36 537.5,-30 537.5,-24 537.5,-24 537.5,-12 537.5,-12 537.5,-6 543.5,0 549.5,0 549.5,0 652.5,0 652.5,0 658.5,0 664.5,-6 664.5,-12 664.5,-12 664.5,-24 664.5,-24 664.5,-30 658.5,-36 652.5,-36"/>
<text text-anchor="middle" x="601" y="-14.3" font-family="Times,serif" font-size="14.00" fill="#314b5f">composer/composer</text>
</g>
<!-- cweagans/composer&#45;patches&#45;&gt;composer/composer -->
<g id="edge11" class="edge">
<title>cweagans/composer&#45;patches&#45;&gt;composer/composer</title>
<path fill="none" stroke="#1a2833" stroke-dasharray="5,2" d="M621.3584,-82.9902C617.9746,-72.1883 613.5992,-58.2204 609.7722,-46.0036"/>
<polygon fill="#1a2833" stroke="#1a2833" points="613.0497,-44.7577 606.7204,-36.2612 606.3698,-46.8503 613.0497,-44.7577"/>
<text text-anchor="middle" x="639" y="-57" font-family="Times,serif" font-size="10.00" fill="#767676">~1.0 || ~2.0</text>
</g>
<!-- phpunit/phpunit -->
<g id="node11" class="node">
<title>phpunit/phpunit</title>
<path fill="#eeeeee" stroke="#000000" d="M481.5,-36C481.5,-36 402.5,-36 402.5,-36 396.5,-36 390.5,-30 390.5,-24 390.5,-24 390.5,-12 390.5,-12 390.5,-6 396.5,0 402.5,0 402.5,0 481.5,0 481.5,0 487.5,0 493.5,-6 493.5,-12 493.5,-12 493.5,-24 493.5,-24 493.5,-30 487.5,-36 481.5,-36"/>
<text text-anchor="middle" x="442" y="-14.3" font-family="Times,serif" font-size="14.00" fill="#314b5f">phpunit/phpunit</text>
</g>
<!-- cweagans/composer&#45;patches&#45;&gt;phpunit/phpunit -->
<g id="edge12" class="edge">
<title>cweagans/composer&#45;patches&#45;&gt;phpunit/phpunit</title>
<path fill="none" stroke="#1a2833" stroke-dasharray="5,2" d="M586.8578,-82.9902C558.9533,-70.4709 521.5701,-53.699 491.7702,-40.3293"/>
<polygon fill="#1a2833" stroke="#1a2833" points="492.9395,-37.0179 482.3829,-36.1177 490.074,-43.4045 492.9395,-37.0179"/>
<text text-anchor="middle" x="555.5" y="-57" font-family="Times,serif" font-size="10.00" fill="#767676">~4.6</text>
</g>
<!-- graphp/graph&#45;&gt;php -->
<g id="edge13" class="edge">
<title>graphp/graph&#45;&gt;php</title>
<path fill="none" stroke="#1a2833" d="M238.864,-82.9715C231.4532,-77.3138 223.3234,-70.982 216,-65 207.3926,-57.9692 198.2097,-50.1156 189.9035,-42.8717"/>
<polygon fill="#1a2833" stroke="#1a2833" points="192.0807,-40.1257 182.2559,-36.1603 187.4634,-45.387 192.0807,-40.1257"/>
<text text-anchor="middle" x="228.5" y="-57" font-family="Times,serif" font-size="10.00" fill="#767676">&gt;=5.3</text>
</g>
<!-- graphp/graph&#45;&gt;phpunit/phpunit -->
<g id="edge14" class="edge">
<title>graphp/graph&#45;&gt;phpunit/phpunit</title>
<path fill="none" stroke="#1a2833" stroke-dasharray="5,2" d="M268.8642,-82.9055C272.9856,-72.9574 279.4856,-61.2074 289,-54 303.514,-43.0053 344.4742,-33.6905 380.3635,-27.292"/>
<polygon fill="#1a2833" stroke="#1a2833" points="381.0699,-30.7219 390.3254,-25.5657 379.8746,-23.8247 381.0699,-30.7219"/>
<text text-anchor="middle" x="330.5" y="-57" font-family="Times,serif" font-size="10.00" fill="#767676">^9.3 || ^5.7 || ^4.8.35</text>
</g>
<!-- graphp/graphviz&#45;&gt;php -->
<g id="edge16" class="edge">
<title>graphp/graphviz&#45;&gt;php</title>
<path fill="none" stroke="#1a2833" d="M254.4541,-166.2926C207.3649,-154.7127 155.9245,-138.1967 142,-119 126.4575,-97.5727 135.5888,-67.1388 146.049,-45.2882"/>
<polygon fill="#1a2833" stroke="#1a2833" points="149.2563,-46.704 150.7045,-36.2086 143.0274,-43.5102 149.2563,-46.704"/>
<text text-anchor="middle" x="158.5" y="-98.5" font-family="Times,serif" font-size="10.00" fill="#767676">&gt;=5.3.0</text>
</g>
<!-- graphp/graphviz&#45;&gt;graphp/graph -->
<g id="edge15" class="edge">
<title>graphp/graphviz&#45;&gt;graphp/graph</title>
<path fill="none" stroke="#1a2833" d="M301.1522,-165.9061C293.3564,-160.9676 285.8088,-155.0045 280,-148 275.4597,-142.5252 272.0841,-135.7378 269.5928,-129.0397"/>
<polygon fill="#1a2833" stroke="#1a2833" points="272.91,-127.9215 266.5428,-119.4533 266.2394,-130.0438 272.91,-127.9215"/>
<text text-anchor="middle" x="338" y="-140" font-family="Times,serif" font-size="10.00" fill="#767676">dev&#45;master#81eef65 as 1.0.0</text>
</g>
<!-- graphp/graphviz&#45;&gt;phpunit/phpunit -->
<g id="edge17" class="edge">
<title>graphp/graphviz&#45;&gt;phpunit/phpunit</title>
<path fill="none" stroke="#1a2833" stroke-dasharray="5,2" d="M375.9655,-165.8365C383.3009,-160.8152 390.4772,-154.835 396,-148 408.8303,-132.1211 424.9808,-79.7047 434.3336,-46.4792"/>
<polygon fill="#1a2833" stroke="#1a2833" points="437.8189,-47.0083 437.1186,-36.4366 431.0735,-45.1376 437.8189,-47.0083"/>
<text text-anchor="middle" x="465.5" y="-98.5" font-family="Times,serif" font-size="10.00" fill="#767676">^9.3 || ^5.7 || ^4.8.35</text>
</g>
</g>
</svg>
