<?xml version="1.0" encoding="UTF-8" standalone="no"?>
<!DOCTYPE svg PUBLIC "-//W3C//DTD SVG 1.1//EN"
 "http://www.w3.org/Graphics/SVG/1.1/DTD/svg11.dtd">
<!-- Generated by graphviz version 2.40.1 (20161225.0304)
 -->
<!-- Title: %3 Pages: 1 -->
<svg width="855pt" height="376pt"
 viewBox="0.00 0.00 854.50 376.00" xmlns="http://www.w3.org/2000/svg" xmlns:xlink="http://www.w3.org/1999/xlink">
<g id="graph0" class="graph" transform="scale(1 1) rotate(0) translate(4 372)">
<title>%3</title>
<polygon fill="#ffffff" stroke="transparent" points="-4,4 -4,-372 850.5,-372 850.5,4 -4,4"/>
<!-- bartlett/graph&#45;plantuml&#45;generator -->
<g id="node1" class="node">
<title>bartlett/graph&#45;plantuml&#45;generator</title>
<path fill="#eeeeee" stroke="#000000" stroke-width="2" d="M625.5,-368C625.5,-368 451.5,-368 451.5,-368 445.5,-368 439.5,-362 439.5,-356 439.5,-356 439.5,-344 439.5,-344 439.5,-338 445.5,-332 451.5,-332 451.5,-332 625.5,-332 625.5,-332 631.5,-332 637.5,-338 637.5,-344 637.5,-344 637.5,-356 637.5,-356 637.5,-362 631.5,-368 625.5,-368"/>
<text text-anchor="middle" x="538.5" y="-346.3" font-family="Times,serif" font-size="14.00" fill="#314b5f">bartlett/graph&#45;plantuml&#45;generator</text>
</g>
<!-- php -->
<g id="node2" class="node">
<title>php</title>
<path fill="#eeeeee" stroke="#000000" d="M494.5,-36C494.5,-36 464.5,-36 464.5,-36 458.5,-36 452.5,-30 452.5,-24 452.5,-24 452.5,-12 452.5,-12 452.5,-6 458.5,0 464.5,0 464.5,0 494.5,0 494.5,0 500.5,0 506.5,-6 506.5,-12 506.5,-12 506.5,-24 506.5,-24 506.5,-30 500.5,-36 494.5,-36"/>
<text text-anchor="middle" x="479.5" y="-14.3" font-family="Times,serif" font-size="14.00" fill="#314b5f">php</text>
</g>
<!-- bartlett/graph&#45;plantuml&#45;generator&#45;&gt;php -->
<g id="edge1" class="edge">
<title>bartlett/graph&#45;plantuml&#45;generator&#45;&gt;php</title>
<path fill="none" stroke="#1a2833" d="M607.3708,-331.9897C637.6675,-319.5098 666.5,-299.1796 666.5,-267 666.5,-267 666.5,-267 666.5,-101 666.5,-68.5487 571.2311,-40.1375 516.6924,-26.5316"/>
<polygon fill="#1a2833" stroke="#1a2833" points="517.2364,-23.0616 506.6914,-24.0883 515.575,-29.8616 517.2364,-23.0616"/>
<text text-anchor="middle" x="679" y="-181.5" font-family="Times,serif" font-size="10.00" fill="#767676">^7.1.3</text>
</g>
<!-- bartlett/graph&#45;uml -->
<g id="node3" class="node">
<title>bartlett/graph&#45;uml</title>
<path fill="#eeeeee" stroke="#000000" d="M408.5,-285C408.5,-285 256.5,-285 256.5,-285 250.5,-285 244.5,-279 244.5,-273 244.5,-273 244.5,-261 244.5,-261 244.5,-255 250.5,-249 256.5,-249 256.5,-249 408.5,-249 408.5,-249 414.5,-249 420.5,-255 420.5,-261 420.5,-261 420.5,-273 420.5,-273 420.5,-279 414.5,-285 408.5,-285"/>
<text text-anchor="middle" x="332.5" y="-263.3" font-family="Times,serif" font-size="14.00" fill="#314b5f">bartlett/graph&#45;uml: 1.0.0&#45;rc.2</text>
</g>
<!-- bartlett/graph&#45;plantuml&#45;generator&#45;&gt;bartlett/graph&#45;uml -->
<g id="edge2" class="edge">
<title>bartlett/graph&#45;plantuml&#45;generator&#45;&gt;bartlett/graph&#45;uml</title>
<path fill="none" stroke="#1a2833" d="M493.8011,-331.9902C462.4601,-319.3625 420.3808,-302.4083 387.0598,-288.9828"/>
<polygon fill="#1a2833" stroke="#1a2833" points="388.0504,-285.6086 377.4669,-285.1177 385.4343,-292.1014 388.0504,-285.6086"/>
<text text-anchor="middle" x="457.5" y="-306" font-family="Times,serif" font-size="10.00" fill="#767676">^1.0</text>
</g>
<!-- graphp/graphviz -->
<g id="node4" class="node">
<title>graphp/graphviz</title>
<path fill="#eeeeee" stroke="#000000" d="M283.5,-202C283.5,-202 21.5,-202 21.5,-202 15.5,-202 9.5,-196 9.5,-190 9.5,-190 9.5,-178 9.5,-178 9.5,-172 15.5,-166 21.5,-166 21.5,-166 283.5,-166 283.5,-166 289.5,-166 295.5,-172 295.5,-178 295.5,-178 295.5,-190 295.5,-190 295.5,-196 289.5,-202 283.5,-202"/>
<text text-anchor="middle" x="152.5" y="-180.3" font-family="Times,serif" font-size="14.00" fill="#314b5f">graphp/graphviz: dev&#45;subgraph_cluster_attributes</text>
</g>
<!-- bartlett/graph&#45;plantuml&#45;generator&#45;&gt;graphp/graphviz -->
<g id="edge3" class="edge">
<title>bartlett/graph&#45;plantuml&#45;generator&#45;&gt;graphp/graphviz</title>
<path fill="none" stroke="#1a2833" d="M439.3889,-343.0927C309.2384,-332.9976 94.3528,-312.3947 70.5,-285 47.9275,-259.0758 81.1747,-228.2792 111.8499,-207.5657"/>
<polygon fill="#1a2833" stroke="#1a2833" points="113.9182,-210.3955 120.3852,-202.0033 110.0962,-204.531 113.9182,-210.3955"/>
<text text-anchor="middle" x="153" y="-264.5" font-family="Times,serif" font-size="10.00" fill="#767676">dev&#45;subgraph_cluster_attributes as 1.0.0</text>
</g>
<!-- jawira/plantuml&#45;encoding -->
<g id="node5" class="node">
<title>jawira/plantuml&#45;encoding</title>
<path fill="#eeeeee" stroke="#000000" d="M626,-285C626,-285 451,-285 451,-285 445,-285 439,-279 439,-273 439,-273 439,-261 439,-261 439,-255 445,-249 451,-249 451,-249 626,-249 626,-249 632,-249 638,-255 638,-261 638,-261 638,-273 638,-273 638,-279 632,-285 626,-285"/>
<text text-anchor="middle" x="538.5" y="-263.3" font-family="Times,serif" font-size="14.00" fill="#314b5f">jawira/plantuml&#45;encoding: v1.0.7</text>
</g>
<!-- bartlett/graph&#45;plantuml&#45;generator&#45;&gt;jawira/plantuml&#45;encoding -->
<g id="edge4" class="edge">
<title>bartlett/graph&#45;plantuml&#45;generator&#45;&gt;jawira/plantuml&#45;encoding</title>
<path fill="none" stroke="#1a2833" d="M538.5,-331.9902C538.5,-321.2963 538.5,-307.4994 538.5,-295.3706"/>
<polygon fill="#1a2833" stroke="#1a2833" points="542.0001,-295.2612 538.5,-285.2612 535.0001,-295.2613 542.0001,-295.2612"/>
<text text-anchor="middle" x="547.5" y="-306" font-family="Times,serif" font-size="10.00" fill="#767676">^1.0</text>
</g>
<!-- jawira/plantuml -->
<g id="node6" class="node">
<title>jawira/plantuml</title>
<path fill="#eeeeee" stroke="#000000" d="M834.5,-285C834.5,-285 706.5,-285 706.5,-285 700.5,-285 694.5,-279 694.5,-273 694.5,-273 694.5,-261 694.5,-261 694.5,-255 700.5,-249 706.5,-249 706.5,-249 834.5,-249 834.5,-249 840.5,-249 846.5,-255 846.5,-261 846.5,-261 846.5,-273 846.5,-273 846.5,-279 840.5,-285 834.5,-285"/>
<text text-anchor="middle" x="770.5" y="-263.3" font-family="Times,serif" font-size="14.00" fill="#314b5f">jawira/plantuml: v1.36.0</text>
</g>
<!-- bartlett/graph&#45;plantuml&#45;generator&#45;&gt;jawira/plantuml -->
<g id="edge5" class="edge">
<title>bartlett/graph&#45;plantuml&#45;generator&#45;&gt;jawira/plantuml</title>
<path fill="none" stroke="#1a2833" stroke-dasharray="5,2" d="M623.2294,-331.96C642.3308,-326.9481 662.3241,-320.9408 680.5,-314 697.7072,-307.4291 715.8619,-298.3919 731.3237,-289.9965"/>
<polygon fill="#1a2833" stroke="#1a2833" points="733.0303,-293.0523 740.0887,-285.1511 729.6436,-286.9261 733.0303,-293.0523"/>
<text text-anchor="middle" x="715" y="-306" font-family="Times,serif" font-size="10.00" fill="#767676">^1.28</text>
</g>
<!-- bartlett/graph&#45;uml&#45;&gt;php -->
<g id="edge8" class="edge">
<title>bartlett/graph&#45;uml&#45;&gt;php</title>
<path fill="none" stroke="#1a2833" d="M387.102,-248.9219C409.8351,-238.6637 434.4008,-223.4818 449.5,-202 482.5044,-155.0444 484.1798,-84.8537 482.0926,-46.1473"/>
<polygon fill="#1a2833" stroke="#1a2833" points="485.5811,-45.857 481.427,-36.1105 478.5965,-46.3202 485.5811,-45.857"/>
<text text-anchor="middle" x="489" y="-140" font-family="Times,serif" font-size="10.00" fill="#767676">^7.1.3</text>
</g>
<!-- bartlett/graph&#45;uml&#45;&gt;graphp/graphviz -->
<g id="edge7" class="edge">
<title>bartlett/graph&#45;uml&#45;&gt;graphp/graphviz</title>
<path fill="none" stroke="#1a2833" d="M244.4804,-250.5085C200.0524,-241.98 155.1306,-232.9486 153.5,-231 149.2377,-225.9067 147.5841,-219.3024 147.3114,-212.6624"/>
<polygon fill="#1a2833" stroke="#1a2833" points="150.8204,-212.5786 147.843,-202.4107 143.8297,-212.216 150.8204,-212.5786"/>
<text text-anchor="middle" x="236" y="-223" font-family="Times,serif" font-size="10.00" fill="#767676">dev&#45;subgraph_cluster_attributes as 1.0.0</text>
</g>
<!-- graphp/graph -->
<g id="node7" class="node">
<title>graphp/graph</title>
<path fill="#eeeeee" stroke="#000000" d="M380,-119C380,-119 247,-119 247,-119 241,-119 235,-113 235,-107 235,-107 235,-95 235,-95 235,-89 241,-83 247,-83 247,-83 380,-83 380,-83 386,-83 392,-89 392,-95 392,-95 392,-107 392,-107 392,-113 386,-119 380,-119"/>
<text text-anchor="middle" x="313.5" y="-97.3" font-family="Times,serif" font-size="14.00" fill="#314b5f">graphp/graph: dev&#45;master</text>
</g>
<!-- bartlett/graph&#45;uml&#45;&gt;graphp/graph -->
<g id="edge6" class="edge">
<title>bartlett/graph&#45;uml&#45;&gt;graphp/graph</title>
<path fill="none" stroke="#1a2833" d="M330.7274,-248.8935C328.2263,-223.7572 323.4153,-176.8771 318.5,-137 318.1893,-134.4793 317.8527,-131.8613 317.506,-129.239"/>
<polygon fill="#1a2833" stroke="#1a2833" points="320.9699,-128.7361 316.1525,-119.2998 314.0339,-129.6807 320.9699,-128.7361"/>
<text text-anchor="middle" x="386" y="-181.5" font-family="Times,serif" font-size="10.00" fill="#767676">dev&#45;master#214de45 as 1.0.0</text>
</g>
<!-- graphp/graphviz&#45;&gt;php -->
<g id="edge12" class="edge">
<title>graphp/graphviz&#45;&gt;php</title>
<path fill="none" stroke="#1a2833" d="M154.5728,-165.7266C158.1637,-142.8868 167.7187,-104.2235 192.5,-83 229.8694,-50.9956 373.4748,-30.3548 442.2994,-22.0954"/>
<polygon fill="#1a2833" stroke="#1a2833" points="442.7602,-25.5654 452.283,-20.9214 441.9426,-18.6133 442.7602,-25.5654"/>
<text text-anchor="middle" x="209" y="-98.5" font-family="Times,serif" font-size="10.00" fill="#767676">&gt;=5.3.0</text>
</g>
<!-- graphp/graphviz&#45;&gt;graphp/graph -->
<g id="edge11" class="edge">
<title>graphp/graphviz&#45;&gt;graphp/graph</title>
<path fill="none" stroke="#1a2833" d="M166.9357,-165.7868C175.4915,-156.0493 187.0714,-144.5457 199.5,-137 208.6008,-131.4747 218.6316,-126.7183 228.8544,-122.6445"/>
<polygon fill="#1a2833" stroke="#1a2833" points="230.1531,-125.8954 238.2754,-119.0926 227.6836,-119.3454 230.1531,-125.8954"/>
<text text-anchor="middle" x="259" y="-140" font-family="Times,serif" font-size="10.00" fill="#767676">dev&#45;master#214de45 as 1.0.0</text>
</g>
<!-- phpunit/phpunit -->
<g id="node8" class="node">
<title>phpunit/phpunit</title>
<path fill="#eeeeee" stroke="#000000" d="M91,-36C91,-36 12,-36 12,-36 6,-36 0,-30 0,-24 0,-24 0,-12 0,-12 0,-6 6,0 12,0 12,0 91,0 91,0 97,0 103,-6 103,-12 103,-12 103,-24 103,-24 103,-30 97,-36 91,-36"/>
<text text-anchor="middle" x="51.5" y="-14.3" font-family="Times,serif" font-size="14.00" fill="#314b5f">phpunit/phpunit</text>
</g>
<!-- graphp/graphviz&#45;&gt;phpunit/phpunit -->
<g id="edge13" class="edge">
<title>graphp/graphviz&#45;&gt;phpunit/phpunit</title>
<path fill="none" stroke="#1a2833" stroke-dasharray="5,2" d="M112.5788,-165.9464C93.5036,-155.1514 72.3049,-139.5085 60.5,-119 47.8033,-96.942 46.5769,-67.5858 47.9147,-46.2097"/>
<polygon fill="#1a2833" stroke="#1a2833" points="51.4117,-46.3923 48.7694,-36.1322 44.4368,-45.8007 51.4117,-46.3923"/>
<text text-anchor="middle" x="102" y="-98.5" font-family="Times,serif" font-size="10.00" fill="#767676">^6.4 || ^5.7 || ^4.8.35</text>
</g>
<!-- jawira/plantuml&#45;encoding&#45;&gt;php -->
<g id="edge15" class="edge">
<title>jawira/plantuml&#45;encoding&#45;&gt;php</title>
<path fill="none" stroke="#1a2833" d="M535.6829,-248.7992C529.7154,-211.6913 514.5971,-124.8142 493.5,-54 492.6743,-51.2284 491.7295,-48.369 490.7291,-45.5301"/>
<polygon fill="#1a2833" stroke="#1a2833" points="493.9885,-44.2535 487.2065,-36.1138 487.4323,-46.7063 493.9885,-44.2535"/>
<text text-anchor="middle" x="543.5" y="-140" font-family="Times,serif" font-size="10.00" fill="#767676">^5.3.2 || ^7.0</text>
</g>
<!-- ext&#45;zlib -->
<g id="node9" class="node">
<title>ext&#45;zlib</title>
<path fill="#eeeeee" stroke="#000000" d="M601.5,-202C601.5,-202 567.5,-202 567.5,-202 561.5,-202 555.5,-196 555.5,-190 555.5,-190 555.5,-178 555.5,-178 555.5,-172 561.5,-166 567.5,-166 567.5,-166 601.5,-166 601.5,-166 607.5,-166 613.5,-172 613.5,-178 613.5,-178 613.5,-190 613.5,-190 613.5,-196 607.5,-202 601.5,-202"/>
<text text-anchor="middle" x="584.5" y="-180.3" font-family="Times,serif" font-size="14.00" fill="#314b5f">ext&#45;zlib</text>
</g>
<!-- jawira/plantuml&#45;encoding&#45;&gt;ext&#45;zlib -->
<g id="edge14" class="edge">
<title>jawira/plantuml&#45;encoding&#45;&gt;ext&#45;zlib</title>
<path fill="none" stroke="#1a2833" d="M548.4813,-248.9902C554.5877,-237.9722 562.5195,-223.6604 569.385,-211.2727"/>
<polygon fill="#1a2833" stroke="#1a2833" points="572.5931,-212.7044 574.3793,-202.2612 566.4705,-209.3112 572.5931,-212.7044"/>
<text text-anchor="middle" x="567.5" y="-223" font-family="Times,serif" font-size="10.00" fill="#767676">*</text>
</g>
<!-- graphp/graph&#45;&gt;php -->
<g id="edge9" class="edge">
<title>graphp/graph&#45;&gt;php</title>
<path fill="none" stroke="#1a2833" d="M349.5195,-82.9902C377.2769,-69.1116 415.4867,-50.0066 443.2914,-36.1043"/>
<polygon fill="#1a2833" stroke="#1a2833" points="444.9127,-39.2068 452.2918,-31.6041 441.7822,-32.9458 444.9127,-39.2068"/>
<text text-anchor="middle" x="428.5" y="-57" font-family="Times,serif" font-size="10.00" fill="#767676">^7.0 || ^5.3</text>
</g>
<!-- graphp/graph&#45;&gt;phpunit/phpunit -->
<g id="edge10" class="edge">
<title>graphp/graph&#45;&gt;phpunit/phpunit</title>
<path fill="none" stroke="#1a2833" stroke-dasharray="5,2" d="M256.6499,-82.9902C214.2546,-69.5597 156.41,-51.2349 112.9494,-37.4668"/>
<polygon fill="#1a2833" stroke="#1a2833" points="113.9385,-34.1088 103.3484,-34.4252 111.8244,-40.7819 113.9385,-34.1088"/>
<text text-anchor="middle" x="240" y="-57" font-family="Times,serif" font-size="10.00" fill="#767676">^9.3 || ^5.7 || ^4.8.35</text>
</g>
</g>
</svg>
