<?xml version="1.0" encoding="UTF-8" standalone="no"?>
<!DOCTYPE svg PUBLIC "-//W3C//DTD SVG 1.1//EN"
 "http://www.w3.org/Graphics/SVG/1.1/DTD/svg11.dtd">
<!-- Generated by graphviz version 2.40.1 (20161225.0304)
 -->
<!-- Title: %3 Pages: 1 -->
<svg width="763pt" height="376pt"
 viewBox="0.00 0.00 762.50 376.00" xmlns="http://www.w3.org/2000/svg" xmlns:xlink="http://www.w3.org/1999/xlink">
<g id="graph0" class="graph" transform="scale(1 1) rotate(0) translate(4 372)">
<title>%3</title>
<polygon fill="#ffffff" stroke="transparent" points="-4,4 -4,-372 758.5,-372 758.5,4 -4,4"/>
<!-- bartlett/graph&#45;plantuml&#45;generator -->
<g id="node1" class="node">
<title>bartlett/graph&#45;plantuml&#45;generator</title>
<ellipse fill="#d3d3d3" stroke="#000000" stroke-width="2" cx="320" cy="-350" rx="128.8774" ry="18"/>
<text text-anchor="middle" x="320" y="-346.3" font-family="Times,serif" font-size="14.00" fill="#000000">bartlett/graph&#45;plantuml&#45;generator</text>
</g>
<!-- php -->
<g id="node2" class="node">
<title>php</title>
<path fill="#eeeeee" stroke="#000000" d="M226,-36C226,-36 196,-36 196,-36 190,-36 184,-30 184,-24 184,-24 184,-12 184,-12 184,-6 190,0 196,0 196,0 226,0 226,0 232,0 238,-6 238,-12 238,-12 238,-24 238,-24 238,-30 232,-36 226,-36"/>
<text text-anchor="middle" x="211" y="-14.3" font-family="Times,serif" font-size="14.00" fill="#314b5f">php</text>
</g>
<!-- bartlett/graph&#45;plantuml&#45;generator&#45;&gt;php -->
<g id="edge1" class="edge">
<title>bartlett/graph&#45;plantuml&#45;generator&#45;&gt;php</title>
<path fill="none" stroke="#1a2833" d="M205.3765,-341.7294C113.5559,-331.8399 0,-310.7628 0,-267 0,-267 0,-267 0,-101 0,-64.0676 113.3638,-36.6838 173.9031,-24.6932"/>
<polygon fill="#1a2833" stroke="#1a2833" points="174.695,-28.105 183.8474,-22.7679 173.3644,-21.2326 174.695,-28.105"/>
<text text-anchor="middle" x="22.5" y="-181.5" font-family="Times,serif" font-size="10.00" fill="#767676">^7.1.3|^8.0</text>
</g>
<!-- bartlett/graph&#45;uml -->
<g id="node3" class="node">
<title>bartlett/graph&#45;uml</title>
<path fill="#eeeeee" stroke="#000000" d="M383.5,-285C383.5,-285 256.5,-285 256.5,-285 250.5,-285 244.5,-279 244.5,-273 244.5,-273 244.5,-261 244.5,-261 244.5,-255 250.5,-249 256.5,-249 256.5,-249 383.5,-249 383.5,-249 389.5,-249 395.5,-255 395.5,-261 395.5,-261 395.5,-273 395.5,-273 395.5,-279 389.5,-285 383.5,-285"/>
<text text-anchor="middle" x="320" y="-263.3" font-family="Times,serif" font-size="14.00" fill="#314b5f">bartlett/graph&#45;uml: 1.2.1</text>
</g>
<!-- bartlett/graph&#45;plantuml&#45;generator&#45;&gt;bartlett/graph&#45;uml -->
<g id="edge11" class="edge">
<title>bartlett/graph&#45;plantuml&#45;generator&#45;&gt;bartlett/graph&#45;uml</title>
<path fill="none" stroke="#1a2833" d="M320,-331.9902C320,-321.2963 320,-307.4994 320,-295.3706"/>
<polygon fill="#1a2833" stroke="#1a2833" points="323.5001,-295.2612 320,-285.2612 316.5001,-295.2613 323.5001,-295.2612"/>
<text text-anchor="middle" x="329" y="-306" font-family="Times,serif" font-size="10.00" fill="#767676">^1.1</text>
</g>
<!-- jawira/plantuml&#45;encoding -->
<g id="node8" class="node">
<title>jawira/plantuml&#45;encoding</title>
<path fill="#eeeeee" stroke="#000000" d="M742.5,-285C742.5,-285 567.5,-285 567.5,-285 561.5,-285 555.5,-279 555.5,-273 555.5,-273 555.5,-261 555.5,-261 555.5,-255 561.5,-249 567.5,-249 567.5,-249 742.5,-249 742.5,-249 748.5,-249 754.5,-255 754.5,-261 754.5,-261 754.5,-273 754.5,-273 754.5,-279 748.5,-285 742.5,-285"/>
<text text-anchor="middle" x="655" y="-263.3" font-family="Times,serif" font-size="14.00" fill="#314b5f">jawira/plantuml&#45;encoding: v1.0.9</text>
</g>
<!-- bartlett/graph&#45;plantuml&#45;generator&#45;&gt;jawira/plantuml&#45;encoding -->
<g id="edge14" class="edge">
<title>bartlett/graph&#45;plantuml&#45;generator&#45;&gt;jawira/plantuml&#45;encoding</title>
<path fill="none" stroke="#1a2833" d="M383.4048,-334.2908C436.93,-321.0293 513.951,-301.9465 572.3118,-287.4869"/>
<polygon fill="#1a2833" stroke="#1a2833" points="573.3803,-290.8281 582.2451,-285.0258 571.6968,-284.0335 573.3803,-290.8281"/>
<text text-anchor="middle" x="517" y="-306" font-family="Times,serif" font-size="10.00" fill="#767676">^1.0</text>
</g>
<!-- bartlett/graph&#45;uml&#45;&gt;php -->
<g id="edge10" class="edge">
<title>bartlett/graph&#45;uml&#45;&gt;php</title>
<path fill="none" stroke="#1a2833" d="M244.3714,-255.416C185.4282,-244.6606 110.5661,-226.5989 92,-202 49.5364,-145.7387 99.8922,-104.5659 149,-54 156.3492,-46.4326 165.6274,-39.9302 174.752,-34.6169"/>
<polygon fill="#1a2833" stroke="#1a2833" points="176.6488,-37.5691 183.7483,-29.7047 173.2941,-31.4253 176.6488,-37.5691"/>
<text text-anchor="middle" x="103.5" y="-140" font-family="Times,serif" font-size="10.00" fill="#767676">^7.1.3|^8.0</text>
</g>
<!-- cweagans/composer&#45;patches -->
<g id="node4" class="node">
<title>cweagans/composer&#45;patches</title>
<path fill="#eeeeee" stroke="#000000" d="M309,-202C309,-202 113,-202 113,-202 107,-202 101,-196 101,-190 101,-190 101,-178 101,-178 101,-172 107,-166 113,-166 113,-166 309,-166 309,-166 315,-166 321,-172 321,-178 321,-178 321,-190 321,-190 321,-196 315,-202 309,-202"/>
<text text-anchor="middle" x="211" y="-180.3" font-family="Times,serif" font-size="14.00" fill="#314b5f">cweagans/composer&#45;patches: 1.x&#45;dev</text>
</g>
<!-- bartlett/graph&#45;uml&#45;&gt;cweagans/composer&#45;patches -->
<g id="edge4" class="edge">
<title>bartlett/graph&#45;uml&#45;&gt;cweagans/composer&#45;patches</title>
<path fill="none" stroke="#1a2833" d="M296.3486,-248.9902C280.7443,-237.1081 260.1093,-221.3951 243.0381,-208.396"/>
<polygon fill="#1a2833" stroke="#1a2833" points="245.058,-205.5349 234.9816,-202.2612 240.8172,-211.1041 245.058,-205.5349"/>
<text text-anchor="middle" x="282" y="-223" font-family="Times,serif" font-size="10.00" fill="#767676">^1.7</text>
</g>
<!-- graphp/graph -->
<g id="node6" class="node">
<title>graphp/graph</title>
<path fill="#eeeeee" stroke="#000000" d="M477.5,-119C477.5,-119 344.5,-119 344.5,-119 338.5,-119 332.5,-113 332.5,-107 332.5,-107 332.5,-95 332.5,-95 332.5,-89 338.5,-83 344.5,-83 344.5,-83 477.5,-83 477.5,-83 483.5,-83 489.5,-89 489.5,-95 489.5,-95 489.5,-107 489.5,-107 489.5,-113 483.5,-119 477.5,-119"/>
<text text-anchor="middle" x="411" y="-97.3" font-family="Times,serif" font-size="14.00" fill="#314b5f">graphp/graph: dev&#45;master</text>
</g>
<!-- bartlett/graph&#45;uml&#45;&gt;graphp/graph -->
<g id="edge6" class="edge">
<title>bartlett/graph&#45;uml&#45;&gt;graphp/graph</title>
<path fill="none" stroke="#1a2833" d="M327.2025,-248.6403C335.5532,-228.0234 350.206,-193.8128 366,-166 373.4532,-152.8752 382.8068,-139.0321 391.0528,-127.5097"/>
<polygon fill="#1a2833" stroke="#1a2833" points="394.0437,-129.3477 397.0929,-119.2011 388.3817,-125.2316 394.0437,-129.3477"/>
<text text-anchor="middle" x="405" y="-181.5" font-family="Times,serif" font-size="10.00" fill="#767676">dev&#45;master as 1.0.0</text>
</g>
<!-- graphp/graphviz -->
<g id="node7" class="node">
<title>graphp/graphviz</title>
<path fill="#eeeeee" stroke="#000000" d="M614.5,-202C614.5,-202 465.5,-202 465.5,-202 459.5,-202 453.5,-196 453.5,-190 453.5,-190 453.5,-178 453.5,-178 453.5,-172 459.5,-166 465.5,-166 465.5,-166 614.5,-166 614.5,-166 620.5,-166 626.5,-172 626.5,-178 626.5,-178 626.5,-190 626.5,-190 626.5,-196 620.5,-202 614.5,-202"/>
<text text-anchor="middle" x="540" y="-180.3" font-family="Times,serif" font-size="14.00" fill="#314b5f">graphp/graphviz: dev&#45;master</text>
</g>
<!-- bartlett/graph&#45;uml&#45;&gt;graphp/graphviz -->
<g id="edge9" class="edge">
<title>bartlett/graph&#45;uml&#45;&gt;graphp/graphviz</title>
<path fill="none" stroke="#1a2833" d="M367.7367,-248.9902C401.3514,-236.3083 446.5326,-219.2627 482.19,-205.8102"/>
<polygon fill="#1a2833" stroke="#1a2833" points="483.8563,-208.9224 491.9771,-202.1177 481.3853,-202.373 483.8563,-208.9224"/>
<text text-anchor="middle" x="483" y="-223" font-family="Times,serif" font-size="10.00" fill="#767676">dev&#45;master as 1.0.0</text>
</g>
<!-- cweagans/composer&#45;patches&#45;&gt;php -->
<g id="edge3" class="edge">
<title>cweagans/composer&#45;patches&#45;&gt;php</title>
<path fill="none" stroke="#1a2833" d="M182.4074,-165.7362C167.3319,-154.3354 150.2856,-138.1884 142,-119 135.6572,-104.3109 135.6572,-97.6891 142,-83 149.0777,-66.6091 162.5477,-52.4375 175.7213,-41.5476"/>
<polygon fill="#1a2833" stroke="#1a2833" points="178.1107,-44.122 183.8257,-35.2007 173.7946,-38.6109 178.1107,-44.122"/>
<text text-anchor="middle" x="158.5" y="-98.5" font-family="Times,serif" font-size="10.00" fill="#767676">&gt;=5.3.0</text>
</g>
<!-- composer&#45;plugin&#45;api -->
<g id="node5" class="node">
<title>composer&#45;plugin&#45;api</title>
<path fill="#eeeeee" stroke="#000000" d="M302,-119C302,-119 196,-119 196,-119 190,-119 184,-113 184,-107 184,-107 184,-95 184,-95 184,-89 190,-83 196,-83 196,-83 302,-83 302,-83 308,-83 314,-89 314,-95 314,-95 314,-107 314,-107 314,-113 308,-119 302,-119"/>
<text text-anchor="middle" x="249" y="-97.3" font-family="Times,serif" font-size="14.00" fill="#314b5f">composer&#45;plugin&#45;api</text>
</g>
<!-- cweagans/composer&#45;patches&#45;&gt;composer&#45;plugin&#45;api -->
<g id="edge2" class="edge">
<title>cweagans/composer&#45;patches&#45;&gt;composer&#45;plugin&#45;api</title>
<path fill="none" stroke="#1a2833" d="M219.2454,-165.9902C224.2404,-155.0802 230.7139,-140.9407 236.3466,-128.6376"/>
<polygon fill="#1a2833" stroke="#1a2833" points="239.6589,-129.8106 240.6394,-119.2612 233.2943,-126.8966 239.6589,-129.8106"/>
<text text-anchor="middle" x="255" y="-140" font-family="Times,serif" font-size="10.00" fill="#767676">^1.0 || ^2.0</text>
</g>
<!-- graphp/graph&#45;&gt;php -->
<g id="edge5" class="edge">
<title>graphp/graph&#45;&gt;php</title>
<path fill="none" stroke="#1a2833" d="M367.603,-82.9902C331.7375,-68.106 281.3877,-47.2109 247.5506,-33.1685"/>
<polygon fill="#1a2833" stroke="#1a2833" points="248.6206,-29.8232 238.0427,-29.2227 245.9374,-36.2885 248.6206,-29.8232"/>
<text text-anchor="middle" x="335.5" y="-57" font-family="Times,serif" font-size="10.00" fill="#767676">&gt;=5.3</text>
</g>
<!-- graphp/graphviz&#45;&gt;php -->
<g id="edge8" class="edge">
<title>graphp/graphviz&#45;&gt;php</title>
<path fill="none" stroke="#1a2833" d="M537.9276,-165.7087C534.2504,-142.476 524.2984,-103.0063 498,-83 458.9386,-53.2843 316.8435,-31.5593 248.3787,-22.5693"/>
<polygon fill="#1a2833" stroke="#1a2833" points="248.8067,-19.0956 238.4408,-21.2861 247.9103,-26.038 248.8067,-19.0956"/>
<text text-anchor="middle" x="541.5" y="-98.5" font-family="Times,serif" font-size="10.00" fill="#767676">&gt;=5.3.0</text>
</g>
<!-- graphp/graphviz&#45;&gt;graphp/graph -->
<g id="edge7" class="edge">
<title>graphp/graphviz&#45;&gt;graphp/graph</title>
<path fill="none" stroke="#1a2833" d="M453.2279,-168.087C433.7799,-162.7168 417.0805,-156.0098 411,-148 406.9851,-142.7113 405.5227,-136.0359 405.3957,-129.3897"/>
<polygon fill="#1a2833" stroke="#1a2833" points="408.9039,-129.3959 406.1203,-119.1733 401.9215,-128.9006 408.9039,-129.3959"/>
<text text-anchor="middle" x="469" y="-140" font-family="Times,serif" font-size="10.00" fill="#767676">dev&#45;master#81eef65 as 1.0.0</text>
</g>
<!-- jawira/plantuml&#45;encoding&#45;&gt;php -->
<g id="edge13" class="edge">
<title>jawira/plantuml&#45;encoding&#45;&gt;php</title>
<path fill="none" stroke="#1a2833" d="M654.2461,-248.9476C652.75,-228.0111 648.2898,-192.9296 635,-166 613.2591,-121.9459 603.6689,-109.0218 562,-83 509.8066,-50.4058 327.3774,-29.2664 248.172,-21.4236"/>
<polygon fill="#1a2833" stroke="#1a2833" points="248.441,-17.9333 238.1488,-20.4478 247.7626,-24.9004 248.441,-17.9333"/>
<text text-anchor="middle" x="638.5" y="-140" font-family="Times,serif" font-size="10.00" fill="#767676">&gt;=5.3</text>
</g>
<!-- ext&#45;zlib -->
<g id="node9" class="node">
<title>ext&#45;zlib</title>
<path fill="#eeeeee" stroke="#000000" d="M729,-202C729,-202 695,-202 695,-202 689,-202 683,-196 683,-190 683,-190 683,-178 683,-178 683,-172 689,-166 695,-166 695,-166 729,-166 729,-166 735,-166 741,-172 741,-178 741,-178 741,-190 741,-190 741,-196 735,-202 729,-202"/>
<text text-anchor="middle" x="712" y="-180.3" font-family="Times,serif" font-size="14.00" fill="#314b5f">ext&#45;zlib</text>
</g>
<!-- jawira/plantuml&#45;encoding&#45;&gt;ext&#45;zlib -->
<g id="edge12" class="edge">
<title>jawira/plantuml&#45;encoding&#45;&gt;ext&#45;zlib</title>
<path fill="none" stroke="#1a2833" d="M667.3682,-248.9902C675.0831,-237.7562 685.1497,-223.0979 693.7694,-210.5463"/>
<polygon fill="#1a2833" stroke="#1a2833" points="696.6832,-212.486 699.4591,-202.2612 690.9129,-208.5232 696.6832,-212.486"/>
<text text-anchor="middle" x="690" y="-223" font-family="Times,serif" font-size="10.00" fill="#767676">*</text>
</g>
</g>
</svg>
