<?xml version="1.0" encoding="UTF-8" standalone="no"?>
<!DOCTYPE svg PUBLIC "-//W3C//DTD SVG 1.1//EN"
 "http://www.w3.org/Graphics/SVG/1.1/DTD/svg11.dtd">
<!-- Generated by graphviz version 2.40.1 (20161225.0304)
 -->
<!-- Title: %3 Pages: 1 -->
<svg width="803pt" height="376pt"
 viewBox="0.00 0.00 802.50 376.00" xmlns="http://www.w3.org/2000/svg" xmlns:xlink="http://www.w3.org/1999/xlink">
<g id="graph0" class="graph" transform="scale(1 1) rotate(0) translate(4 372)">
<title>%3</title>
<polygon fill="#ffffff" stroke="transparent" points="-4,4 -4,-372 798.5,-372 798.5,4 -4,4"/>
<!-- bartlett/graph&#45;plantuml&#45;generator -->
<g id="node1" class="node">
<title>bartlett/graph&#45;plantuml&#45;generator</title>
<ellipse fill="#d3d3d3" stroke="#000000" stroke-width="2" cx="319" cy="-350" rx="128.8774" ry="18"/>
<text text-anchor="middle" x="319" y="-346.3" font-family="Times,serif" font-size="14.00" fill="#000000">bartlett/graph&#45;plantuml&#45;generator</text>
</g>
<!-- php -->
<g id="node2" class="node">
<title>php</title>
<path fill="#eeeeee" stroke="#000000" d="M246,-36C246,-36 216,-36 216,-36 210,-36 204,-30 204,-24 204,-24 204,-12 204,-12 204,-6 210,0 216,0 216,0 246,0 246,0 252,0 258,-6 258,-12 258,-12 258,-24 258,-24 258,-30 252,-36 246,-36"/>
<text text-anchor="middle" x="231" y="-14.3" font-family="Times,serif" font-size="14.00" fill="#314b5f">php</text>
</g>
<!-- bartlett/graph&#45;plantuml&#45;generator&#45;&gt;php -->
<g id="edge1" class="edge">
<title>bartlett/graph&#45;plantuml&#45;generator&#45;&gt;php</title>
<path fill="none" stroke="#1a2833" d="M204.7347,-341.6666C113.201,-331.7363 0,-310.6347 0,-267 0,-267 0,-267 0,-101 0,-60.3474 128.3089,-34.188 193.6733,-23.4992"/>
<polygon fill="#1a2833" stroke="#1a2833" points="194.2703,-26.9483 203.5941,-21.9167 193.1676,-20.0357 194.2703,-26.9483"/>
<text text-anchor="middle" x="22" y="-181.5" font-family="Times,serif" font-size="10.00" fill="#767676">^7.4 || ^8.0</text>
</g>
<!-- bartlett/graph&#45;uml -->
<g id="node3" class="node">
<title>bartlett/graph&#45;uml</title>
<path fill="#eeeeee" stroke="#000000" d="M399,-285C399,-285 239,-285 239,-285 233,-285 227,-279 227,-273 227,-273 227,-261 227,-261 227,-255 233,-249 239,-249 239,-249 399,-249 399,-249 405,-249 411,-255 411,-261 411,-261 411,-273 411,-273 411,-279 405,-285 399,-285"/>
<text text-anchor="middle" x="319" y="-263.3" font-family="Times,serif" font-size="14.00" fill="#314b5f">bartlett/graph&#45;uml: dev&#45;master</text>
</g>
<!-- bartlett/graph&#45;plantuml&#45;generator&#45;&gt;bartlett/graph&#45;uml -->
<g id="edge11" class="edge">
<title>bartlett/graph&#45;plantuml&#45;generator&#45;&gt;bartlett/graph&#45;uml</title>
<path fill="none" stroke="#1a2833" d="M319,-331.9902C319,-321.2963 319,-307.4994 319,-295.3706"/>
<polygon fill="#1a2833" stroke="#1a2833" points="322.5001,-295.2612 319,-285.2612 315.5001,-295.2613 322.5001,-295.2612"/>
<text text-anchor="middle" x="328" y="-306" font-family="Times,serif" font-size="10.00" fill="#767676">^1.3</text>
</g>
<!-- jawira/plantuml&#45;encoding -->
<g id="node8" class="node">
<title>jawira/plantuml&#45;encoding</title>
<path fill="#eeeeee" stroke="#000000" d="M782.5,-285C782.5,-285 607.5,-285 607.5,-285 601.5,-285 595.5,-279 595.5,-273 595.5,-273 595.5,-261 595.5,-261 595.5,-255 601.5,-249 607.5,-249 607.5,-249 782.5,-249 782.5,-249 788.5,-249 794.5,-255 794.5,-261 794.5,-261 794.5,-273 794.5,-273 794.5,-279 788.5,-285 782.5,-285"/>
<text text-anchor="middle" x="695" y="-263.3" font-family="Times,serif" font-size="14.00" fill="#314b5f">jawira/plantuml&#45;encoding: v1.1.0</text>
</g>
<!-- bartlett/graph&#45;plantuml&#45;generator&#45;&gt;jawira/plantuml&#45;encoding -->
<g id="edge14" class="edge">
<title>bartlett/graph&#45;plantuml&#45;generator&#45;&gt;jawira/plantuml&#45;encoding</title>
<path fill="none" stroke="#1a2833" d="M387.9642,-334.7765C448.461,-321.4222 536.8943,-301.901 603.3334,-287.2349"/>
<polygon fill="#1a2833" stroke="#1a2833" points="604.3742,-290.5895 613.3846,-285.0162 602.8653,-283.7541 604.3742,-290.5895"/>
<text text-anchor="middle" x="539" y="-306" font-family="Times,serif" font-size="10.00" fill="#767676">^1.0</text>
</g>
<!-- bartlett/graph&#45;uml&#45;&gt;php -->
<g id="edge10" class="edge">
<title>bartlett/graph&#45;uml&#45;&gt;php</title>
<path fill="none" stroke="#1a2833" d="M226.7883,-252.2691C171.1552,-241.2887 107.8614,-224.3402 91,-202 49.4609,-146.9635 124.6594,-94.8354 169,-54 176.6908,-46.9172 186.0098,-40.6065 195.0604,-35.3238"/>
<polygon fill="#1a2833" stroke="#1a2833" points="196.9036,-38.3039 203.9514,-30.3932 193.5087,-32.1822 196.9036,-38.3039"/>
<text text-anchor="middle" x="114" y="-140" font-family="Times,serif" font-size="10.00" fill="#767676">^7.4.0 || ^8.0</text>
</g>
<!-- cweagans/composer&#45;patches -->
<g id="node4" class="node">
<title>cweagans/composer&#45;patches</title>
<path fill="#eeeeee" stroke="#000000" d="M308,-202C308,-202 112,-202 112,-202 106,-202 100,-196 100,-190 100,-190 100,-178 100,-178 100,-172 106,-166 112,-166 112,-166 308,-166 308,-166 314,-166 320,-172 320,-178 320,-178 320,-190 320,-190 320,-196 314,-202 308,-202"/>
<text text-anchor="middle" x="210" y="-180.3" font-family="Times,serif" font-size="14.00" fill="#314b5f">cweagans/composer&#45;patches: 1.x&#45;dev</text>
</g>
<!-- bartlett/graph&#45;uml&#45;&gt;cweagans/composer&#45;patches -->
<g id="edge4" class="edge">
<title>bartlett/graph&#45;uml&#45;&gt;cweagans/composer&#45;patches</title>
<path fill="none" stroke="#1a2833" d="M295.3486,-248.9902C279.7443,-237.1081 259.1093,-221.3951 242.0381,-208.396"/>
<polygon fill="#1a2833" stroke="#1a2833" points="244.058,-205.5349 233.9816,-202.2612 239.8172,-211.1041 244.058,-205.5349"/>
<text text-anchor="middle" x="281" y="-223" font-family="Times,serif" font-size="10.00" fill="#767676">^1.7</text>
</g>
<!-- graphp/graph -->
<g id="node6" class="node">
<title>graphp/graph</title>
<path fill="#eeeeee" stroke="#000000" d="M497.5,-119C497.5,-119 364.5,-119 364.5,-119 358.5,-119 352.5,-113 352.5,-107 352.5,-107 352.5,-95 352.5,-95 352.5,-89 358.5,-83 364.5,-83 364.5,-83 497.5,-83 497.5,-83 503.5,-83 509.5,-89 509.5,-95 509.5,-95 509.5,-107 509.5,-107 509.5,-113 503.5,-119 497.5,-119"/>
<text text-anchor="middle" x="431" y="-97.3" font-family="Times,serif" font-size="14.00" fill="#314b5f">graphp/graph: dev&#45;master</text>
</g>
<!-- bartlett/graph&#45;uml&#45;&gt;graphp/graph -->
<g id="edge6" class="edge">
<title>bartlett/graph&#45;uml&#45;&gt;graphp/graph</title>
<path fill="none" stroke="#1a2833" d="M324.9942,-248.8053C332.4371,-227.7351 346.4511,-192.528 365,-166 375.13,-151.5124 388.7291,-137.4822 400.9505,-126.1878"/>
<polygon fill="#1a2833" stroke="#1a2833" points="403.6412,-128.4748 408.7324,-119.1834 398.9582,-123.272 403.6412,-128.4748"/>
<text text-anchor="middle" x="424.5" y="-181.5" font-family="Times,serif" font-size="10.00" fill="#767676">dev&#45;master#04461a7 as 1.0.0</text>
</g>
<!-- graphp/graphviz -->
<g id="node7" class="node">
<title>graphp/graphviz</title>
<path fill="#eeeeee" stroke="#000000" d="M654.5,-202C654.5,-202 505.5,-202 505.5,-202 499.5,-202 493.5,-196 493.5,-190 493.5,-190 493.5,-178 493.5,-178 493.5,-172 499.5,-166 505.5,-166 505.5,-166 654.5,-166 654.5,-166 660.5,-166 666.5,-172 666.5,-178 666.5,-178 666.5,-190 666.5,-190 666.5,-196 660.5,-202 654.5,-202"/>
<text text-anchor="middle" x="580" y="-180.3" font-family="Times,serif" font-size="14.00" fill="#314b5f">graphp/graphviz: dev&#45;master</text>
</g>
<!-- bartlett/graph&#45;uml&#45;&gt;graphp/graphviz -->
<g id="edge9" class="edge">
<title>bartlett/graph&#45;uml&#45;&gt;graphp/graphviz</title>
<path fill="none" stroke="#1a2833" d="M375.6331,-248.9902C416.1088,-236.1187 470.7203,-218.7518 513.3068,-205.209"/>
<polygon fill="#1a2833" stroke="#1a2833" points="514.5583,-208.4838 523.0273,-202.1177 512.4369,-201.8129 514.5583,-208.4838"/>
<text text-anchor="middle" x="525.5" y="-223" font-family="Times,serif" font-size="10.00" fill="#767676">dev&#45;master#42a2098 as 1.0.0</text>
</g>
<!-- cweagans/composer&#45;patches&#45;&gt;php -->
<g id="edge3" class="edge">
<title>cweagans/composer&#45;patches&#45;&gt;php</title>
<path fill="none" stroke="#1a2833" d="M191.3026,-165.9347C172.9121,-145.8653 149.3011,-112.4088 162,-83 169.0777,-66.6091 182.5477,-52.4375 195.7213,-41.5476"/>
<polygon fill="#1a2833" stroke="#1a2833" points="198.1107,-44.122 203.8257,-35.2007 193.7946,-38.6109 198.1107,-44.122"/>
<text text-anchor="middle" x="178.5" y="-98.5" font-family="Times,serif" font-size="10.00" fill="#767676">&gt;=5.3.0</text>
</g>
<!-- composer&#45;plugin&#45;api -->
<g id="node5" class="node">
<title>composer&#45;plugin&#45;api</title>
<path fill="#eeeeee" stroke="#000000" d="M322,-119C322,-119 216,-119 216,-119 210,-119 204,-113 204,-107 204,-107 204,-95 204,-95 204,-89 210,-83 216,-83 216,-83 322,-83 322,-83 328,-83 334,-89 334,-95 334,-95 334,-107 334,-107 334,-113 328,-119 322,-119"/>
<text text-anchor="middle" x="269" y="-97.3" font-family="Times,serif" font-size="14.00" fill="#314b5f">composer&#45;plugin&#45;api</text>
</g>
<!-- cweagans/composer&#45;patches&#45;&gt;composer&#45;plugin&#45;api -->
<g id="edge2" class="edge">
<title>cweagans/composer&#45;patches&#45;&gt;composer&#45;plugin&#45;api</title>
<path fill="none" stroke="#1a2833" d="M222.8021,-165.9902C230.7878,-154.7562 241.2075,-140.0979 250.1298,-127.5463"/>
<polygon fill="#1a2833" stroke="#1a2833" points="253.078,-129.4397 256.0191,-119.2612 247.3726,-125.384 253.078,-129.4397"/>
<text text-anchor="middle" x="266" y="-140" font-family="Times,serif" font-size="10.00" fill="#767676">^1.0 || ^2.0</text>
</g>
<!-- graphp/graph&#45;&gt;php -->
<g id="edge5" class="edge">
<title>graphp/graph&#45;&gt;php</title>
<path fill="none" stroke="#1a2833" d="M387.603,-82.9902C351.7375,-68.106 301.3877,-47.2109 267.5506,-33.1685"/>
<polygon fill="#1a2833" stroke="#1a2833" points="268.6206,-29.8232 258.0427,-29.2227 265.9374,-36.2885 268.6206,-29.8232"/>
<text text-anchor="middle" x="355.5" y="-57" font-family="Times,serif" font-size="10.00" fill="#767676">&gt;=5.3</text>
</g>
<!-- graphp/graphviz&#45;&gt;php -->
<g id="edge8" class="edge">
<title>graphp/graphviz&#45;&gt;php</title>
<path fill="none" stroke="#1a2833" d="M574.3992,-165.9187C566.1301,-142.5324 548.2735,-102.4925 518,-83 476.8191,-56.4845 336.3224,-33.2245 268.3856,-23.2182"/>
<polygon fill="#1a2833" stroke="#1a2833" points="268.531,-19.7026 258.1315,-21.7276 267.524,-26.6298 268.531,-19.7026"/>
<text text-anchor="middle" x="568.5" y="-98.5" font-family="Times,serif" font-size="10.00" fill="#767676">&gt;=5.3.0</text>
</g>
<!-- graphp/graphviz&#45;&gt;graphp/graph -->
<g id="edge7" class="edge">
<title>graphp/graphviz&#45;&gt;graphp/graph</title>
<path fill="none" stroke="#1a2833" d="M493.214,-169.5027C469.5455,-163.886 448.1618,-156.6884 440,-148 435.1846,-142.8738 432.5697,-135.9983 431.2267,-129.091"/>
<polygon fill="#1a2833" stroke="#1a2833" points="434.7017,-128.6726 430.0608,-119.1483 427.7493,-129.4879 434.7017,-128.6726"/>
<text text-anchor="middle" x="499.5" y="-140" font-family="Times,serif" font-size="10.00" fill="#767676">dev&#45;master#214de45 as 1.0.0</text>
</g>
<!-- jawira/plantuml&#45;encoding&#45;&gt;php -->
<g id="edge13" class="edge">
<title>jawira/plantuml&#45;encoding&#45;&gt;php</title>
<path fill="none" stroke="#1a2833" d="M694.6323,-248.7471C693.4991,-227.6222 689.3794,-192.3639 675,-166 649.5647,-119.3655 635.5317,-108.6228 589,-83 533.9912,-52.7093 348.4858,-30.262 268.3658,-21.7459"/>
<polygon fill="#1a2833" stroke="#1a2833" points="268.5432,-18.2454 258.2328,-20.6837 267.8133,-25.2073 268.5432,-18.2454"/>
<text text-anchor="middle" x="677.5" y="-140" font-family="Times,serif" font-size="10.00" fill="#767676">&gt;=7.0</text>
</g>
<!-- ext&#45;zlib -->
<g id="node9" class="node">
<title>ext&#45;zlib</title>
<path fill="#eeeeee" stroke="#000000" d="M769,-202C769,-202 735,-202 735,-202 729,-202 723,-196 723,-190 723,-190 723,-178 723,-178 723,-172 729,-166 735,-166 735,-166 769,-166 769,-166 775,-166 781,-172 781,-178 781,-178 781,-190 781,-190 781,-196 775,-202 769,-202"/>
<text text-anchor="middle" x="752" y="-180.3" font-family="Times,serif" font-size="14.00" fill="#314b5f">ext&#45;zlib</text>
</g>
<!-- jawira/plantuml&#45;encoding&#45;&gt;ext&#45;zlib -->
<g id="edge12" class="edge">
<title>jawira/plantuml&#45;encoding&#45;&gt;ext&#45;zlib</title>
<path fill="none" stroke="#1a2833" d="M707.3682,-248.9902C715.0831,-237.7562 725.1497,-223.0979 733.7694,-210.5463"/>
<polygon fill="#1a2833" stroke="#1a2833" points="736.6832,-212.486 739.4591,-202.2612 730.9129,-208.5232 736.6832,-212.486"/>
<text text-anchor="middle" x="730" y="-223" font-family="Times,serif" font-size="10.00" fill="#767676">*</text>
</g>
</g>
</svg>
