<?xml version="1.0" encoding="UTF-8" standalone="no"?>
<!DOCTYPE svg PUBLIC "-//W3C//DTD SVG 1.1//EN"
 "http://www.w3.org/Graphics/SVG/1.1/DTD/svg11.dtd">
<!-- Generated by graphviz version 2.40.1 (20161225.0304)
 -->
<!-- Title: %3 Pages: 1 -->
<svg width="859pt" height="376pt"
 viewBox="0.00 0.00 859.00 376.00" xmlns="http://www.w3.org/2000/svg" xmlns:xlink="http://www.w3.org/1999/xlink">
<g id="graph0" class="graph" transform="scale(1 1) rotate(0) translate(4 372)">
<title>%3</title>
<polygon fill="#ffffff" stroke="transparent" points="-4,4 -4,-372 855,-372 855,4 -4,4"/>
<!-- bartlett/graph&#45;plantuml&#45;generator -->
<g id="node1" class="node">
<title>bartlett/graph&#45;plantuml&#45;generator</title>
<path fill="#eeeeee" stroke="#000000" stroke-width="2" d="M566,-368C566,-368 392,-368 392,-368 386,-368 380,-362 380,-356 380,-356 380,-344 380,-344 380,-338 386,-332 392,-332 392,-332 566,-332 566,-332 572,-332 578,-338 578,-344 578,-344 578,-356 578,-356 578,-362 572,-368 566,-368"/>
<text text-anchor="middle" x="479" y="-346.3" font-family="Times,serif" font-size="14.00" fill="#314b5f">bartlett/graph&#45;plantuml&#45;generator</text>
</g>
<!-- php -->
<g id="node2" class="node">
<title>php</title>
<path fill="#eeeeee" stroke="#000000" d="M181,-36C181,-36 151,-36 151,-36 145,-36 139,-30 139,-24 139,-24 139,-12 139,-12 139,-6 145,0 151,0 151,0 181,0 181,0 187,0 193,-6 193,-12 193,-12 193,-24 193,-24 193,-30 187,-36 181,-36"/>
<text text-anchor="middle" x="166" y="-14.3" font-family="Times,serif" font-size="14.00" fill="#314b5f">php</text>
</g>
<!-- bartlett/graph&#45;plantuml&#45;generator&#45;&gt;php -->
<g id="edge1" class="edge">
<title>bartlett/graph&#45;plantuml&#45;generator&#45;&gt;php</title>
<path fill="none" stroke="#1a2833" d="M379.7509,-342.6361C239.4488,-330.8684 0,-305.1905 0,-267 0,-267 0,-267 0,-101 0,-43.8148 79.7838,-26.0274 128.7278,-20.4958"/>
<polygon fill="#1a2833" stroke="#1a2833" points="129.3608,-23.9498 138.9598,-19.4653 128.6594,-16.985 129.3608,-23.9498"/>
<text text-anchor="middle" x="23.5" y="-181.5" font-family="Times,serif" font-size="10.00" fill="#767676">^7.1.3||^8.0</text>
</g>
<!-- bartlett/graph&#45;uml -->
<g id="node3" class="node">
<title>bartlett/graph&#45;uml</title>
<path fill="#eeeeee" stroke="#000000" d="M421,-285C421,-285 269,-285 269,-285 263,-285 257,-279 257,-273 257,-273 257,-261 257,-261 257,-255 263,-249 269,-249 269,-249 421,-249 421,-249 427,-249 433,-255 433,-261 433,-261 433,-273 433,-273 433,-279 427,-285 421,-285"/>
<text text-anchor="middle" x="345" y="-263.3" font-family="Times,serif" font-size="14.00" fill="#314b5f">bartlett/graph&#45;uml: 1.0.0&#45;rc.3</text>
</g>
<!-- bartlett/graph&#45;plantuml&#45;generator&#45;&gt;bartlett/graph&#45;uml -->
<g id="edge2" class="edge">
<title>bartlett/graph&#45;plantuml&#45;generator&#45;&gt;bartlett/graph&#45;uml</title>
<path fill="none" stroke="#1a2833" d="M449.924,-331.9902C430.3919,-319.892 404.4483,-303.8225 383.2459,-290.6897"/>
<polygon fill="#1a2833" stroke="#1a2833" points="384.8263,-287.5516 374.482,-285.2612 381.1403,-293.5025 384.8263,-287.5516"/>
<text text-anchor="middle" x="430" y="-306" font-family="Times,serif" font-size="10.00" fill="#767676">^1.0</text>
</g>
<!-- jawira/plantuml&#45;encoding -->
<g id="node4" class="node">
<title>jawira/plantuml&#45;encoding</title>
<path fill="#eeeeee" stroke="#000000" d="M648.5,-285C648.5,-285 473.5,-285 473.5,-285 467.5,-285 461.5,-279 461.5,-273 461.5,-273 461.5,-261 461.5,-261 461.5,-255 467.5,-249 473.5,-249 473.5,-249 648.5,-249 648.5,-249 654.5,-249 660.5,-255 660.5,-261 660.5,-261 660.5,-273 660.5,-273 660.5,-279 654.5,-285 648.5,-285"/>
<text text-anchor="middle" x="561" y="-263.3" font-family="Times,serif" font-size="14.00" fill="#314b5f">jawira/plantuml&#45;encoding: v1.0.9</text>
</g>
<!-- bartlett/graph&#45;plantuml&#45;generator&#45;&gt;jawira/plantuml&#45;encoding -->
<g id="edge3" class="edge">
<title>bartlett/graph&#45;plantuml&#45;generator&#45;&gt;jawira/plantuml&#45;encoding</title>
<path fill="none" stroke="#1a2833" d="M496.7928,-331.9902C508.2116,-320.4321 523.2115,-305.2493 535.8414,-292.4655"/>
<polygon fill="#1a2833" stroke="#1a2833" points="538.4205,-294.8349 542.9588,-285.2612 533.4408,-289.9152 538.4205,-294.8349"/>
<text text-anchor="middle" x="534" y="-306" font-family="Times,serif" font-size="10.00" fill="#767676">^1.0</text>
</g>
<!-- jawira/plantuml -->
<g id="node5" class="node">
<title>jawira/plantuml</title>
<path fill="#eeeeee" stroke="#000000" d="M839,-285C839,-285 691,-285 691,-285 685,-285 679,-279 679,-273 679,-273 679,-261 679,-261 679,-255 685,-249 691,-249 691,-249 839,-249 839,-249 845,-249 851,-255 851,-261 851,-261 851,-273 851,-273 851,-279 845,-285 839,-285"/>
<text text-anchor="middle" x="765" y="-263.3" font-family="Times,serif" font-size="14.00" fill="#314b5f">jawira/plantuml: v1.2021.14</text>
</g>
<!-- bartlett/graph&#45;plantuml&#45;generator&#45;&gt;jawira/plantuml -->
<g id="edge4" class="edge">
<title>bartlett/graph&#45;plantuml&#45;generator&#45;&gt;jawira/plantuml</title>
<path fill="none" stroke="#1a2833" stroke-dasharray="5,2" d="M541.0577,-331.9902C585.6905,-319.0374 646.0094,-301.5322 692.8012,-287.9528"/>
<polygon fill="#1a2833" stroke="#1a2833" points="693.9419,-291.2662 702.5702,-285.1177 691.9909,-284.5436 693.9419,-291.2662"/>
<text text-anchor="middle" x="651.5" y="-306" font-family="Times,serif" font-size="10.00" fill="#767676">^1.28</text>
</g>
<!-- bartlett/graph&#45;uml&#45;&gt;php -->
<g id="edge8" class="edge">
<title>bartlett/graph&#45;uml&#45;&gt;php</title>
<path fill="none" stroke="#1a2833" d="M256.6713,-253.9696C235.0702,-248.6803 212.5591,-241.2925 193,-231 176.0146,-222.0618 173.7998,-216.3024 161,-202 138.5329,-176.8954 118.6027,-170.5182 122,-137 125.7971,-99.5372 123.551,-88.3395 139,-54 140.4544,-50.7672 142.2415,-47.5494 144.1976,-44.4429"/>
<polygon fill="#1a2833" stroke="#1a2833" points="147.189,-46.2714 150.0222,-36.0624 141.441,-42.2764 147.189,-46.2714"/>
<text text-anchor="middle" x="145.5" y="-140" font-family="Times,serif" font-size="10.00" fill="#767676">^7.1.3||^8.0</text>
</g>
<!-- cweagans/composer&#45;patches -->
<g id="node6" class="node">
<title>cweagans/composer&#45;patches</title>
<path fill="#eeeeee" stroke="#000000" d="M729,-119C729,-119 533,-119 533,-119 527,-119 521,-113 521,-107 521,-107 521,-95 521,-95 521,-89 527,-83 533,-83 533,-83 729,-83 729,-83 735,-83 741,-89 741,-95 741,-95 741,-107 741,-107 741,-113 735,-119 729,-119"/>
<text text-anchor="middle" x="631" y="-97.3" font-family="Times,serif" font-size="14.00" fill="#314b5f">cweagans/composer&#45;patches: 1.x&#45;dev</text>
</g>
<!-- bartlett/graph&#45;uml&#45;&gt;cweagans/composer&#45;patches -->
<g id="edge5" class="edge">
<title>bartlett/graph&#45;uml&#45;&gt;cweagans/composer&#45;patches</title>
<path fill="none" stroke="#1a2833" d="M391.0028,-248.9481C402.9849,-243.671 415.6984,-237.5452 427,-231 469.0766,-206.6318 474.1551,-192.3807 515,-166 538.2647,-150.9739 565.1999,-135.7561 587.256,-123.8263"/>
<polygon fill="#1a2833" stroke="#1a2833" points="588.9183,-126.9064 596.0723,-119.0916 585.6064,-120.7394 588.9183,-126.9064"/>
<text text-anchor="middle" x="524" y="-181.5" font-family="Times,serif" font-size="10.00" fill="#767676">^1.7</text>
</g>
<!-- graphp/graph -->
<g id="node7" class="node">
<title>graphp/graph</title>
<path fill="#eeeeee" stroke="#000000" d="M333.5,-119C333.5,-119 200.5,-119 200.5,-119 194.5,-119 188.5,-113 188.5,-107 188.5,-107 188.5,-95 188.5,-95 188.5,-89 194.5,-83 200.5,-83 200.5,-83 333.5,-83 333.5,-83 339.5,-83 345.5,-89 345.5,-95 345.5,-95 345.5,-107 345.5,-107 345.5,-113 339.5,-119 333.5,-119"/>
<text text-anchor="middle" x="267" y="-97.3" font-family="Times,serif" font-size="14.00" fill="#314b5f">graphp/graph: dev&#45;master</text>
</g>
<!-- bartlett/graph&#45;uml&#45;&gt;graphp/graph -->
<g id="edge6" class="edge">
<title>bartlett/graph&#45;uml&#45;&gt;graphp/graph</title>
<path fill="none" stroke="#1a2833" d="M272.5052,-248.8775C230.414,-236.7276 183.3177,-219.7505 171,-202 150.553,-172.5346 185.9834,-143.3245 219.4302,-123.9557"/>
<polygon fill="#1a2833" stroke="#1a2833" points="221.2782,-126.9326 228.3079,-119.0058 217.8694,-120.8187 221.2782,-126.9326"/>
<text text-anchor="middle" x="210" y="-181.5" font-family="Times,serif" font-size="10.00" fill="#767676">dev&#45;master as 1.0.0</text>
</g>
<!-- graphp/graphviz -->
<g id="node8" class="node">
<title>graphp/graphviz</title>
<path fill="#eeeeee" stroke="#000000" d="M419.5,-202C419.5,-202 270.5,-202 270.5,-202 264.5,-202 258.5,-196 258.5,-190 258.5,-190 258.5,-178 258.5,-178 258.5,-172 264.5,-166 270.5,-166 270.5,-166 419.5,-166 419.5,-166 425.5,-166 431.5,-172 431.5,-178 431.5,-178 431.5,-190 431.5,-190 431.5,-196 425.5,-202 419.5,-202"/>
<text text-anchor="middle" x="345" y="-180.3" font-family="Times,serif" font-size="14.00" fill="#314b5f">graphp/graphviz: dev&#45;master</text>
</g>
<!-- bartlett/graph&#45;uml&#45;&gt;graphp/graphviz -->
<g id="edge7" class="edge">
<title>bartlett/graph&#45;uml&#45;&gt;graphp/graphviz</title>
<path fill="none" stroke="#1a2833" d="M345,-248.9902C345,-238.2963 345,-224.4994 345,-212.3706"/>
<polygon fill="#1a2833" stroke="#1a2833" points="348.5001,-212.2612 345,-202.2612 341.5001,-212.2613 348.5001,-212.2612"/>
<text text-anchor="middle" x="384" y="-223" font-family="Times,serif" font-size="10.00" fill="#767676">dev&#45;master as 1.0.0</text>
</g>
<!-- jawira/plantuml&#45;encoding&#45;&gt;php -->
<g id="edge19" class="edge">
<title>jawira/plantuml&#45;encoding&#45;&gt;php</title>
<path fill="none" stroke="#1a2833" d="M553.7149,-248.9433C544.131,-227.0333 525.4704,-190.0473 500,-166 467.4738,-135.2911 446.458,-146.2712 411,-119 379.8361,-95.0315 385.3354,-73.151 351,-54 326.1601,-40.1452 249.7385,-28.5054 203.2501,-22.4619"/>
<polygon fill="#1a2833" stroke="#1a2833" points="203.6134,-18.98 193.2512,-21.1882 202.7287,-25.9239 203.6134,-18.98"/>
<text text-anchor="middle" x="486.5" y="-140" font-family="Times,serif" font-size="10.00" fill="#767676">&gt;=5.3</text>
</g>
<!-- ext&#45;zlib -->
<g id="node12" class="node">
<title>ext&#45;zlib</title>
<path fill="#eeeeee" stroke="#000000" d="M588,-202C588,-202 554,-202 554,-202 548,-202 542,-196 542,-190 542,-190 542,-178 542,-178 542,-172 548,-166 554,-166 554,-166 588,-166 588,-166 594,-166 600,-172 600,-178 600,-178 600,-190 600,-190 600,-196 594,-202 588,-202"/>
<text text-anchor="middle" x="571" y="-180.3" font-family="Times,serif" font-size="14.00" fill="#314b5f">ext&#45;zlib</text>
</g>
<!-- jawira/plantuml&#45;encoding&#45;&gt;ext&#45;zlib -->
<g id="edge18" class="edge">
<title>jawira/plantuml&#45;encoding&#45;&gt;ext&#45;zlib</title>
<path fill="none" stroke="#1a2833" d="M563.1699,-248.9902C564.4583,-238.2963 566.1206,-224.4994 567.5819,-212.3706"/>
<polygon fill="#1a2833" stroke="#1a2833" points="571.0785,-212.6081 568.7999,-202.2612 564.1287,-211.7708 571.0785,-212.6081"/>
<text text-anchor="middle" x="570" y="-223" font-family="Times,serif" font-size="10.00" fill="#767676">*</text>
</g>
<!-- phpstan/phpstan -->
<g id="node13" class="node">
<title>phpstan/phpstan</title>
<path fill="#eeeeee" stroke="#000000" d="M710,-202C710,-202 630,-202 630,-202 624,-202 618,-196 618,-190 618,-190 618,-178 618,-178 618,-172 624,-166 630,-166 630,-166 710,-166 710,-166 716,-166 722,-172 722,-178 722,-178 722,-190 722,-190 722,-196 716,-202 710,-202"/>
<text text-anchor="middle" x="670" y="-180.3" font-family="Times,serif" font-size="14.00" fill="#314b5f">phpstan/phpstan</text>
</g>
<!-- jawira/plantuml&#45;encoding&#45;&gt;phpstan/phpstan -->
<g id="edge20" class="edge">
<title>jawira/plantuml&#45;encoding&#45;&gt;phpstan/phpstan</title>
<path fill="none" stroke="#1a2833" stroke-dasharray="5,2" d="M584.6514,-248.9902C600.2557,-237.1081 620.8907,-221.3951 637.9619,-208.396"/>
<polygon fill="#1a2833" stroke="#1a2833" points="640.1828,-211.1041 646.0184,-202.2612 635.942,-205.5349 640.1828,-211.1041"/>
<text text-anchor="middle" x="632" y="-223" font-family="Times,serif" font-size="10.00" fill="#767676">^1.0</text>
</g>
<!-- vimeo/psalm -->
<g id="node14" class="node">
<title>vimeo/psalm</title>
<path fill="#eeeeee" stroke="#000000" d="M816,-202C816,-202 752,-202 752,-202 746,-202 740,-196 740,-190 740,-190 740,-178 740,-178 740,-172 746,-166 752,-166 752,-166 816,-166 816,-166 822,-166 828,-172 828,-178 828,-178 828,-190 828,-190 828,-196 822,-202 816,-202"/>
<text text-anchor="middle" x="784" y="-180.3" font-family="Times,serif" font-size="14.00" fill="#314b5f">vimeo/psalm</text>
</g>
<!-- jawira/plantuml&#45;encoding&#45;&gt;vimeo/psalm -->
<g id="edge21" class="edge">
<title>jawira/plantuml&#45;encoding&#45;&gt;vimeo/psalm</title>
<path fill="none" stroke="#1a2833" stroke-dasharray="5,2" d="M609.3877,-248.9902C645.0174,-235.729 693.4672,-217.6961 730.293,-203.9896"/>
<polygon fill="#1a2833" stroke="#1a2833" points="731.7185,-207.1937 739.8695,-200.4252 729.2767,-200.6333 731.7185,-207.1937"/>
<text text-anchor="middle" x="695" y="-223" font-family="Times,serif" font-size="10.00" fill="#767676">^4.0</text>
</g>
<!-- cweagans/composer&#45;patches&#45;&gt;php -->
<g id="edge10" class="edge">
<title>cweagans/composer&#45;patches&#45;&gt;php</title>
<path fill="none" stroke="#1a2833" d="M534.7859,-82.9733C487.0566,-74.1054 428.5203,-63.3415 376,-54 315.5679,-43.2513 245.2467,-31.3115 203.2473,-24.2409"/>
<polygon fill="#1a2833" stroke="#1a2833" points="203.645,-20.7587 193.203,-22.5518 202.4841,-27.6617 203.645,-20.7587"/>
<text text-anchor="middle" x="448.5" y="-57" font-family="Times,serif" font-size="10.00" fill="#767676">&gt;=5.3.0</text>
</g>
<!-- composer&#45;plugin&#45;api -->
<g id="node9" class="node">
<title>composer&#45;plugin&#45;api</title>
<path fill="#eeeeee" stroke="#000000" d="M805,-36C805,-36 699,-36 699,-36 693,-36 687,-30 687,-24 687,-24 687,-12 687,-12 687,-6 693,0 699,0 699,0 805,0 805,0 811,0 817,-6 817,-12 817,-12 817,-24 817,-24 817,-30 811,-36 805,-36"/>
<text text-anchor="middle" x="752" y="-14.3" font-family="Times,serif" font-size="14.00" fill="#314b5f">composer&#45;plugin&#45;api</text>
</g>
<!-- cweagans/composer&#45;patches&#45;&gt;composer&#45;plugin&#45;api -->
<g id="edge9" class="edge">
<title>cweagans/composer&#45;patches&#45;&gt;composer&#45;plugin&#45;api</title>
<path fill="none" stroke="#1a2833" d="M657.2552,-82.9902C674.7349,-71 697.9012,-55.1091 716.9506,-42.0421"/>
<polygon fill="#1a2833" stroke="#1a2833" points="719.1116,-44.8041 725.3782,-36.2612 715.152,-39.0316 719.1116,-44.8041"/>
<text text-anchor="middle" x="721" y="-57" font-family="Times,serif" font-size="10.00" fill="#767676">^1.0 || ^2.0</text>
</g>
<!-- composer/composer -->
<g id="node10" class="node">
<title>composer/composer</title>
<path fill="#eeeeee" stroke="#000000" d="M656.5,-36C656.5,-36 553.5,-36 553.5,-36 547.5,-36 541.5,-30 541.5,-24 541.5,-24 541.5,-12 541.5,-12 541.5,-6 547.5,0 553.5,0 553.5,0 656.5,0 656.5,0 662.5,0 668.5,-6 668.5,-12 668.5,-12 668.5,-24 668.5,-24 668.5,-30 662.5,-36 656.5,-36"/>
<text text-anchor="middle" x="605" y="-14.3" font-family="Times,serif" font-size="14.00" fill="#314b5f">composer/composer</text>
</g>
<!-- cweagans/composer&#45;patches&#45;&gt;composer/composer -->
<g id="edge11" class="edge">
<title>cweagans/composer&#45;patches&#45;&gt;composer/composer</title>
<path fill="none" stroke="#1a2833" stroke-dasharray="5,2" d="M625.3584,-82.9902C621.9746,-72.1883 617.5992,-58.2204 613.7722,-46.0036"/>
<polygon fill="#1a2833" stroke="#1a2833" points="617.0497,-44.7577 610.7204,-36.2612 610.3698,-46.8503 617.0497,-44.7577"/>
<text text-anchor="middle" x="643" y="-57" font-family="Times,serif" font-size="10.00" fill="#767676">~1.0 || ~2.0</text>
</g>
<!-- phpunit/phpunit -->
<g id="node11" class="node">
<title>phpunit/phpunit</title>
<path fill="#eeeeee" stroke="#000000" d="M485.5,-36C485.5,-36 406.5,-36 406.5,-36 400.5,-36 394.5,-30 394.5,-24 394.5,-24 394.5,-12 394.5,-12 394.5,-6 400.5,0 406.5,0 406.5,0 485.5,0 485.5,0 491.5,0 497.5,-6 497.5,-12 497.5,-12 497.5,-24 497.5,-24 497.5,-30 491.5,-36 485.5,-36"/>
<text text-anchor="middle" x="446" y="-14.3" font-family="Times,serif" font-size="14.00" fill="#314b5f">phpunit/phpunit</text>
</g>
<!-- cweagans/composer&#45;patches&#45;&gt;phpunit/phpunit -->
<g id="edge12" class="edge">
<title>cweagans/composer&#45;patches&#45;&gt;phpunit/phpunit</title>
<path fill="none" stroke="#1a2833" stroke-dasharray="5,2" d="M590.8578,-82.9902C562.9533,-70.4709 525.5701,-53.699 495.7702,-40.3293"/>
<polygon fill="#1a2833" stroke="#1a2833" points="496.9395,-37.0179 486.3829,-36.1177 494.074,-43.4045 496.9395,-37.0179"/>
<text text-anchor="middle" x="559.5" y="-57" font-family="Times,serif" font-size="10.00" fill="#767676">~4.6</text>
</g>
<!-- graphp/graph&#45;&gt;php -->
<g id="edge13" class="edge">
<title>graphp/graph&#45;&gt;php</title>
<path fill="none" stroke="#1a2833" d="M242.864,-82.9715C235.4532,-77.3138 227.3234,-70.982 220,-65 211.3926,-57.9692 202.2097,-50.1156 193.9035,-42.8717"/>
<polygon fill="#1a2833" stroke="#1a2833" points="196.0807,-40.1257 186.2559,-36.1603 191.4634,-45.387 196.0807,-40.1257"/>
<text text-anchor="middle" x="232.5" y="-57" font-family="Times,serif" font-size="10.00" fill="#767676">&gt;=5.3</text>
</g>
<!-- graphp/graph&#45;&gt;phpunit/phpunit -->
<g id="edge14" class="edge">
<title>graphp/graph&#45;&gt;phpunit/phpunit</title>
<path fill="none" stroke="#1a2833" stroke-dasharray="5,2" d="M272.8642,-82.9055C276.9856,-72.9574 283.4856,-61.2074 293,-54 307.514,-43.0053 348.4742,-33.6905 384.3635,-27.292"/>
<polygon fill="#1a2833" stroke="#1a2833" points="385.0699,-30.7219 394.3254,-25.5657 383.8746,-23.8247 385.0699,-30.7219"/>
<text text-anchor="middle" x="334.5" y="-57" font-family="Times,serif" font-size="10.00" fill="#767676">^9.3 || ^5.7 || ^4.8.35</text>
</g>
<!-- graphp/graphviz&#45;&gt;php -->
<g id="edge16" class="edge">
<title>graphp/graphviz&#45;&gt;php</title>
<path fill="none" stroke="#1a2833" d="M258.4541,-166.2926C211.3649,-154.7127 159.9245,-138.1967 146,-119 130.4575,-97.5727 139.5888,-67.1388 150.049,-45.2882"/>
<polygon fill="#1a2833" stroke="#1a2833" points="153.2563,-46.704 154.7045,-36.2086 147.0274,-43.5102 153.2563,-46.704"/>
<text text-anchor="middle" x="162.5" y="-98.5" font-family="Times,serif" font-size="10.00" fill="#767676">&gt;=5.3.0</text>
</g>
<!-- graphp/graphviz&#45;&gt;graphp/graph -->
<g id="edge15" class="edge">
<title>graphp/graphviz&#45;&gt;graphp/graph</title>
<path fill="none" stroke="#1a2833" d="M305.1522,-165.9061C297.3564,-160.9676 289.8088,-155.0045 284,-148 279.4597,-142.5252 276.0841,-135.7378 273.5928,-129.0397"/>
<polygon fill="#1a2833" stroke="#1a2833" points="276.91,-127.9215 270.5428,-119.4533 270.2394,-130.0438 276.91,-127.9215"/>
<text text-anchor="middle" x="342" y="-140" font-family="Times,serif" font-size="10.00" fill="#767676">dev&#45;master#81eef65 as 1.0.0</text>
</g>
<!-- graphp/graphviz&#45;&gt;phpunit/phpunit -->
<g id="edge17" class="edge">
<title>graphp/graphviz&#45;&gt;phpunit/phpunit</title>
<path fill="none" stroke="#1a2833" stroke-dasharray="5,2" d="M379.9655,-165.8365C387.3009,-160.8152 394.4772,-154.835 400,-148 412.8303,-132.1211 428.9808,-79.7047 438.3336,-46.4792"/>
<polygon fill="#1a2833" stroke="#1a2833" points="441.8189,-47.0083 441.1186,-36.4366 435.0735,-45.1376 441.8189,-47.0083"/>
<text text-anchor="middle" x="469.5" y="-98.5" font-family="Times,serif" font-size="10.00" fill="#767676">^9.3 || ^5.7 || ^4.8.35</text>
</g>
</g>
</svg>
