<?xml version="1.0" encoding="UTF-8" standalone="no"?>
<!DOCTYPE svg PUBLIC "-//W3C//DTD SVG 1.1//EN"
 "http://www.w3.org/Graphics/SVG/1.1/DTD/svg11.dtd">
<!-- Generated by graphviz version 2.40.1 (20161225.0304)
 -->
<!-- Title: %3 Pages: 1 -->
<svg width="1049pt" height="376pt"
 viewBox="0.00 0.00 1049.00 376.00" xmlns="http://www.w3.org/2000/svg" xmlns:xlink="http://www.w3.org/1999/xlink">
<g id="graph0" class="graph" transform="scale(1 1) rotate(0) translate(4 372)">
<title>%3</title>
<polygon fill="#ffffff" stroke="transparent" points="-4,4 -4,-372 1045,-372 1045,4 -4,4"/>
<!-- bartlett/graph&#45;plantuml&#45;generator -->
<g id="node1" class="node">
<title>bartlett/graph&#45;plantuml&#45;generator</title>
<path fill="#eeeeee" stroke="#000000" stroke-width="2" d="M786,-368C786,-368 549,-368 549,-368 543,-368 537,-362 537,-356 537,-356 537,-344 537,-344 537,-338 543,-332 549,-332 549,-332 786,-332 786,-332 792,-332 798,-338 798,-344 798,-344 798,-356 798,-356 798,-362 792,-368 786,-368"/>
<text text-anchor="middle" x="667.5" y="-346.3" font-family="Times,serif" font-size="14.00" fill="#314b5f">bartlett/graph&#45;plantuml&#45;generator</text>
</g>
<!-- php -->
<g id="node2" class="node">
<title>php</title>
<path fill="#eeeeee" stroke="#000000" d="M553.5,-36C553.5,-36 523.5,-36 523.5,-36 517.5,-36 511.5,-30 511.5,-24 511.5,-24 511.5,-12 511.5,-12 511.5,-6 517.5,0 523.5,0 523.5,0 553.5,0 553.5,0 559.5,0 565.5,-6 565.5,-12 565.5,-12 565.5,-24 565.5,-24 565.5,-30 559.5,-36 553.5,-36"/>
<text text-anchor="middle" x="538.5" y="-14.3" font-family="Times,serif" font-size="14.00" fill="#314b5f">php</text>
</g>
<!-- bartlett/graph&#45;plantuml&#45;generator&#45;&gt;php -->
<g id="edge1" class="edge">
<title>bartlett/graph&#45;plantuml&#45;generator&#45;&gt;php</title>
<path fill="none" stroke="#1a2833" d="M761.9596,-331.9092C793.8369,-319.8832 821.5,-299.9536 821.5,-267 821.5,-267 821.5,-267 821.5,-101 821.5,-50.3871 652.7184,-28.4466 575.8453,-21.0784"/>
<polygon fill="#1a2833" stroke="#1a2833" points="575.9151,-17.57 565.6352,-20.1339 575.2703,-24.5402 575.9151,-17.57"/>
<text text-anchor="middle" x="838" y="-181.5" font-family="Times,serif" font-size="10.00" fill="#767676">^7.1.3</text>
</g>
<!-- bartlett/graph&#45;uml -->
<g id="node3" class="node">
<title>bartlett/graph&#45;uml</title>
<path fill="#eeeeee" stroke="#000000" d="M511,-285C511,-285 308,-285 308,-285 302,-285 296,-279 296,-273 296,-273 296,-261 296,-261 296,-255 302,-249 308,-249 308,-249 511,-249 511,-249 517,-249 523,-255 523,-261 523,-261 523,-273 523,-273 523,-279 517,-285 511,-285"/>
<text text-anchor="middle" x="409.5" y="-263.3" font-family="Times,serif" font-size="14.00" fill="#314b5f">bartlett/graph&#45;uml: 1.0.0&#45;rc.1</text>
</g>
<!-- bartlett/graph&#45;plantuml&#45;generator&#45;&gt;bartlett/graph&#45;uml -->
<g id="edge2" class="edge">
<title>bartlett/graph&#45;plantuml&#45;generator&#45;&gt;bartlett/graph&#45;uml</title>
<path fill="none" stroke="#1a2833" d="M611.5178,-331.9902C571.5074,-319.1187 517.5237,-301.7518 475.4266,-288.209"/>
<polygon fill="#1a2833" stroke="#1a2833" points="476.4092,-284.8485 465.8178,-285.1177 474.2654,-291.5121 476.4092,-284.8485"/>
<text text-anchor="middle" x="566.5" y="-306" font-family="Times,serif" font-size="10.00" fill="#767676">^1.0</text>
</g>
<!-- graphp/graphviz -->
<g id="node4" class="node">
<title>graphp/graphviz</title>
<path fill="#eeeeee" stroke="#000000" d="M365,-202C365,-202 12,-202 12,-202 6,-202 0,-196 0,-190 0,-190 0,-178 0,-178 0,-172 6,-166 12,-166 12,-166 365,-166 365,-166 371,-166 377,-172 377,-178 377,-178 377,-190 377,-190 377,-196 371,-202 365,-202"/>
<text text-anchor="middle" x="188.5" y="-180.3" font-family="Times,serif" font-size="14.00" fill="#314b5f">graphp/graphviz: dev&#45;subgraph_cluster_attributes</text>
</g>
<!-- bartlett/graph&#45;plantuml&#45;generator&#45;&gt;graphp/graphviz -->
<g id="edge3" class="edge">
<title>bartlett/graph&#45;plantuml&#45;generator&#45;&gt;graphp/graphviz</title>
<path fill="none" stroke="#1a2833" d="M536.9627,-344.4483C374.8755,-336.1894 115.9965,-317.9804 86.5,-285 61.4594,-257.0017 101.2644,-226.9605 138.2364,-206.9878"/>
<polygon fill="#1a2833" stroke="#1a2833" points="140.2888,-209.8647 147.5339,-202.1343 137.0494,-203.6594 140.2888,-209.8647"/>
<text text-anchor="middle" x="186.5" y="-264.5" font-family="Times,serif" font-size="10.00" fill="#767676">dev&#45;subgraph_cluster_attributes as 1.0.0</text>
</g>
<!-- jawira/plantuml&#45;encoding -->
<g id="node5" class="node">
<title>jawira/plantuml&#45;encoding</title>
<path fill="#eeeeee" stroke="#000000" d="M781.5,-285C781.5,-285 553.5,-285 553.5,-285 547.5,-285 541.5,-279 541.5,-273 541.5,-273 541.5,-261 541.5,-261 541.5,-255 547.5,-249 553.5,-249 553.5,-249 781.5,-249 781.5,-249 787.5,-249 793.5,-255 793.5,-261 793.5,-261 793.5,-273 793.5,-273 793.5,-279 787.5,-285 781.5,-285"/>
<text text-anchor="middle" x="667.5" y="-263.3" font-family="Times,serif" font-size="14.00" fill="#314b5f">jawira/plantuml&#45;encoding: v1.0.7</text>
</g>
<!-- bartlett/graph&#45;plantuml&#45;generator&#45;&gt;jawira/plantuml&#45;encoding -->
<g id="edge4" class="edge">
<title>bartlett/graph&#45;plantuml&#45;generator&#45;&gt;jawira/plantuml&#45;encoding</title>
<path fill="none" stroke="#1a2833" d="M667.5,-331.9902C667.5,-321.2963 667.5,-307.4994 667.5,-295.3706"/>
<polygon fill="#1a2833" stroke="#1a2833" points="671.0001,-295.2612 667.5,-285.2612 664.0001,-295.2613 671.0001,-295.2612"/>
<text text-anchor="middle" x="679.5" y="-306" font-family="Times,serif" font-size="10.00" fill="#767676">^1.0</text>
</g>
<!-- jawira/plantuml -->
<g id="node6" class="node">
<title>jawira/plantuml</title>
<path fill="#eeeeee" stroke="#000000" d="M1029,-285C1029,-285 862,-285 862,-285 856,-285 850,-279 850,-273 850,-273 850,-261 850,-261 850,-255 856,-249 862,-249 862,-249 1029,-249 1029,-249 1035,-249 1041,-255 1041,-261 1041,-261 1041,-273 1041,-273 1041,-279 1035,-285 1029,-285"/>
<text text-anchor="middle" x="945.5" y="-263.3" font-family="Times,serif" font-size="14.00" fill="#314b5f">jawira/plantuml: v1.36.0</text>
</g>
<!-- bartlett/graph&#45;plantuml&#45;generator&#45;&gt;jawira/plantuml -->
<g id="edge5" class="edge">
<title>bartlett/graph&#45;plantuml&#45;generator&#45;&gt;jawira/plantuml</title>
<path fill="none" stroke="#1a2833" stroke-dasharray="5,2" d="M767.3815,-331.9081C789.9983,-326.8987 813.751,-320.9056 835.5,-314 856.8477,-307.2219 879.7319,-297.8129 899.069,-289.1929"/>
<polygon fill="#1a2833" stroke="#1a2833" points="900.5847,-292.3488 908.2545,-285.0396 897.7006,-285.9705 900.5847,-292.3488"/>
<text text-anchor="middle" x="878.5" y="-306" font-family="Times,serif" font-size="10.00" fill="#767676">^1.28</text>
</g>
<!-- bartlett/graph&#45;uml&#45;&gt;php -->
<g id="edge8" class="edge">
<title>bartlett/graph&#45;uml&#45;&gt;php</title>
<path fill="none" stroke="#1a2833" d="M450.8233,-248.9951C470.7324,-238.2129 493.1336,-222.5669 506.5,-202 537.6174,-154.1197 541.0651,-85.0353 540.1869,-46.582"/>
<polygon fill="#1a2833" stroke="#1a2833" points="543.6692,-46.0118 539.8228,-36.1399 536.6734,-46.2558 543.6692,-46.0118"/>
<text text-anchor="middle" x="549" y="-140" font-family="Times,serif" font-size="10.00" fill="#767676">^7.1.3</text>
</g>
<!-- bartlett/graph&#45;uml&#45;&gt;graphp/graphviz -->
<g id="edge7" class="edge">
<title>bartlett/graph&#45;uml&#45;&gt;graphp/graphviz</title>
<path fill="none" stroke="#1a2833" d="M295.9838,-250.2031C248.5904,-242.7149 203.4806,-234.7482 199.5,-231 194.335,-226.1366 191.3831,-219.35 189.7454,-212.4441"/>
<polygon fill="#1a2833" stroke="#1a2833" points="193.1857,-211.7895 188.1817,-202.4508 186.2698,-212.8717 193.1857,-211.7895"/>
<text text-anchor="middle" x="299.5" y="-223" font-family="Times,serif" font-size="10.00" fill="#767676">dev&#45;subgraph_cluster_attributes as 1.0.0</text>
</g>
<!-- graphp/graph -->
<g id="node7" class="node">
<title>graphp/graph</title>
<path fill="#eeeeee" stroke="#000000" d="M485,-119C485,-119 306,-119 306,-119 300,-119 294,-113 294,-107 294,-107 294,-95 294,-95 294,-89 300,-83 306,-83 306,-83 485,-83 485,-83 491,-83 497,-89 497,-95 497,-95 497,-107 497,-107 497,-113 491,-119 485,-119"/>
<text text-anchor="middle" x="395.5" y="-97.3" font-family="Times,serif" font-size="14.00" fill="#314b5f">graphp/graph: dev&#45;master</text>
</g>
<!-- bartlett/graph&#45;uml&#45;&gt;graphp/graph -->
<g id="edge6" class="edge">
<title>bartlett/graph&#45;uml&#45;&gt;graphp/graph</title>
<path fill="none" stroke="#1a2833" d="M408.302,-248.8972C406.5944,-223.7652 403.2493,-176.8901 399.5,-137 399.2716,-134.57 399.0205,-132.0493 398.7589,-129.5214"/>
<polygon fill="#1a2833" stroke="#1a2833" points="402.2088,-128.8681 397.655,-119.3018 395.2492,-129.6199 402.2088,-128.8681"/>
<text text-anchor="middle" x="454" y="-181.5" font-family="Times,serif" font-size="10.00" fill="#767676">dev&#45;master as 1.0.0</text>
</g>
<!-- graphp/graphviz&#45;&gt;php -->
<g id="edge12" class="edge">
<title>graphp/graphviz&#45;&gt;php</title>
<path fill="none" stroke="#1a2833" d="M193.2658,-165.9753C200.3001,-143.0309 215.7283,-103.8725 243.5,-83 283.9744,-52.5804 431.2165,-31.0707 501.1417,-22.3359"/>
<polygon fill="#1a2833" stroke="#1a2833" points="501.7752,-25.7845 511.2743,-21.0922 500.9224,-18.8366 501.7752,-25.7845"/>
<text text-anchor="middle" x="264" y="-98.5" font-family="Times,serif" font-size="10.00" fill="#767676">&gt;=5.3.0</text>
</g>
<!-- graphp/graphviz&#45;&gt;graphp/graph -->
<g id="edge11" class="edge">
<title>graphp/graphviz&#45;&gt;graphp/graph</title>
<path fill="none" stroke="#1a2833" d="M209.5419,-165.9521C221.9246,-156.1445 238.2944,-144.5186 254.5,-137 267.0404,-131.1818 280.6618,-126.2061 294.3291,-121.9786"/>
<polygon fill="#1a2833" stroke="#1a2833" points="295.6811,-125.2284 304.2744,-119.0311 293.692,-118.517 295.6811,-125.2284"/>
<text text-anchor="middle" x="327" y="-140" font-family="Times,serif" font-size="10.00" fill="#767676">dev&#45;master#81eef65 as 1.0.0</text>
</g>
<!-- phpunit/phpunit -->
<g id="node8" class="node">
<title>phpunit/phpunit</title>
<path fill="#eeeeee" stroke="#000000" d="M134.5,-36C134.5,-36 26.5,-36 26.5,-36 20.5,-36 14.5,-30 14.5,-24 14.5,-24 14.5,-12 14.5,-12 14.5,-6 20.5,0 26.5,0 26.5,0 134.5,0 134.5,0 140.5,0 146.5,-6 146.5,-12 146.5,-12 146.5,-24 146.5,-24 146.5,-30 140.5,-36 134.5,-36"/>
<text text-anchor="middle" x="80.5" y="-14.3" font-family="Times,serif" font-size="14.00" fill="#314b5f">phpunit/phpunit</text>
</g>
<!-- graphp/graphviz&#45;&gt;phpunit/phpunit -->
<g id="edge13" class="edge">
<title>graphp/graphviz&#45;&gt;phpunit/phpunit</title>
<path fill="none" stroke="#1a2833" stroke-dasharray="5,2" d="M144.329,-165.9818C124.1544,-155.3851 102.0132,-139.9061 89.5,-119 76.4289,-97.1618 75.251,-67.7771 76.702,-46.3346"/>
<polygon fill="#1a2833" stroke="#1a2833" points="80.2016,-46.4962 77.6178,-36.2213 73.2301,-45.8648 80.2016,-46.4962"/>
<text text-anchor="middle" x="144" y="-98.5" font-family="Times,serif" font-size="10.00" fill="#767676">^6.4 || ^5.7 || ^4.8.35</text>
</g>
<!-- jawira/plantuml&#45;encoding&#45;&gt;php -->
<g id="edge15" class="edge">
<title>jawira/plantuml&#45;encoding&#45;&gt;php</title>
<path fill="none" stroke="#1a2833" d="M653.9652,-248.7389C644.8081,-235.9851 632.7445,-218.3763 623.5,-202 615.2668,-187.4152 572.2685,-92.7586 550.7673,-45.1933"/>
<polygon fill="#1a2833" stroke="#1a2833" points="553.9545,-43.7468 546.6479,-36.0745 547.5753,-46.6287 553.9545,-43.7468"/>
<text text-anchor="middle" x="631.5" y="-140" font-family="Times,serif" font-size="10.00" fill="#767676">^5.3.2 || ^7.0</text>
</g>
<!-- ext&#45;zlib -->
<g id="node9" class="node">
<title>ext&#45;zlib</title>
<path fill="#eeeeee" stroke="#000000" d="M690,-202C690,-202 645,-202 645,-202 639,-202 633,-196 633,-190 633,-190 633,-178 633,-178 633,-172 639,-166 645,-166 645,-166 690,-166 690,-166 696,-166 702,-172 702,-178 702,-178 702,-190 702,-190 702,-196 696,-202 690,-202"/>
<text text-anchor="middle" x="667.5" y="-180.3" font-family="Times,serif" font-size="14.00" fill="#314b5f">ext&#45;zlib</text>
</g>
<!-- jawira/plantuml&#45;encoding&#45;&gt;ext&#45;zlib -->
<g id="edge14" class="edge">
<title>jawira/plantuml&#45;encoding&#45;&gt;ext&#45;zlib</title>
<path fill="none" stroke="#1a2833" d="M667.5,-248.9902C667.5,-238.2963 667.5,-224.4994 667.5,-212.3706"/>
<polygon fill="#1a2833" stroke="#1a2833" points="671.0001,-212.2612 667.5,-202.2612 664.0001,-212.2613 671.0001,-212.2612"/>
<text text-anchor="middle" x="670.5" y="-223" font-family="Times,serif" font-size="10.00" fill="#767676">*</text>
</g>
<!-- graphp/graph&#45;&gt;php -->
<g id="edge9" class="edge">
<title>graphp/graph&#45;&gt;php</title>
<path fill="none" stroke="#1a2833" d="M420.5796,-82.9769C433.6944,-73.8585 450.1709,-62.8732 465.5,-54 477.1766,-47.241 490.2975,-40.5162 502.1612,-34.7402"/>
<polygon fill="#1a2833" stroke="#1a2833" points="503.8529,-37.8106 511.3545,-30.3288 500.8245,-31.4995 503.8529,-37.8106"/>
<text text-anchor="middle" x="495" y="-57" font-family="Times,serif" font-size="10.00" fill="#767676">^7.0 || ^5.3</text>
</g>
<!-- graphp/graph&#45;&gt;phpunit/phpunit -->
<g id="edge10" class="edge">
<title>graphp/graph&#45;&gt;phpunit/phpunit</title>
<path fill="none" stroke="#1a2833" stroke-dasharray="5,2" d="M327.1497,-82.9902C276.8327,-69.7321 208.4153,-51.7047 156.4014,-37.9994"/>
<polygon fill="#1a2833" stroke="#1a2833" points="157.1201,-34.5694 146.5583,-35.4058 155.3365,-41.3384 157.1201,-34.5694"/>
<text text-anchor="middle" x="312" y="-57" font-family="Times,serif" font-size="10.00" fill="#767676">^6.4 || ^5.7 || ^4.8.35</text>
</g>
</g>
</svg>
